{
	"asset":{
		"generator":"Khronos glTF Blender I/O v5.1.19",
		"version":"2.0"
	},
	"extensionsUsed":[
		"KHR_materials_specular"
	],
	"scene":0,
	"scenes":[
		{
			"name":"Scene",
			"nodes":[
				0,
				1,
				2,
				3,
				4,
				5,
				6,
				7,
				8,
				9,
				10,
				11,
				12,
				13,
				14,
				15,
				16,
				17,
				18,
				19,
				20,
				21,
				22,
				23,
				24,
				25,
				26,
				27,
				28,
				29,
				30,
				31,
				32,
				33,
				34,
				35,
				36,
				37,
				38,
				39,
				40,
				41,
				42,
				43,
				44,
				45,
				46,
				47,
				48,
				49,
				50,
				51,
				52,
				53,
				54
			]
		}
	],
	"nodes":[
		{
			"mesh":0,
			"name":"conveyor-stripe-part-end",
			"rotation":[
				0.5006205439567566,
				-0.49937865138053894,
				0.49937862157821655,
				0.5006206631660461
			],
			"translation":[
				0,
				-0.3264477849006653,
				5.239590167999268
			]
		},
		{
			"mesh":1,
			"name":"conveyor-stripe-part-middle.001",
			"rotation":[
				0.5184988975524902,
				-0.5190455913543701,
				0.48074787855148315,
				0.480241596698761
			],
			"translation":[
				0,
				0.05347336083650589,
				-0.007810115814208984
			]
		},
		{
			"mesh":2,
			"name":"conveyor-stripe-part-middle.002",
			"rotation":[
				0.5184988975524902,
				-0.5190455913543701,
				0.48074787855148315,
				0.480241596698761
			],
			"translation":[
				1.9965593814849854,
				0.05347336083650589,
				-0.007810115814208984
			]
		},
		{
			"mesh":3,
			"name":"conveyor-stripe-part-end.001",
			"rotation":[
				0.5006205439567566,
				-0.49937865138053894,
				0.49937862157821655,
				0.5006206631660461
			],
			"translation":[
				1.9965593814849854,
				-0.3264477849006653,
				5.239590167999268
			]
		},
		{
			"mesh":4,
			"name":"conveyor-stripe-part-middle.003",
			"rotation":[
				0.5184988975524902,
				-0.5190455913543701,
				0.48074787855148315,
				0.480241596698761
			],
			"translation":[
				4,
				0.05347336083650589,
				-0.007810115814208984
			]
		},
		{
			"mesh":5,
			"name":"conveyor-stripe-part-end.002",
			"rotation":[
				0.5006205439567566,
				-0.49937865138053894,
				0.49937862157821655,
				0.5006206631660461
			],
			"translation":[
				4,
				-0.3264477849006653,
				5.239590167999268
			]
		},
		{
			"mesh":6,
			"name":"conveyor-stripe-part-middle.004",
			"rotation":[
				0.5184988975524902,
				-0.5190455913543701,
				0.48074787855148315,
				0.480241596698761
			],
			"translation":[
				-2.0131070613861084,
				0.05347336083650589,
				-0.007810115814208984
			]
		},
		{
			"mesh":7,
			"name":"conveyor-stripe-part-end.003",
			"rotation":[
				0.5006205439567566,
				-0.49937865138053894,
				0.49937862157821655,
				0.5006206631660461
			],
			"translation":[
				-2.0131070613861084,
				-0.3264477849006653,
				5.239590167999268
			]
		},
		{
			"mesh":8,
			"name":"conveyor-stripe-part-middle.005",
			"rotation":[
				0.5184988975524902,
				-0.5190455913543701,
				0.48074787855148315,
				0.480241596698761
			],
			"translation":[
				-4,
				0.05347336083650589,
				-0.007810115814208984
			]
		},
		{
			"mesh":9,
			"name":"conveyor-stripe-part-end.004",
			"rotation":[
				0.5006205439567566,
				-0.49937865138053894,
				0.49937862157821655,
				0.5006206631660461
			],
			"translation":[
				-4,
				-0.3264477849006653,
				5.239590167999268
			]
		},
		{
			"mesh":10,
			"name":"COL1",
			"rotation":[
				0.03827747702598572,
				0,
				0,
				0.9992672204971313
			],
			"scale":[
				0.533487856388092,
				0.12212824076414108,
				5.176985740661621
			],
			"translation":[
				-0.01160573959350586,
				0.27115267515182495,
				0.2613122761249542
			]
		},
		{
			"mesh":11,
			"name":"COL2",
			"rotation":[
				0.03827747702598572,
				0,
				0,
				0.9992672204971313
			],
			"scale":[
				0.533487856388092,
				0.12212824076414108,
				5.176985740661621
			],
			"translation":[
				2,
				0.27115267515182495,
				0.2613122761249542
			]
		},
		{
			"mesh":12,
			"name":"COL3",
			"rotation":[
				0.03827747702598572,
				0,
				0,
				0.9992672204971313
			],
			"scale":[
				0.533487856388092,
				0.12212824076414108,
				5.176985740661621
			],
			"translation":[
				4,
				0.27115267515182495,
				0.2613122761249542
			]
		},
		{
			"mesh":13,
			"name":"COL4",
			"rotation":[
				0.03827747702598572,
				0,
				0,
				0.9992672204971313
			],
			"scale":[
				0.533487856388092,
				0.12212824076414108,
				5.176985740661621
			],
			"translation":[
				-2,
				0.27115267515182495,
				0.2613122761249542
			]
		},
		{
			"mesh":14,
			"name":"COL5",
			"rotation":[
				0.03827747702598572,
				0,
				0,
				0.9992672204971313
			],
			"scale":[
				0.533487856388092,
				0.12212824076414108,
				5.176985740661621
			],
			"translation":[
				-4,
				0.27115267515182495,
				0.2613122761249542
			]
		},
		{
			"mesh":15,
			"name":"structure-tall",
			"rotation":[
				0,
				0.7164050936698914,
				0,
				0.6976845264434814
			],
			"scale":[
				1,
				0.8524552583694458,
				1
			],
			"translation":[
				0,
				-1.9850795269012451,
				5.340944290161133
			]
		},
		{
			"mesh":16,
			"name":"structure-tall.001",
			"rotation":[
				0,
				0.7164050936698914,
				0,
				0.6976845264434814
			],
			"scale":[
				1,
				0.8524552583694458,
				1
			],
			"translation":[
				2,
				-1.9850795269012451,
				5.340944290161133
			]
		},
		{
			"mesh":17,
			"name":"structure-tall.002",
			"rotation":[
				0,
				0.7164050936698914,
				0,
				0.6976845264434814
			],
			"scale":[
				1,
				0.8524552583694458,
				1
			],
			"translation":[
				4,
				-1.9850795269012451,
				5.340944290161133
			]
		},
		{
			"mesh":18,
			"name":"structure-tall.003",
			"rotation":[
				0,
				0.7164050936698914,
				0,
				0.6976845264434814
			],
			"scale":[
				1,
				0.8524552583694458,
				1
			],
			"translation":[
				-2,
				-1.9850795269012451,
				5.340944290161133
			]
		},
		{
			"mesh":19,
			"name":"structure-tall.004",
			"rotation":[
				0,
				0.7164050936698914,
				0,
				0.6976845264434814
			],
			"scale":[
				1,
				0.8524552583694458,
				1
			],
			"translation":[
				-4,
				-1.9850795269012451,
				5.340944290161133
			]
		},
		{
			"mesh":20,
			"name":"structure-tall.005",
			"rotation":[
				0,
				0.7164050936698914,
				0,
				0.697684645652771
			],
			"scale":[
				1,
				1.223820686340332,
				1
			],
			"translation":[
				0,
				-1.9850795269012451,
				-4.82113790512085
			]
		},
		{
			"mesh":21,
			"name":"structure-tall.006",
			"rotation":[
				0,
				0.7164050936698914,
				0,
				0.697684645652771
			],
			"scale":[
				1,
				1.2250418663024902,
				1
			],
			"translation":[
				2,
				-1.9850795269012451,
				-4.82113790512085
			]
		},
		{
			"mesh":22,
			"name":"structure-tall.007",
			"rotation":[
				0,
				0.7164050936698914,
				0,
				0.697684645652771
			],
			"scale":[
				1,
				1.221152901649475,
				1
			],
			"translation":[
				4,
				-1.9850795269012451,
				-4.82113790512085
			]
		},
		{
			"mesh":23,
			"name":"structure-tall.008",
			"rotation":[
				0,
				0.7164050936698914,
				0,
				0.697684645652771
			],
			"scale":[
				1,
				1.2238729000091553,
				1
			],
			"translation":[
				-2,
				-1.9850795269012451,
				-4.82113790512085
			]
		},
		{
			"mesh":24,
			"name":"structure-tall.009",
			"rotation":[
				0,
				0.7164050936698914,
				0,
				0.697684645652771
			],
			"scale":[
				1,
				1.2139018774032593,
				1
			],
			"translation":[
				-4,
				-1.9850795269012451,
				-4.82113790512085
			]
		},
		{
			"mesh":25,
			"name":"machine-fortified",
			"rotation":[
				0.4981590509414673,
				-0.5018342137336731,
				0.5018341541290283,
				0.4981590807437897
			],
			"translation":[
				4.006128311157227,
				0.7330785989761353,
				-4.410980224609375
			]
		},
		{
			"mesh":26,
			"name":"COL3.001",
			"rotation":[
				0.03827747702598572,
				0,
				0,
				0.9992672204971313
			],
			"scale":[
				0.533487856388092,
				0.12212824076414108,
				5.176985740661621
			],
			"translation":[
				4,
				0.3002603054046631,
				0.26354551315307617
			]
		},
		{
			"mesh":27,
			"name":"conveyor-stripe-part-end.007",
			"rotation":[
				0.49928489327430725,
				0.500714123249054,
				-0.5007141828536987,
				0.499284952878952
			],
			"translation":[
				6,
				0.4132213890552521,
				-4.71299409866333
			]
		},
		{
			"mesh":28,
			"name":"conveyor-stripe-part-middle.006",
			"rotation":[
				0.5184988975524902,
				-0.5190455913543701,
				0.48074787855148315,
				0.4802415668964386
			],
			"scale":[
				1.401795506477356,
				1,
				1
			],
			"translation":[
				6,
				-0.1387733519077301,
				2.4978933334350586
			]
		},
		{
			"mesh":29,
			"name":"structure-tall.010",
			"rotation":[
				0,
				0.7164050936698914,
				0,
				0.697684645652771
			],
			"scale":[
				1,
				1.2299739122390747,
				1
			],
			"translation":[
				5.9888200759887695,
				-1.9850795269012451,
				-4.82113790512085
			]
		},
		{
			"mesh":30,
			"name":"structure-tall.011",
			"rotation":[
				0,
				0.7164050936698914,
				0,
				0.697684645652771
			],
			"scale":[
				1,
				0.8257120847702026,
				1
			],
			"translation":[
				5.9888200759887695,
				-2.0069503784179688,
				5.340944290161133
			]
		},
		{
			"mesh":31,
			"name":"conveyor-stripe-part-end.006",
			"rotation":[
				0.7071068286895752,
				-0.0002423063269816339,
				0.0002423361875116825,
				0.7071066498756409
			],
			"translation":[
				6.245532512664795,
				0.4453495740890503,
				-5.44797420501709
			]
		},
		{
			"mesh":32,
			"name":"conveyor-stripe-part-middle.007",
			"rotation":[
				0.7071067094802856,
				-0.00020238595607224852,
				0.00020238527213223279,
				0.7071068286895752
			],
			"scale":[
				0.14729315042495728,
				0.9999592900276184,
				1
			],
			"translation":[
				5.262986183166504,
				0.4453495740890503,
				-5.44797420501709
			]
		},
		{
			"mesh":33,
			"name":"conveyor-stripe-junction-t",
			"rotation":[
				0.70710688829422,
				0,
				0,
				0.7071066498756409
			],
			"translation":[
				4.010341644287109,
				0.4453495740890503,
				-5.448054790496826
			]
		},
		{
			"mesh":34,
			"name":"conveyor-stripe-part-middle.008",
			"rotation":[
				0.7071067094802856,
				-0.00020238595607224852,
				0.00020238527213223279,
				0.7071068286895752
			],
			"scale":[
				0.10572241246700287,
				0.9999595284461975,
				1
			],
			"translation":[
				3.0166971683502197,
				0.4453495740890503,
				-5.44797420501709
			]
		},
		{
			"mesh":35,
			"name":"conveyor-stripe-junction-t.001",
			"rotation":[
				0.70710688829422,
				0,
				0,
				0.7071066498756409
			],
			"translation":[
				1.9971799850463867,
				0.4453495740890503,
				-5.448054790496826
			]
		},
		{
			"mesh":36,
			"name":"conveyor-stripe-part-middle.009",
			"rotation":[
				0.7071067094802856,
				-0.00020238595607224852,
				0.00020238527213223279,
				0.7071068286895752
			],
			"scale":[
				0.10572241246700287,
				0.9999595284461975,
				1
			],
			"translation":[
				1.0189136266708374,
				0.4453495740890503,
				-5.44797420501709
			]
		},
		{
			"mesh":37,
			"name":"conveyor-stripe-junction-t.002",
			"rotation":[
				0.70710688829422,
				0,
				0,
				0.7071066498756409
			],
			"translation":[
				-0.0006036125123500824,
				0.4453495740890503,
				-5.448054790496826
			]
		},
		{
			"mesh":38,
			"name":"conveyor-stripe-part-middle.010",
			"rotation":[
				0.7071067094802856,
				-0.00020238595607224852,
				0.00020238527213223279,
				0.7071068286895752
			],
			"scale":[
				0.10572241246700287,
				0.9999595284461975,
				1
			],
			"translation":[
				-0.997694194316864,
				0.4453495740890503,
				-5.44797420501709
			]
		},
		{
			"mesh":39,
			"name":"conveyor-stripe-junction-t.003",
			"rotation":[
				0.70710688829422,
				0,
				0,
				0.7071066498756409
			],
			"translation":[
				-2.017211437225342,
				0.4453495740890503,
				-5.448054790496826
			]
		},
		{
			"mesh":40,
			"name":"conveyor-stripe-part-middle.011",
			"rotation":[
				0.7071067094802856,
				-0.00020238595607224852,
				0.00020238527213223279,
				0.7071068286895752
			],
			"scale":[
				0.10572241246700287,
				0.9999595284461975,
				1
			],
			"translation":[
				-2.978271722793579,
				0.4453495740890503,
				-5.44797420501709
			]
		},
		{
			"mesh":41,
			"name":"conveyor-stripe-junction-t.004",
			"rotation":[
				0.70710688829422,
				0,
				0,
				0.7071066498756409
			],
			"translation":[
				-4,
				0.4453495740890503,
				-5.448054790496826
			]
		},
		{
			"mesh":42,
			"name":"conveyor-stripe-part-middle.012",
			"rotation":[
				0.004022415727376938,
				0.7070953249931335,
				-0.7070953845977783,
				0.004022416193038225
			],
			"scale":[
				0.15224787592887878,
				0.9999637603759766,
				1
			],
			"translation":[
				-5.22204065322876,
				0.4453495740890503,
				-5.442617416381836
			]
		},
		{
			"mesh":43,
			"name":"conveyor-stripe-part-end.008",
			"rotation":[
				0.004062366671860218,
				0.7070950865745544,
				-0.707095205783844,
				0.004062337335199118
			],
			"translation":[
				-6.2298078536987305,
				0.4453495740890503,
				-5.453330993652344
			]
		},
		{
			"mesh":44,
			"name":"structure-tall.012",
			"rotation":[
				0,
				0.7164050936698914,
				0,
				0.697684645652771
			],
			"scale":[
				1,
				0.8311262726783752,
				1
			],
			"translation":[
				-6,
				-1.9850795269012451,
				5.340944290161133
			]
		},
		{
			"mesh":45,
			"name":"structure-tall.013",
			"rotation":[
				0,
				0.7164050936698914,
				0,
				0.6976845264434814
			],
			"scale":[
				1,
				1.2250862121582031,
				1
			],
			"translation":[
				-6,
				-1.9850795269012451,
				-4.82113790512085
			]
		},
		{
			"mesh":46,
			"name":"conveyor-stripe-part-middle.013",
			"rotation":[
				0.5184988975524902,
				-0.5190455913543701,
				0.48074787855148315,
				0.4802415668964386
			],
			"scale":[
				1.401795506477356,
				1,
				1
			],
			"translation":[
				-6,
				-0.1387733519077301,
				2.4978933334350586
			]
		},
		{
			"mesh":47,
			"name":"conveyor-stripe-part-end.009",
			"rotation":[
				0.49928489327430725,
				0.500714123249054,
				-0.5007141828536987,
				0.499284952878952
			],
			"translation":[
				-6,
				0.40159061551094055,
				-4.727331161499023
			]
		},
		{
			"mesh":48,
			"name":"machine-fortified.001",
			"rotation":[
				0.4981590509414673,
				-0.5018342137336731,
				0.5018341541290283,
				0.4981590807437897
			],
			"translation":[
				2,
				0.7330785989761353,
				-4.410980224609375
			]
		},
		{
			"mesh":49,
			"name":"machine-fortified.002",
			"rotation":[
				0.4981590509414673,
				-0.5018342137336731,
				0.5018341541290283,
				0.4981590807437897
			],
			"translation":[
				0,
				0.7330785989761353,
				-4.410980224609375
			]
		},
		{
			"mesh":50,
			"name":"machine-fortified.003",
			"rotation":[
				0.4981590509414673,
				-0.5018342137336731,
				0.5018341541290283,
				0.4981590807437897
			],
			"translation":[
				-2,
				0.7330785989761353,
				-4.410980224609375
			]
		},
		{
			"mesh":51,
			"name":"machine-fortified.004",
			"rotation":[
				0.4981590509414673,
				-0.5018342137336731,
				0.5018341541290283,
				0.4981590807437897
			],
			"translation":[
				-4,
				0.7330785989761353,
				-4.410980224609375
			]
		},
		{
			"mesh":52,
			"name":"COL3.002",
			"rotation":[
				0,
				0.7066848278045654,
				0,
				0.7075285315513611
			],
			"scale":[
				0.5334882140159607,
				0.12212824821472168,
				6.913619041442871
			],
			"translation":[
				-0.1507587432861328,
				0.6619740724563599,
				-5.443647861480713
			]
		},
		{
			"mesh":53,
			"name":"COL3.003",
			"rotation":[
				6.705203122692183e-05,
				0.9992656707763672,
				0.03827741742134094,
				0.0017504525603726506
			],
			"scale":[
				0.5334880948066711,
				0.12212824076414108,
				6.913619041442871
			],
			"translation":[
				-5.969618320465088,
				0.14219075441360474,
				1.9421747922897339
			]
		},
		{
			"mesh":54,
			"name":"COL3.004",
			"rotation":[
				6.705203122692183e-05,
				0.9992656707763672,
				0.03827741742134094,
				0.0017504525603726506
			],
			"scale":[
				0.5334880948066711,
				0.12212824076414108,
				6.913619041442871
			],
			"translation":[
				6.0320563316345215,
				0.14219075441360474,
				1.9421747922897339
			]
		}
	],
	"materials":[
		{
			"doubleSided":true,
			"extensions":{
				"KHR_materials_specular":{
					"specularFactor":0
				}
			},
			"name":"colormap.003",
			"pbrMetallicRoughness":{
				"baseColorTexture":{
					"index":0
				},
				"metallicFactor":0
			}
		},
		{
			"doubleSided":true,
			"extensions":{
				"KHR_materials_specular":{
					"specularFactor":0
				}
			},
			"name":"colormap.005",
			"pbrMetallicRoughness":{
				"baseColorTexture":{
					"index":1
				},
				"metallicFactor":0
			}
		},
		{
			"doubleSided":true,
			"extensions":{
				"KHR_materials_specular":{
					"specularFactor":0
				}
			},
			"name":"colormap.004",
			"pbrMetallicRoughness":{
				"baseColorTexture":{
					"index":2
				},
				"metallicFactor":0
			}
		},
		{
			"doubleSided":true,
			"extensions":{
				"KHR_materials_specular":{
					"specularFactor":0
				}
			},
			"name":"colormap.006",
			"pbrMetallicRoughness":{
				"baseColorTexture":{
					"index":3
				},
				"metallicFactor":0
			}
		},
		{
			"doubleSided":true,
			"extensions":{
				"KHR_materials_specular":{
					"specularFactor":0
				}
			},
			"name":"colormap.009",
			"pbrMetallicRoughness":{
				"baseColorTexture":{
					"index":4
				},
				"metallicFactor":0
			}
		},
		{
			"doubleSided":true,
			"extensions":{
				"KHR_materials_specular":{
					"specularFactor":0
				}
			},
			"name":"colormap.010",
			"pbrMetallicRoughness":{
				"baseColorTexture":{
					"index":5
				},
				"metallicFactor":0
			}
		},
		{
			"doubleSided":true,
			"extensions":{
				"KHR_materials_specular":{
					"specularFactor":0
				}
			},
			"name":"colormap.013",
			"pbrMetallicRoughness":{
				"baseColorTexture":{
					"index":6
				},
				"metallicFactor":0
			}
		},
		{
			"doubleSided":true,
			"extensions":{
				"KHR_materials_specular":{
					"specularFactor":0
				}
			},
			"name":"colormap.014",
			"pbrMetallicRoughness":{
				"baseColorTexture":{
					"index":7
				},
				"metallicFactor":0
			}
		},
		{
			"doubleSided":true,
			"extensions":{
				"KHR_materials_specular":{
					"specularFactor":0
				}
			},
			"name":"colormap.017",
			"pbrMetallicRoughness":{
				"baseColorTexture":{
					"index":8
				},
				"metallicFactor":0
			}
		},
		{
			"doubleSided":true,
			"extensions":{
				"KHR_materials_specular":{
					"specularFactor":0
				}
			},
			"name":"colormap.018",
			"pbrMetallicRoughness":{
				"baseColorTexture":{
					"index":9
				},
				"metallicFactor":0
			}
		},
		{
			"doubleSided":true,
			"name":"colormap",
			"pbrMetallicRoughness":{
				"baseColorTexture":{
					"index":10
				},
				"metallicFactor":0
			}
		},
		{
			"doubleSided":true,
			"name":"colormap.007",
			"pbrMetallicRoughness":{
				"baseColorTexture":{
					"index":11
				},
				"metallicFactor":0
			}
		},
		{
			"doubleSided":true,
			"name":"colormap.011",
			"pbrMetallicRoughness":{
				"baseColorTexture":{
					"index":12
				},
				"metallicFactor":0
			}
		},
		{
			"doubleSided":true,
			"name":"colormap.015",
			"pbrMetallicRoughness":{
				"baseColorTexture":{
					"index":13
				},
				"metallicFactor":0
			}
		},
		{
			"doubleSided":true,
			"name":"colormap.019",
			"pbrMetallicRoughness":{
				"baseColorTexture":{
					"index":14
				},
				"metallicFactor":0
			}
		},
		{
			"doubleSided":true,
			"name":"colormap.020",
			"pbrMetallicRoughness":{
				"baseColorTexture":{
					"index":15
				},
				"metallicFactor":0
			}
		},
		{
			"doubleSided":true,
			"name":"colormap.037",
			"pbrMetallicRoughness":{
				"baseColorTexture":{
					"index":16
				},
				"metallicFactor":0
			}
		},
		{
			"doubleSided":true,
			"name":"colormap.038",
			"pbrMetallicRoughness":{
				"baseColorTexture":{
					"index":17
				},
				"metallicFactor":0
			}
		},
		{
			"doubleSided":true,
			"name":"colormap.039",
			"pbrMetallicRoughness":{
				"baseColorTexture":{
					"index":18
				},
				"metallicFactor":0
			}
		},
		{
			"doubleSided":true,
			"name":"colormap.040",
			"pbrMetallicRoughness":{
				"baseColorTexture":{
					"index":19
				},
				"metallicFactor":0
			}
		},
		{
			"doubleSided":true,
			"extensions":{
				"KHR_materials_specular":{
					"specularFactor":0
				}
			},
			"name":"colormap.077",
			"pbrMetallicRoughness":{
				"baseColorTexture":{
					"index":20
				},
				"metallicFactor":0
			}
		},
		{
			"doubleSided":true,
			"extensions":{
				"KHR_materials_specular":{
					"specularFactor":0
				}
			},
			"name":"colormap.081",
			"pbrMetallicRoughness":{
				"baseColorTexture":{
					"index":21
				},
				"metallicFactor":0
			}
		},
		{
			"doubleSided":true,
			"extensions":{
				"KHR_materials_specular":{
					"specularFactor":0
				}
			},
			"name":"colormap.093",
			"pbrMetallicRoughness":{
				"baseColorTexture":{
					"index":22
				},
				"metallicFactor":0
			}
		},
		{
			"doubleSided":true,
			"name":"colormap.094",
			"pbrMetallicRoughness":{
				"baseColorTexture":{
					"index":23
				},
				"metallicFactor":0
			}
		},
		{
			"doubleSided":true,
			"name":"colormap.095",
			"pbrMetallicRoughness":{
				"baseColorTexture":{
					"index":24
				},
				"metallicFactor":0
			}
		},
		{
			"doubleSided":true,
			"extensions":{
				"KHR_materials_specular":{
					"specularFactor":0
				}
			},
			"name":"colormap.097",
			"pbrMetallicRoughness":{
				"baseColorTexture":{
					"index":25
				},
				"metallicFactor":0
			}
		},
		{
			"doubleSided":true,
			"extensions":{
				"KHR_materials_specular":{
					"specularFactor":0
				}
			},
			"name":"colormap.098",
			"pbrMetallicRoughness":{
				"baseColorTexture":{
					"index":26
				},
				"metallicFactor":0
			}
		},
		{
			"doubleSided":true,
			"extensions":{
				"KHR_materials_specular":{
					"specularFactor":0
				}
			},
			"name":"colormap.099",
			"pbrMetallicRoughness":{
				"baseColorTexture":{
					"index":27
				},
				"metallicFactor":0
			}
		},
		{
			"doubleSided":true,
			"extensions":{
				"KHR_materials_specular":{
					"specularFactor":0
				}
			},
			"name":"colormap.100",
			"pbrMetallicRoughness":{
				"baseColorTexture":{
					"index":28
				},
				"metallicFactor":0
			}
		},
		{
			"doubleSided":true,
			"extensions":{
				"KHR_materials_specular":{
					"specularFactor":0
				}
			},
			"name":"colormap.101",
			"pbrMetallicRoughness":{
				"baseColorTexture":{
					"index":29
				},
				"metallicFactor":0
			}
		},
		{
			"doubleSided":true,
			"extensions":{
				"KHR_materials_specular":{
					"specularFactor":0
				}
			},
			"name":"colormap.102",
			"pbrMetallicRoughness":{
				"baseColorTexture":{
					"index":30
				},
				"metallicFactor":0
			}
		},
		{
			"doubleSided":true,
			"extensions":{
				"KHR_materials_specular":{
					"specularFactor":0
				}
			},
			"name":"colormap.103",
			"pbrMetallicRoughness":{
				"baseColorTexture":{
					"index":31
				},
				"metallicFactor":0
			}
		},
		{
			"doubleSided":true,
			"extensions":{
				"KHR_materials_specular":{
					"specularFactor":0
				}
			},
			"name":"colormap.104",
			"pbrMetallicRoughness":{
				"baseColorTexture":{
					"index":32
				},
				"metallicFactor":0
			}
		},
		{
			"doubleSided":true,
			"extensions":{
				"KHR_materials_specular":{
					"specularFactor":0
				}
			},
			"name":"colormap.105",
			"pbrMetallicRoughness":{
				"baseColorTexture":{
					"index":33
				},
				"metallicFactor":0
			}
		},
		{
			"doubleSided":true,
			"extensions":{
				"KHR_materials_specular":{
					"specularFactor":0
				}
			},
			"name":"colormap.106",
			"pbrMetallicRoughness":{
				"baseColorTexture":{
					"index":34
				},
				"metallicFactor":0
			}
		},
		{
			"doubleSided":true,
			"extensions":{
				"KHR_materials_specular":{
					"specularFactor":0
				}
			},
			"name":"colormap.107",
			"pbrMetallicRoughness":{
				"baseColorTexture":{
					"index":35
				},
				"metallicFactor":0
			}
		},
		{
			"doubleSided":true,
			"extensions":{
				"KHR_materials_specular":{
					"specularFactor":0
				}
			},
			"name":"colormap.108",
			"pbrMetallicRoughness":{
				"baseColorTexture":{
					"index":36
				},
				"metallicFactor":0
			}
		},
		{
			"doubleSided":true,
			"extensions":{
				"KHR_materials_specular":{
					"specularFactor":0
				}
			},
			"name":"colormap.109",
			"pbrMetallicRoughness":{
				"baseColorTexture":{
					"index":37
				},
				"metallicFactor":0
			}
		},
		{
			"doubleSided":true,
			"name":"colormap.110",
			"pbrMetallicRoughness":{
				"baseColorTexture":{
					"index":38
				},
				"metallicFactor":0
			}
		},
		{
			"doubleSided":true,
			"name":"colormap.111",
			"pbrMetallicRoughness":{
				"baseColorTexture":{
					"index":39
				},
				"metallicFactor":0
			}
		},
		{
			"doubleSided":true,
			"extensions":{
				"KHR_materials_specular":{
					"specularFactor":0
				}
			},
			"name":"colormap.112",
			"pbrMetallicRoughness":{
				"baseColorTexture":{
					"index":40
				},
				"metallicFactor":0
			}
		},
		{
			"doubleSided":true,
			"extensions":{
				"KHR_materials_specular":{
					"specularFactor":0
				}
			},
			"name":"colormap.113",
			"pbrMetallicRoughness":{
				"baseColorTexture":{
					"index":41
				},
				"metallicFactor":0
			}
		},
		{
			"doubleSided":true,
			"extensions":{
				"KHR_materials_specular":{
					"specularFactor":0
				}
			},
			"name":"colormap.114",
			"pbrMetallicRoughness":{
				"baseColorTexture":{
					"index":42
				},
				"metallicFactor":0
			}
		},
		{
			"doubleSided":true,
			"extensions":{
				"KHR_materials_specular":{
					"specularFactor":0
				}
			},
			"name":"colormap.115",
			"pbrMetallicRoughness":{
				"baseColorTexture":{
					"index":43
				},
				"metallicFactor":0
			}
		},
		{
			"doubleSided":true,
			"extensions":{
				"KHR_materials_specular":{
					"specularFactor":0
				}
			},
			"name":"colormap.116",
			"pbrMetallicRoughness":{
				"baseColorTexture":{
					"index":44
				},
				"metallicFactor":0
			}
		},
		{
			"doubleSided":true,
			"extensions":{
				"KHR_materials_specular":{
					"specularFactor":0
				}
			},
			"name":"colormap.117",
			"pbrMetallicRoughness":{
				"baseColorTexture":{
					"index":45
				},
				"metallicFactor":0
			}
		}
	],
	"meshes":[
		{
			"name":"conveyor-stripe-part-end.002",
			"primitives":[
				{
					"attributes":{
						"POSITION":0,
						"NORMAL":1,
						"TEXCOORD_0":2,
						"COLOR_0":3,
						"COLOR_1":4
					},
					"indices":5,
					"material":0
				}
			]
		},
		{
			"name":"conveyor-stripe-part-middle.001",
			"primitives":[
				{
					"attributes":{
						"POSITION":6,
						"NORMAL":7,
						"TEXCOORD_0":8,
						"COLOR_0":9,
						"COLOR_1":10
					},
					"indices":11,
					"material":1
				}
			]
		},
		{
			"name":"conveyor-stripe-part-middle.002",
			"primitives":[
				{
					"attributes":{
						"POSITION":12,
						"NORMAL":13,
						"TEXCOORD_0":14,
						"COLOR_0":15,
						"COLOR_1":16
					},
					"indices":11,
					"material":2
				}
			]
		},
		{
			"name":"conveyor-stripe-part-end.001",
			"primitives":[
				{
					"attributes":{
						"POSITION":17,
						"NORMAL":18,
						"TEXCOORD_0":19,
						"COLOR_0":20,
						"COLOR_1":21
					},
					"indices":5,
					"material":3
				}
			]
		},
		{
			"name":"conveyor-stripe-part-middle.003",
			"primitives":[
				{
					"attributes":{
						"POSITION":22,
						"NORMAL":23,
						"TEXCOORD_0":24,
						"COLOR_0":25,
						"COLOR_1":26
					},
					"indices":11,
					"material":4
				}
			]
		},
		{
			"name":"conveyor-stripe-part-end.003",
			"primitives":[
				{
					"attributes":{
						"POSITION":27,
						"NORMAL":28,
						"TEXCOORD_0":29,
						"COLOR_0":30,
						"COLOR_1":31
					},
					"indices":5,
					"material":5
				}
			]
		},
		{
			"name":"conveyor-stripe-part-middle.004",
			"primitives":[
				{
					"attributes":{
						"POSITION":32,
						"NORMAL":33,
						"TEXCOORD_0":34,
						"COLOR_0":35,
						"COLOR_1":36
					},
					"indices":11,
					"material":6
				}
			]
		},
		{
			"name":"conveyor-stripe-part-end.004",
			"primitives":[
				{
					"attributes":{
						"POSITION":37,
						"NORMAL":38,
						"TEXCOORD_0":39,
						"COLOR_0":40,
						"COLOR_1":41
					},
					"indices":5,
					"material":7
				}
			]
		},
		{
			"name":"conveyor-stripe-part-middle.005",
			"primitives":[
				{
					"attributes":{
						"POSITION":42,
						"NORMAL":43,
						"TEXCOORD_0":44,
						"COLOR_0":45,
						"COLOR_1":46
					},
					"indices":11,
					"material":8
				}
			]
		},
		{
			"name":"conveyor-stripe-part-end.005",
			"primitives":[
				{
					"attributes":{
						"POSITION":47,
						"NORMAL":48,
						"TEXCOORD_0":49,
						"COLOR_0":50,
						"COLOR_1":51
					},
					"indices":5,
					"material":9
				}
			]
		},
		{
			"name":"\u7acb\u65b9\u4f53",
			"primitives":[
				{
					"attributes":{
						"POSITION":52,
						"NORMAL":53,
						"TEXCOORD_0":54
					},
					"indices":55
				}
			]
		},
		{
			"name":"\u7acb\u65b9\u4f53.001",
			"primitives":[
				{
					"attributes":{
						"POSITION":56,
						"NORMAL":57,
						"TEXCOORD_0":58
					},
					"indices":55
				}
			]
		},
		{
			"name":"\u7acb\u65b9\u4f53.002",
			"primitives":[
				{
					"attributes":{
						"POSITION":59,
						"NORMAL":60,
						"TEXCOORD_0":61
					},
					"indices":55
				}
			]
		},
		{
			"name":"\u7acb\u65b9\u4f53.003",
			"primitives":[
				{
					"attributes":{
						"POSITION":62,
						"NORMAL":63,
						"TEXCOORD_0":64
					},
					"indices":55
				}
			]
		},
		{
			"name":"\u7acb\u65b9\u4f53.004",
			"primitives":[
				{
					"attributes":{
						"POSITION":65,
						"NORMAL":66,
						"TEXCOORD_0":67
					},
					"indices":55
				}
			]
		},
		{
			"name":"structure-tall",
			"primitives":[
				{
					"attributes":{
						"POSITION":68,
						"NORMAL":69,
						"TEXCOORD_0":70
					},
					"indices":71,
					"material":10
				}
			]
		},
		{
			"name":"structure-tall.001",
			"primitives":[
				{
					"attributes":{
						"POSITION":72,
						"NORMAL":73,
						"TEXCOORD_0":74
					},
					"indices":71,
					"material":11
				}
			]
		},
		{
			"name":"structure-tall.002",
			"primitives":[
				{
					"attributes":{
						"POSITION":75,
						"NORMAL":76,
						"TEXCOORD_0":77
					},
					"indices":71,
					"material":12
				}
			]
		},
		{
			"name":"structure-tall.003",
			"primitives":[
				{
					"attributes":{
						"POSITION":78,
						"NORMAL":79,
						"TEXCOORD_0":80
					},
					"indices":71,
					"material":13
				}
			]
		},
		{
			"name":"structure-tall.004",
			"primitives":[
				{
					"attributes":{
						"POSITION":81,
						"NORMAL":82,
						"TEXCOORD_0":83
					},
					"indices":71,
					"material":14
				}
			]
		},
		{
			"name":"structure-tall.005",
			"primitives":[
				{
					"attributes":{
						"POSITION":84,
						"NORMAL":85,
						"TEXCOORD_0":86
					},
					"indices":71,
					"material":15
				}
			]
		},
		{
			"name":"structure-tall.006",
			"primitives":[
				{
					"attributes":{
						"POSITION":87,
						"NORMAL":88,
						"TEXCOORD_0":89
					},
					"indices":71,
					"material":16
				}
			]
		},
		{
			"name":"structure-tall.007",
			"primitives":[
				{
					"attributes":{
						"POSITION":90,
						"NORMAL":91,
						"TEXCOORD_0":92
					},
					"indices":71,
					"material":17
				}
			]
		},
		{
			"name":"structure-tall.008",
			"primitives":[
				{
					"attributes":{
						"POSITION":93,
						"NORMAL":94,
						"TEXCOORD_0":95
					},
					"indices":71,
					"material":18
				}
			]
		},
		{
			"name":"structure-tall.009",
			"primitives":[
				{
					"attributes":{
						"POSITION":96,
						"NORMAL":97,
						"TEXCOORD_0":98
					},
					"indices":71,
					"material":19
				}
			]
		},
		{
			"name":"machine-fortified",
			"primitives":[
				{
					"attributes":{
						"POSITION":99,
						"NORMAL":100,
						"TEXCOORD_0":101,
						"COLOR_0":102,
						"COLOR_1":103
					},
					"indices":104,
					"material":20
				}
			]
		},
		{
			"name":"\u7acb\u65b9\u4f53.005",
			"primitives":[
				{
					"attributes":{
						"POSITION":105,
						"NORMAL":106,
						"TEXCOORD_0":107
					},
					"indices":55
				}
			]
		},
		{
			"name":"conveyor-stripe-part-end.010",
			"primitives":[
				{
					"attributes":{
						"POSITION":108,
						"NORMAL":109,
						"TEXCOORD_0":110,
						"COLOR_0":111,
						"COLOR_1":112
					},
					"indices":5,
					"material":21
				}
			]
		},
		{
			"name":"conveyor-stripe-part-middle.007",
			"primitives":[
				{
					"attributes":{
						"POSITION":113,
						"NORMAL":114,
						"TEXCOORD_0":115,
						"COLOR_0":116,
						"COLOR_1":117
					},
					"indices":11,
					"material":22
				}
			]
		},
		{
			"name":"structure-tall.010",
			"primitives":[
				{
					"attributes":{
						"POSITION":118,
						"NORMAL":119,
						"TEXCOORD_0":120
					},
					"indices":71,
					"material":23
				}
			]
		},
		{
			"name":"structure-tall.011",
			"primitives":[
				{
					"attributes":{
						"POSITION":121,
						"NORMAL":122,
						"TEXCOORD_0":123
					},
					"indices":71,
					"material":24
				}
			]
		},
		{
			"name":"conveyor-stripe-part-end.011",
			"primitives":[
				{
					"attributes":{
						"POSITION":124,
						"NORMAL":125,
						"TEXCOORD_0":126,
						"COLOR_0":127,
						"COLOR_1":128
					},
					"indices":5,
					"material":25
				}
			]
		},
		{
			"name":"conveyor-stripe-part-middle.010",
			"primitives":[
				{
					"attributes":{
						"POSITION":129,
						"NORMAL":130,
						"TEXCOORD_0":131,
						"COLOR_0":132,
						"COLOR_1":133
					},
					"indices":11,
					"material":26
				}
			]
		},
		{
			"name":"conveyor-stripe-junction-t",
			"primitives":[
				{
					"attributes":{
						"POSITION":134,
						"NORMAL":135,
						"TEXCOORD_0":136,
						"COLOR_0":137,
						"COLOR_1":138
					},
					"indices":139,
					"material":27
				}
			]
		},
		{
			"name":"conveyor-stripe-part-middle.011",
			"primitives":[
				{
					"attributes":{
						"POSITION":140,
						"NORMAL":141,
						"TEXCOORD_0":142,
						"COLOR_0":143,
						"COLOR_1":144
					},
					"indices":11,
					"material":28
				}
			]
		},
		{
			"name":"conveyor-stripe-junction-t.001",
			"primitives":[
				{
					"attributes":{
						"POSITION":145,
						"NORMAL":146,
						"TEXCOORD_0":147,
						"COLOR_0":148,
						"COLOR_1":149
					},
					"indices":139,
					"material":29
				}
			]
		},
		{
			"name":"conveyor-stripe-part-middle.012",
			"primitives":[
				{
					"attributes":{
						"POSITION":150,
						"NORMAL":151,
						"TEXCOORD_0":152,
						"COLOR_0":153,
						"COLOR_1":154
					},
					"indices":11,
					"material":30
				}
			]
		},
		{
			"name":"conveyor-stripe-junction-t.002",
			"primitives":[
				{
					"attributes":{
						"POSITION":155,
						"NORMAL":156,
						"TEXCOORD_0":157,
						"COLOR_0":158,
						"COLOR_1":159
					},
					"indices":139,
					"material":31
				}
			]
		},
		{
			"name":"conveyor-stripe-part-middle.013",
			"primitives":[
				{
					"attributes":{
						"POSITION":160,
						"NORMAL":161,
						"TEXCOORD_0":162,
						"COLOR_0":163,
						"COLOR_1":164
					},
					"indices":11,
					"material":32
				}
			]
		},
		{
			"name":"conveyor-stripe-junction-t.003",
			"primitives":[
				{
					"attributes":{
						"POSITION":165,
						"NORMAL":166,
						"TEXCOORD_0":167,
						"COLOR_0":168,
						"COLOR_1":169
					},
					"indices":139,
					"material":33
				}
			]
		},
		{
			"name":"conveyor-stripe-part-middle.014",
			"primitives":[
				{
					"attributes":{
						"POSITION":170,
						"NORMAL":171,
						"TEXCOORD_0":172,
						"COLOR_0":173,
						"COLOR_1":174
					},
					"indices":11,
					"material":34
				}
			]
		},
		{
			"name":"conveyor-stripe-junction-t.004",
			"primitives":[
				{
					"attributes":{
						"POSITION":175,
						"NORMAL":176,
						"TEXCOORD_0":177,
						"COLOR_0":178,
						"COLOR_1":179
					},
					"indices":139,
					"material":35
				}
			]
		},
		{
			"name":"conveyor-stripe-part-middle.015",
			"primitives":[
				{
					"attributes":{
						"POSITION":180,
						"NORMAL":181,
						"TEXCOORD_0":182,
						"COLOR_0":183,
						"COLOR_1":184
					},
					"indices":11,
					"material":36
				}
			]
		},
		{
			"name":"conveyor-stripe-part-end.012",
			"primitives":[
				{
					"attributes":{
						"POSITION":185,
						"NORMAL":186,
						"TEXCOORD_0":187,
						"COLOR_0":188,
						"COLOR_1":189
					},
					"indices":5,
					"material":37
				}
			]
		},
		{
			"name":"structure-tall.012",
			"primitives":[
				{
					"attributes":{
						"POSITION":190,
						"NORMAL":191,
						"TEXCOORD_0":192
					},
					"indices":71,
					"material":38
				}
			]
		},
		{
			"name":"structure-tall.017",
			"primitives":[
				{
					"attributes":{
						"POSITION":193,
						"NORMAL":194,
						"TEXCOORD_0":195
					},
					"indices":71,
					"material":39
				}
			]
		},
		{
			"name":"conveyor-stripe-part-middle.016",
			"primitives":[
				{
					"attributes":{
						"POSITION":196,
						"NORMAL":197,
						"TEXCOORD_0":198,
						"COLOR_0":199,
						"COLOR_1":200
					},
					"indices":11,
					"material":40
				}
			]
		},
		{
			"name":"conveyor-stripe-part-end.013",
			"primitives":[
				{
					"attributes":{
						"POSITION":201,
						"NORMAL":202,
						"TEXCOORD_0":203,
						"COLOR_0":204,
						"COLOR_1":205
					},
					"indices":5,
					"material":41
				}
			]
		},
		{
			"name":"machine-fortified.001",
			"primitives":[
				{
					"attributes":{
						"POSITION":206,
						"NORMAL":207,
						"TEXCOORD_0":208,
						"COLOR_0":209,
						"COLOR_1":210
					},
					"indices":104,
					"material":42
				}
			]
		},
		{
			"name":"machine-fortified.002",
			"primitives":[
				{
					"attributes":{
						"POSITION":211,
						"NORMAL":212,
						"TEXCOORD_0":213,
						"COLOR_0":214,
						"COLOR_1":215
					},
					"indices":104,
					"material":43
				}
			]
		},
		{
			"name":"machine-fortified.003",
			"primitives":[
				{
					"attributes":{
						"POSITION":216,
						"NORMAL":217,
						"TEXCOORD_0":218,
						"COLOR_0":219,
						"COLOR_1":220
					},
					"indices":104,
					"material":44
				}
			]
		},
		{
			"name":"machine-fortified.004",
			"primitives":[
				{
					"attributes":{
						"POSITION":221,
						"NORMAL":222,
						"TEXCOORD_0":223,
						"COLOR_0":224,
						"COLOR_1":225
					},
					"indices":104,
					"material":45
				}
			]
		},
		{
			"name":"\u7acb\u65b9\u4f53.009",
			"primitives":[
				{
					"attributes":{
						"POSITION":226,
						"NORMAL":227,
						"TEXCOORD_0":228
					},
					"indices":55
				}
			]
		},
		{
			"name":"\u7acb\u65b9\u4f53.010",
			"primitives":[
				{
					"attributes":{
						"POSITION":229,
						"NORMAL":230,
						"TEXCOORD_0":231
					},
					"indices":55
				}
			]
		},
		{
			"name":"\u7acb\u65b9\u4f53.011",
			"primitives":[
				{
					"attributes":{
						"POSITION":232,
						"NORMAL":233,
						"TEXCOORD_0":234
					},
					"indices":55
				}
			]
		}
	],
	"textures":[
		{
			"sampler":0,
			"source":0
		},
		{
			"sampler":0,
			"source":0
		},
		{
			"sampler":0,
			"source":0
		},
		{
			"sampler":0,
			"source":0
		},
		{
			"sampler":0,
			"source":0
		},
		{
			"sampler":0,
			"source":0
		},
		{
			"sampler":0,
			"source":0
		},
		{
			"sampler":0,
			"source":0
		},
		{
			"sampler":0,
			"source":0
		},
		{
			"sampler":0,
			"source":0
		},
		{
			"sampler":0,
			"source":0
		},
		{
			"sampler":0,
			"source":0
		},
		{
			"sampler":0,
			"source":0
		},
		{
			"sampler":0,
			"source":0
		},
		{
			"sampler":0,
			"source":0
		},
		{
			"sampler":0,
			"source":0
		},
		{
			"sampler":0,
			"source":0
		},
		{
			"sampler":0,
			"source":0
		},
		{
			"sampler":0,
			"source":0
		},
		{
			"sampler":0,
			"source":0
		},
		{
			"sampler":0,
			"source":0
		},
		{
			"sampler":0,
			"source":0
		},
		{
			"sampler":0,
			"source":0
		},
		{
			"sampler":0,
			"source":0
		},
		{
			"sampler":0,
			"source":0
		},
		{
			"sampler":0,
			"source":0
		},
		{
			"sampler":0,
			"source":0
		},
		{
			"sampler":0,
			"source":0
		},
		{
			"sampler":0,
			"source":0
		},
		{
			"sampler":0,
			"source":0
		},
		{
			"sampler":0,
			"source":0
		},
		{
			"sampler":0,
			"source":0
		},
		{
			"sampler":0,
			"source":0
		},
		{
			"sampler":0,
			"source":0
		},
		{
			"sampler":0,
			"source":0
		},
		{
			"sampler":0,
			"source":0
		},
		{
			"sampler":0,
			"source":0
		},
		{
			"sampler":0,
			"source":0
		},
		{
			"sampler":0,
			"source":0
		},
		{
			"sampler":0,
			"source":0
		},
		{
			"sampler":0,
			"source":0
		},
		{
			"sampler":0,
			"source":0
		},
		{
			"sampler":0,
			"source":0
		},
		{
			"sampler":0,
			"source":0
		},
		{
			"sampler":0,
			"source":0
		},
		{
			"sampler":0,
			"source":0
		}
	],
	"images":[
		{
			"mimeType":"image/png",
			"name":"colormap",
			"uri":"colormap.png"
		}
	],
	"accessors":[
		{
			"bufferView":0,
			"componentType":5126,
			"count":151,
			"max":[
				0.25,
				0.5,
				0
			],
			"min":[
				-0.25,
				-0.5,
				-0.4000000059604645
			],
			"type":"VEC3"
		},
		{
			"bufferView":1,
			"componentType":5126,
			"count":151,
			"type":"VEC3"
		},
		{
			"bufferView":2,
			"componentType":5126,
			"count":151,
			"type":"VEC2"
		},
		{
			"bufferView":3,
			"componentType":5126,
			"count":151,
			"type":"VEC3"
		},
		{
			"bufferView":4,
			"componentType":5123,
			"count":151,
			"normalized":true,
			"type":"VEC4"
		},
		{
			"bufferView":5,
			"componentType":5123,
			"count":552,
			"type":"SCALAR"
		},
		{
			"bufferView":6,
			"componentType":5126,
			"count":56,
			"max":[
				5,
				0.5,
				0
			],
			"min":[
				-5,
				-0.5,
				-0.4000000059604645
			],
			"type":"VEC3"
		},
		{
			"bufferView":7,
			"componentType":5126,
			"count":56,
			"type":"VEC3"
		},
		{
			"bufferView":8,
			"componentType":5126,
			"count":56,
			"type":"VEC2"
		},
		{
			"bufferView":9,
			"componentType":5126,
			"count":56,
			"type":"VEC3"
		},
		{
			"bufferView":10,
			"componentType":5123,
			"count":56,
			"normalized":true,
			"type":"VEC4"
		},
		{
			"bufferView":11,
			"componentType":5123,
			"count":180,
			"type":"SCALAR"
		},
		{
			"bufferView":12,
			"componentType":5126,
			"count":56,
			"max":[
				5,
				0.5,
				0
			],
			"min":[
				-5,
				-0.5,
				-0.4000000059604645
			],
			"type":"VEC3"
		},
		{
			"bufferView":13,
			"componentType":5126,
			"count":56,
			"type":"VEC3"
		},
		{
			"bufferView":14,
			"componentType":5126,
			"count":56,
			"type":"VEC2"
		},
		{
			"bufferView":15,
			"componentType":5126,
			"count":56,
			"type":"VEC3"
		},
		{
			"bufferView":16,
			"componentType":5123,
			"count":56,
			"normalized":true,
			"type":"VEC4"
		},
		{
			"bufferView":17,
			"componentType":5126,
			"count":151,
			"max":[
				0.25,
				0.5,
				0
			],
			"min":[
				-0.25,
				-0.5,
				-0.4000000059604645
			],
			"type":"VEC3"
		},
		{
			"bufferView":18,
			"componentType":5126,
			"count":151,
			"type":"VEC3"
		},
		{
			"bufferView":19,
			"componentType":5126,
			"count":151,
			"type":"VEC2"
		},
		{
			"bufferView":20,
			"componentType":5126,
			"count":151,
			"type":"VEC3"
		},
		{
			"bufferView":21,
			"componentType":5123,
			"count":151,
			"normalized":true,
			"type":"VEC4"
		},
		{
			"bufferView":22,
			"componentType":5126,
			"count":56,
			"max":[
				5,
				0.5,
				0
			],
			"min":[
				-5,
				-0.5,
				-0.4000000059604645
			],
			"type":"VEC3"
		},
		{
			"bufferView":23,
			"componentType":5126,
			"count":56,
			"type":"VEC3"
		},
		{
			"bufferView":24,
			"componentType":5126,
			"count":56,
			"type":"VEC2"
		},
		{
			"bufferView":25,
			"componentType":5126,
			"count":56,
			"type":"VEC3"
		},
		{
			"bufferView":26,
			"componentType":5123,
			"count":56,
			"normalized":true,
			"type":"VEC4"
		},
		{
			"bufferView":27,
			"componentType":5126,
			"count":151,
			"max":[
				0.25,
				0.5,
				0
			],
			"min":[
				-0.25,
				-0.5,
				-0.4000000059604645
			],
			"type":"VEC3"
		},
		{
			"bufferView":28,
			"componentType":5126,
			"count":151,
			"type":"VEC3"
		},
		{
			"bufferView":29,
			"componentType":5126,
			"count":151,
			"type":"VEC2"
		},
		{
			"bufferView":30,
			"componentType":5126,
			"count":151,
			"type":"VEC3"
		},
		{
			"bufferView":31,
			"componentType":5123,
			"count":151,
			"normalized":true,
			"type":"VEC4"
		},
		{
			"bufferView":32,
			"componentType":5126,
			"count":56,
			"max":[
				5,
				0.5,
				0
			],
			"min":[
				-5,
				-0.5,
				-0.4000000059604645
			],
			"type":"VEC3"
		},
		{
			"bufferView":33,
			"componentType":5126,
			"count":56,
			"type":"VEC3"
		},
		{
			"bufferView":34,
			"componentType":5126,
			"count":56,
			"type":"VEC2"
		},
		{
			"bufferView":35,
			"componentType":5126,
			"count":56,
			"type":"VEC3"
		},
		{
			"bufferView":36,
			"componentType":5123,
			"count":56,
			"normalized":true,
			"type":"VEC4"
		},
		{
			"bufferView":37,
			"componentType":5126,
			"count":151,
			"max":[
				0.25,
				0.5,
				0
			],
			"min":[
				-0.25,
				-0.5,
				-0.4000000059604645
			],
			"type":"VEC3"
		},
		{
			"bufferView":38,
			"componentType":5126,
			"count":151,
			"type":"VEC3"
		},
		{
			"bufferView":39,
			"componentType":5126,
			"count":151,
			"type":"VEC2"
		},
		{
			"bufferView":40,
			"componentType":5126,
			"count":151,
			"type":"VEC3"
		},
		{
			"bufferView":41,
			"componentType":5123,
			"count":151,
			"normalized":true,
			"type":"VEC4"
		},
		{
			"bufferView":42,
			"componentType":5126,
			"count":56,
			"max":[
				5,
				0.5,
				0
			],
			"min":[
				-5,
				-0.5,
				-0.4000000059604645
			],
			"type":"VEC3"
		},
		{
			"bufferView":43,
			"componentType":5126,
			"count":56,
			"type":"VEC3"
		},
		{
			"bufferView":44,
			"componentType":5126,
			"count":56,
			"type":"VEC2"
		},
		{
			"bufferView":45,
			"componentType":5126,
			"count":56,
			"type":"VEC3"
		},
		{
			"bufferView":46,
			"componentType":5123,
			"count":56,
			"normalized":true,
			"type":"VEC4"
		},
		{
			"bufferView":47,
			"componentType":5126,
			"count":151,
			"max":[
				0.25,
				0.5,
				0
			],
			"min":[
				-0.25,
				-0.5,
				-0.4000000059604645
			],
			"type":"VEC3"
		},
		{
			"bufferView":48,
			"componentType":5126,
			"count":151,
			"type":"VEC3"
		},
		{
			"bufferView":49,
			"componentType":5126,
			"count":151,
			"type":"VEC2"
		},
		{
			"bufferView":50,
			"componentType":5126,
			"count":151,
			"type":"VEC3"
		},
		{
			"bufferView":51,
			"componentType":5123,
			"count":151,
			"normalized":true,
			"type":"VEC4"
		},
		{
			"bufferView":52,
			"componentType":5126,
			"count":24,
			"max":[
				1,
				1,
				1
			],
			"min":[
				-1,
				-1,
				-1
			],
			"type":"VEC3"
		},
		{
			"bufferView":53,
			"componentType":5126,
			"count":24,
			"type":"VEC3"
		},
		{
			"bufferView":54,
			"componentType":5126,
			"count":24,
			"type":"VEC2"
		},
		{
			"bufferView":55,
			"componentType":5123,
			"count":36,
			"type":"SCALAR"
		},
		{
			"bufferView":56,
			"componentType":5126,
			"count":24,
			"max":[
				1,
				1,
				1
			],
			"min":[
				-1,
				-1,
				-1
			],
			"type":"VEC3"
		},
		{
			"bufferView":57,
			"componentType":5126,
			"count":24,
			"type":"VEC3"
		},
		{
			"bufferView":58,
			"componentType":5126,
			"count":24,
			"type":"VEC2"
		},
		{
			"bufferView":59,
			"componentType":5126,
			"count":24,
			"max":[
				1,
				1,
				1
			],
			"min":[
				-1,
				-1,
				-1
			],
			"type":"VEC3"
		},
		{
			"bufferView":60,
			"componentType":5126,
			"count":24,
			"type":"VEC3"
		},
		{
			"bufferView":61,
			"componentType":5126,
			"count":24,
			"type":"VEC2"
		},
		{
			"bufferView":62,
			"componentType":5126,
			"count":24,
			"max":[
				1,
				1,
				1
			],
			"min":[
				-1,
				-1,
				-1
			],
			"type":"VEC3"
		},
		{
			"bufferView":63,
			"componentType":5126,
			"count":24,
			"type":"VEC3"
		},
		{
			"bufferView":64,
			"componentType":5126,
			"count":24,
			"type":"VEC2"
		},
		{
			"bufferView":65,
			"componentType":5126,
			"count":24,
			"max":[
				1,
				1,
				1
			],
			"min":[
				-1,
				-1,
				-1
			],
			"type":"VEC3"
		},
		{
			"bufferView":66,
			"componentType":5126,
			"count":24,
			"type":"VEC3"
		},
		{
			"bufferView":67,
			"componentType":5126,
			"count":24,
			"type":"VEC2"
		},
		{
			"bufferView":68,
			"componentType":5126,
			"count":468,
			"max":[
				0.15000000596046448,
				2,
				0.550000011920929
			],
			"min":[
				-0.15000000596046448,
				0,
				-0.550000011920929
			],
			"type":"VEC3"
		},
		{
			"bufferView":69,
			"componentType":5126,
			"count":468,
			"type":"VEC3"
		},
		{
			"bufferView":70,
			"componentType":5126,
			"count":468,
			"type":"VEC2"
		},
		{
			"bufferView":71,
			"componentType":5123,
			"count":804,
			"type":"SCALAR"
		},
		{
			"bufferView":72,
			"componentType":5126,
			"count":468,
			"max":[
				0.15000000596046448,
				2,
				0.550000011920929
			],
			"min":[
				-0.15000000596046448,
				0,
				-0.550000011920929
			],
			"type":"VEC3"
		},
		{
			"bufferView":73,
			"componentType":5126,
			"count":468,
			"type":"VEC3"
		},
		{
			"bufferView":74,
			"componentType":5126,
			"count":468,
			"type":"VEC2"
		},
		{
			"bufferView":75,
			"componentType":5126,
			"count":468,
			"max":[
				0.15000000596046448,
				2,
				0.550000011920929
			],
			"min":[
				-0.15000000596046448,
				0,
				-0.550000011920929
			],
			"type":"VEC3"
		},
		{
			"bufferView":76,
			"componentType":5126,
			"count":468,
			"type":"VEC3"
		},
		{
			"bufferView":77,
			"componentType":5126,
			"count":468,
			"type":"VEC2"
		},
		{
			"bufferView":78,
			"componentType":5126,
			"count":468,
			"max":[
				0.15000000596046448,
				2,
				0.550000011920929
			],
			"min":[
				-0.15000000596046448,
				0,
				-0.550000011920929
			],
			"type":"VEC3"
		},
		{
			"bufferView":79,
			"componentType":5126,
			"count":468,
			"type":"VEC3"
		},
		{
			"bufferView":80,
			"componentType":5126,
			"count":468,
			"type":"VEC2"
		},
		{
			"bufferView":81,
			"componentType":5126,
			"count":468,
			"max":[
				0.15000000596046448,
				2,
				0.550000011920929
			],
			"min":[
				-0.15000000596046448,
				0,
				-0.550000011920929
			],
			"type":"VEC3"
		},
		{
			"bufferView":82,
			"componentType":5126,
			"count":468,
			"type":"VEC3"
		},
		{
			"bufferView":83,
			"componentType":5126,
			"count":468,
			"type":"VEC2"
		},
		{
			"bufferView":84,
			"componentType":5126,
			"count":468,
			"max":[
				0.15000000596046448,
				2,
				0.550000011920929
			],
			"min":[
				-0.15000000596046448,
				0,
				-0.550000011920929
			],
			"type":"VEC3"
		},
		{
			"bufferView":85,
			"componentType":5126,
			"count":468,
			"type":"VEC3"
		},
		{
			"bufferView":86,
			"componentType":5126,
			"count":468,
			"type":"VEC2"
		},
		{
			"bufferView":87,
			"componentType":5126,
			"count":468,
			"max":[
				0.15000000596046448,
				2,
				0.550000011920929
			],
			"min":[
				-0.15000000596046448,
				0,
				-0.550000011920929
			],
			"type":"VEC3"
		},
		{
			"bufferView":88,
			"componentType":5126,
			"count":468,
			"type":"VEC3"
		},
		{
			"bufferView":89,
			"componentType":5126,
			"count":468,
			"type":"VEC2"
		},
		{
			"bufferView":90,
			"componentType":5126,
			"count":468,
			"max":[
				0.15000000596046448,
				2,
				0.550000011920929
			],
			"min":[
				-0.15000000596046448,
				0,
				-0.550000011920929
			],
			"type":"VEC3"
		},
		{
			"bufferView":91,
			"componentType":5126,
			"count":468,
			"type":"VEC3"
		},
		{
			"bufferView":92,
			"componentType":5126,
			"count":468,
			"type":"VEC2"
		},
		{
			"bufferView":93,
			"componentType":5126,
			"count":468,
			"max":[
				0.15000000596046448,
				2,
				0.550000011920929
			],
			"min":[
				-0.15000000596046448,
				0,
				-0.550000011920929
			],
			"type":"VEC3"
		},
		{
			"bufferView":94,
			"componentType":5126,
			"count":468,
			"type":"VEC3"
		},
		{
			"bufferView":95,
			"componentType":5126,
			"count":468,
			"type":"VEC2"
		},
		{
			"bufferView":96,
			"componentType":5126,
			"count":468,
			"max":[
				0.15000000596046448,
				2,
				0.550000011920929
			],
			"min":[
				-0.15000000596046448,
				0,
				-0.550000011920929
			],
			"type":"VEC3"
		},
		{
			"bufferView":97,
			"componentType":5126,
			"count":468,
			"type":"VEC3"
		},
		{
			"bufferView":98,
			"componentType":5126,
			"count":468,
			"type":"VEC2"
		},
		{
			"bufferView":99,
			"componentType":5126,
			"count":252,
			"max":[
				0.6000000238418579,
				0.800000011920929,
				4.1067491074464613e-10
			],
			"min":[
				-0.6000000238418579,
				-0.800000011920929,
				-1.3504990339279175
			],
			"type":"VEC3"
		},
		{
			"bufferView":100,
			"componentType":5126,
			"count":252,
			"type":"VEC3"
		},
		{
			"bufferView":101,
			"componentType":5126,
			"count":252,
			"type":"VEC2"
		},
		{
			"bufferView":102,
			"componentType":5126,
			"count":252,
			"type":"VEC3"
		},
		{
			"bufferView":103,
			"componentType":5123,
			"count":252,
			"normalized":true,
			"type":"VEC4"
		},
		{
			"bufferView":104,
			"componentType":5123,
			"count":942,
			"type":"SCALAR"
		},
		{
			"bufferView":105,
			"componentType":5126,
			"count":24,
			"max":[
				1,
				1,
				1
			],
			"min":[
				-1,
				-1,
				-1
			],
			"type":"VEC3"
		},
		{
			"bufferView":106,
			"componentType":5126,
			"count":24,
			"type":"VEC3"
		},
		{
			"bufferView":107,
			"componentType":5126,
			"count":24,
			"type":"VEC2"
		},
		{
			"bufferView":108,
			"componentType":5126,
			"count":151,
			"max":[
				0.25,
				0.5,
				0
			],
			"min":[
				-0.25,
				-0.5,
				-0.4000000059604645
			],
			"type":"VEC3"
		},
		{
			"bufferView":109,
			"componentType":5126,
			"count":151,
			"type":"VEC3"
		},
		{
			"bufferView":110,
			"componentType":5126,
			"count":151,
			"type":"VEC2"
		},
		{
			"bufferView":111,
			"componentType":5126,
			"count":151,
			"type":"VEC3"
		},
		{
			"bufferView":112,
			"componentType":5123,
			"count":151,
			"normalized":true,
			"type":"VEC4"
		},
		{
			"bufferView":113,
			"componentType":5126,
			"count":56,
			"max":[
				5,
				0.5,
				0
			],
			"min":[
				-5,
				-0.5,
				-0.4000000059604645
			],
			"type":"VEC3"
		},
		{
			"bufferView":114,
			"componentType":5126,
			"count":56,
			"type":"VEC3"
		},
		{
			"bufferView":115,
			"componentType":5126,
			"count":56,
			"type":"VEC2"
		},
		{
			"bufferView":116,
			"componentType":5126,
			"count":56,
			"type":"VEC3"
		},
		{
			"bufferView":117,
			"componentType":5123,
			"count":56,
			"normalized":true,
			"type":"VEC4"
		},
		{
			"bufferView":118,
			"componentType":5126,
			"count":468,
			"max":[
				0.15000000596046448,
				2,
				0.550000011920929
			],
			"min":[
				-0.15000000596046448,
				0,
				-0.550000011920929
			],
			"type":"VEC3"
		},
		{
			"bufferView":119,
			"componentType":5126,
			"count":468,
			"type":"VEC3"
		},
		{
			"bufferView":120,
			"componentType":5126,
			"count":468,
			"type":"VEC2"
		},
		{
			"bufferView":121,
			"componentType":5126,
			"count":468,
			"max":[
				0.15000000596046448,
				2,
				0.550000011920929
			],
			"min":[
				-0.15000000596046448,
				0,
				-0.550000011920929
			],
			"type":"VEC3"
		},
		{
			"bufferView":122,
			"componentType":5126,
			"count":468,
			"type":"VEC3"
		},
		{
			"bufferView":123,
			"componentType":5126,
			"count":468,
			"type":"VEC2"
		},
		{
			"bufferView":124,
			"componentType":5126,
			"count":151,
			"max":[
				0.25,
				0.5,
				0
			],
			"min":[
				-0.25,
				-0.5,
				-0.4000000059604645
			],
			"type":"VEC3"
		},
		{
			"bufferView":125,
			"componentType":5126,
			"count":151,
			"type":"VEC3"
		},
		{
			"bufferView":126,
			"componentType":5126,
			"count":151,
			"type":"VEC2"
		},
		{
			"bufferView":127,
			"componentType":5126,
			"count":151,
			"type":"VEC3"
		},
		{
			"bufferView":128,
			"componentType":5123,
			"count":151,
			"normalized":true,
			"type":"VEC4"
		},
		{
			"bufferView":129,
			"componentType":5126,
			"count":56,
			"max":[
				5,
				0.5,
				0
			],
			"min":[
				-5,
				-0.5,
				-0.4000000059604645
			],
			"type":"VEC3"
		},
		{
			"bufferView":130,
			"componentType":5126,
			"count":56,
			"type":"VEC3"
		},
		{
			"bufferView":131,
			"componentType":5126,
			"count":56,
			"type":"VEC2"
		},
		{
			"bufferView":132,
			"componentType":5126,
			"count":56,
			"type":"VEC3"
		},
		{
			"bufferView":133,
			"componentType":5123,
			"count":56,
			"normalized":true,
			"type":"VEC4"
		},
		{
			"bufferView":134,
			"componentType":5126,
			"count":166,
			"max":[
				0.5000001788139343,
				0.5000001788139343,
				9.02389329684227e-17
			],
			"min":[
				-0.5000001788139343,
				-0.5000001788139343,
				-0.4000000059604645
			],
			"type":"VEC3"
		},
		{
			"bufferView":135,
			"componentType":5126,
			"count":166,
			"type":"VEC3"
		},
		{
			"bufferView":136,
			"componentType":5126,
			"count":166,
			"type":"VEC2"
		},
		{
			"bufferView":137,
			"componentType":5126,
			"count":166,
			"type":"VEC3"
		},
		{
			"bufferView":138,
			"componentType":5123,
			"count":166,
			"normalized":true,
			"type":"VEC4"
		},
		{
			"bufferView":139,
			"componentType":5123,
			"count":621,
			"type":"SCALAR"
		},
		{
			"bufferView":140,
			"componentType":5126,
			"count":56,
			"max":[
				5,
				0.5,
				0
			],
			"min":[
				-5,
				-0.5,
				-0.4000000059604645
			],
			"type":"VEC3"
		},
		{
			"bufferView":141,
			"componentType":5126,
			"count":56,
			"type":"VEC3"
		},
		{
			"bufferView":142,
			"componentType":5126,
			"count":56,
			"type":"VEC2"
		},
		{
			"bufferView":143,
			"componentType":5126,
			"count":56,
			"type":"VEC3"
		},
		{
			"bufferView":144,
			"componentType":5123,
			"count":56,
			"normalized":true,
			"type":"VEC4"
		},
		{
			"bufferView":145,
			"componentType":5126,
			"count":166,
			"max":[
				0.5000001788139343,
				0.5000001788139343,
				9.02389329684227e-17
			],
			"min":[
				-0.5000001788139343,
				-0.5000001788139343,
				-0.4000000059604645
			],
			"type":"VEC3"
		},
		{
			"bufferView":146,
			"componentType":5126,
			"count":166,
			"type":"VEC3"
		},
		{
			"bufferView":147,
			"componentType":5126,
			"count":166,
			"type":"VEC2"
		},
		{
			"bufferView":148,
			"componentType":5126,
			"count":166,
			"type":"VEC3"
		},
		{
			"bufferView":149,
			"componentType":5123,
			"count":166,
			"normalized":true,
			"type":"VEC4"
		},
		{
			"bufferView":150,
			"componentType":5126,
			"count":56,
			"max":[
				5,
				0.5,
				0
			],
			"min":[
				-5,
				-0.5,
				-0.4000000059604645
			],
			"type":"VEC3"
		},
		{
			"bufferView":151,
			"componentType":5126,
			"count":56,
			"type":"VEC3"
		},
		{
			"bufferView":152,
			"componentType":5126,
			"count":56,
			"type":"VEC2"
		},
		{
			"bufferView":153,
			"componentType":5126,
			"count":56,
			"type":"VEC3"
		},
		{
			"bufferView":154,
			"componentType":5123,
			"count":56,
			"normalized":true,
			"type":"VEC4"
		},
		{
			"bufferView":155,
			"componentType":5126,
			"count":166,
			"max":[
				0.5000001788139343,
				0.5000001788139343,
				9.02389329684227e-17
			],
			"min":[
				-0.5000001788139343,
				-0.5000001788139343,
				-0.4000000059604645
			],
			"type":"VEC3"
		},
		{
			"bufferView":156,
			"componentType":5126,
			"count":166,
			"type":"VEC3"
		},
		{
			"bufferView":157,
			"componentType":5126,
			"count":166,
			"type":"VEC2"
		},
		{
			"bufferView":158,
			"componentType":5126,
			"count":166,
			"type":"VEC3"
		},
		{
			"bufferView":159,
			"componentType":5123,
			"count":166,
			"normalized":true,
			"type":"VEC4"
		},
		{
			"bufferView":160,
			"componentType":5126,
			"count":56,
			"max":[
				5,
				0.5,
				0
			],
			"min":[
				-5,
				-0.5,
				-0.4000000059604645
			],
			"type":"VEC3"
		},
		{
			"bufferView":161,
			"componentType":5126,
			"count":56,
			"type":"VEC3"
		},
		{
			"bufferView":162,
			"componentType":5126,
			"count":56,
			"type":"VEC2"
		},
		{
			"bufferView":163,
			"componentType":5126,
			"count":56,
			"type":"VEC3"
		},
		{
			"bufferView":164,
			"componentType":5123,
			"count":56,
			"normalized":true,
			"type":"VEC4"
		},
		{
			"bufferView":165,
			"componentType":5126,
			"count":166,
			"max":[
				0.5000001788139343,
				0.5000001788139343,
				9.02389329684227e-17
			],
			"min":[
				-0.5000001788139343,
				-0.5000001788139343,
				-0.4000000059604645
			],
			"type":"VEC3"
		},
		{
			"bufferView":166,
			"componentType":5126,
			"count":166,
			"type":"VEC3"
		},
		{
			"bufferView":167,
			"componentType":5126,
			"count":166,
			"type":"VEC2"
		},
		{
			"bufferView":168,
			"componentType":5126,
			"count":166,
			"type":"VEC3"
		},
		{
			"bufferView":169,
			"componentType":5123,
			"count":166,
			"normalized":true,
			"type":"VEC4"
		},
		{
			"bufferView":170,
			"componentType":5126,
			"count":56,
			"max":[
				5,
				0.5,
				0
			],
			"min":[
				-5,
				-0.5,
				-0.4000000059604645
			],
			"type":"VEC3"
		},
		{
			"bufferView":171,
			"componentType":5126,
			"count":56,
			"type":"VEC3"
		},
		{
			"bufferView":172,
			"componentType":5126,
			"count":56,
			"type":"VEC2"
		},
		{
			"bufferView":173,
			"componentType":5126,
			"count":56,
			"type":"VEC3"
		},
		{
			"bufferView":174,
			"componentType":5123,
			"count":56,
			"normalized":true,
			"type":"VEC4"
		},
		{
			"bufferView":175,
			"componentType":5126,
			"count":166,
			"max":[
				0.5000001788139343,
				0.5000001788139343,
				9.02389329684227e-17
			],
			"min":[
				-0.5000001788139343,
				-0.5000001788139343,
				-0.4000000059604645
			],
			"type":"VEC3"
		},
		{
			"bufferView":176,
			"componentType":5126,
			"count":166,
			"type":"VEC3"
		},
		{
			"bufferView":177,
			"componentType":5126,
			"count":166,
			"type":"VEC2"
		},
		{
			"bufferView":178,
			"componentType":5126,
			"count":166,
			"type":"VEC3"
		},
		{
			"bufferView":179,
			"componentType":5123,
			"count":166,
			"normalized":true,
			"type":"VEC4"
		},
		{
			"bufferView":180,
			"componentType":5126,
			"count":56,
			"max":[
				5,
				0.5,
				0
			],
			"min":[
				-5,
				-0.5,
				-0.4000000059604645
			],
			"type":"VEC3"
		},
		{
			"bufferView":181,
			"componentType":5126,
			"count":56,
			"type":"VEC3"
		},
		{
			"bufferView":182,
			"componentType":5126,
			"count":56,
			"type":"VEC2"
		},
		{
			"bufferView":183,
			"componentType":5126,
			"count":56,
			"type":"VEC3"
		},
		{
			"bufferView":184,
			"componentType":5123,
			"count":56,
			"normalized":true,
			"type":"VEC4"
		},
		{
			"bufferView":185,
			"componentType":5126,
			"count":151,
			"max":[
				0.25,
				0.5,
				0
			],
			"min":[
				-0.25,
				-0.5,
				-0.4000000059604645
			],
			"type":"VEC3"
		},
		{
			"bufferView":186,
			"componentType":5126,
			"count":151,
			"type":"VEC3"
		},
		{
			"bufferView":187,
			"componentType":5126,
			"count":151,
			"type":"VEC2"
		},
		{
			"bufferView":188,
			"componentType":5126,
			"count":151,
			"type":"VEC3"
		},
		{
			"bufferView":189,
			"componentType":5123,
			"count":151,
			"normalized":true,
			"type":"VEC4"
		},
		{
			"bufferView":190,
			"componentType":5126,
			"count":468,
			"max":[
				0.15000000596046448,
				2,
				0.550000011920929
			],
			"min":[
				-0.15000000596046448,
				0,
				-0.550000011920929
			],
			"type":"VEC3"
		},
		{
			"bufferView":191,
			"componentType":5126,
			"count":468,
			"type":"VEC3"
		},
		{
			"bufferView":192,
			"componentType":5126,
			"count":468,
			"type":"VEC2"
		},
		{
			"bufferView":193,
			"componentType":5126,
			"count":468,
			"max":[
				0.15000000596046448,
				2,
				0.550000011920929
			],
			"min":[
				-0.15000000596046448,
				0,
				-0.550000011920929
			],
			"type":"VEC3"
		},
		{
			"bufferView":194,
			"componentType":5126,
			"count":468,
			"type":"VEC3"
		},
		{
			"bufferView":195,
			"componentType":5126,
			"count":468,
			"type":"VEC2"
		},
		{
			"bufferView":196,
			"componentType":5126,
			"count":56,
			"max":[
				5,
				0.5,
				0
			],
			"min":[
				-5,
				-0.5,
				-0.4000000059604645
			],
			"type":"VEC3"
		},
		{
			"bufferView":197,
			"componentType":5126,
			"count":56,
			"type":"VEC3"
		},
		{
			"bufferView":198,
			"componentType":5126,
			"count":56,
			"type":"VEC2"
		},
		{
			"bufferView":199,
			"componentType":5126,
			"count":56,
			"type":"VEC3"
		},
		{
			"bufferView":200,
			"componentType":5123,
			"count":56,
			"normalized":true,
			"type":"VEC4"
		},
		{
			"bufferView":201,
			"componentType":5126,
			"count":151,
			"max":[
				0.25,
				0.5,
				0
			],
			"min":[
				-0.25,
				-0.5,
				-0.4000000059604645
			],
			"type":"VEC3"
		},
		{
			"bufferView":202,
			"componentType":5126,
			"count":151,
			"type":"VEC3"
		},
		{
			"bufferView":203,
			"componentType":5126,
			"count":151,
			"type":"VEC2"
		},
		{
			"bufferView":204,
			"componentType":5126,
			"count":151,
			"type":"VEC3"
		},
		{
			"bufferView":205,
			"componentType":5123,
			"count":151,
			"normalized":true,
			"type":"VEC4"
		},
		{
			"bufferView":206,
			"componentType":5126,
			"count":252,
			"max":[
				0.6000000238418579,
				0.800000011920929,
				4.1067491074464613e-10
			],
			"min":[
				-0.6000000238418579,
				-0.800000011920929,
				-1.3504990339279175
			],
			"type":"VEC3"
		},
		{
			"bufferView":207,
			"componentType":5126,
			"count":252,
			"type":"VEC3"
		},
		{
			"bufferView":208,
			"componentType":5126,
			"count":252,
			"type":"VEC2"
		},
		{
			"bufferView":209,
			"componentType":5126,
			"count":252,
			"type":"VEC3"
		},
		{
			"bufferView":210,
			"componentType":5123,
			"count":252,
			"normalized":true,
			"type":"VEC4"
		},
		{
			"bufferView":211,
			"componentType":5126,
			"count":252,
			"max":[
				0.6000000238418579,
				0.800000011920929,
				4.1067491074464613e-10
			],
			"min":[
				-0.6000000238418579,
				-0.800000011920929,
				-1.3504990339279175
			],
			"type":"VEC3"
		},
		{
			"bufferView":212,
			"componentType":5126,
			"count":252,
			"type":"VEC3"
		},
		{
			"bufferView":213,
			"componentType":5126,
			"count":252,
			"type":"VEC2"
		},
		{
			"bufferView":214,
			"componentType":5126,
			"count":252,
			"type":"VEC3"
		},
		{
			"bufferView":215,
			"componentType":5123,
			"count":252,
			"normalized":true,
			"type":"VEC4"
		},
		{
			"bufferView":216,
			"componentType":5126,
			"count":252,
			"max":[
				0.6000000238418579,
				0.800000011920929,
				4.1067491074464613e-10
			],
			"min":[
				-0.6000000238418579,
				-0.800000011920929,
				-1.3504990339279175
			],
			"type":"VEC3"
		},
		{
			"bufferView":217,
			"componentType":5126,
			"count":252,
			"type":"VEC3"
		},
		{
			"bufferView":218,
			"componentType":5126,
			"count":252,
			"type":"VEC2"
		},
		{
			"bufferView":219,
			"componentType":5126,
			"count":252,
			"type":"VEC3"
		},
		{
			"bufferView":220,
			"componentType":5123,
			"count":252,
			"normalized":true,
			"type":"VEC4"
		},
		{
			"bufferView":221,
			"componentType":5126,
			"count":252,
			"max":[
				0.6000000238418579,
				0.800000011920929,
				4.1067491074464613e-10
			],
			"min":[
				-0.6000000238418579,
				-0.800000011920929,
				-1.3504990339279175
			],
			"type":"VEC3"
		},
		{
			"bufferView":222,
			"componentType":5126,
			"count":252,
			"type":"VEC3"
		},
		{
			"bufferView":223,
			"componentType":5126,
			"count":252,
			"type":"VEC2"
		},
		{
			"bufferView":224,
			"componentType":5126,
			"count":252,
			"type":"VEC3"
		},
		{
			"bufferView":225,
			"componentType":5123,
			"count":252,
			"normalized":true,
			"type":"VEC4"
		},
		{
			"bufferView":226,
			"componentType":5126,
			"count":24,
			"max":[
				1,
				1,
				1
			],
			"min":[
				-1,
				-1,
				-1
			],
			"type":"VEC3"
		},
		{
			"bufferView":227,
			"componentType":5126,
			"count":24,
			"type":"VEC3"
		},
		{
			"bufferView":228,
			"componentType":5126,
			"count":24,
			"type":"VEC2"
		},
		{
			"bufferView":229,
			"componentType":5126,
			"count":24,
			"max":[
				1,
				1,
				1
			],
			"min":[
				-1,
				-1,
				-1
			],
			"type":"VEC3"
		},
		{
			"bufferView":230,
			"componentType":5126,
			"count":24,
			"type":"VEC3"
		},
		{
			"bufferView":231,
			"componentType":5126,
			"count":24,
			"type":"VEC2"
		},
		{
			"bufferView":232,
			"componentType":5126,
			"count":24,
			"max":[
				1,
				1,
				1
			],
			"min":[
				-1,
				-1,
				-1
			],
			"type":"VEC3"
		},
		{
			"bufferView":233,
			"componentType":5126,
			"count":24,
			"type":"VEC3"
		},
		{
			"bufferView":234,
			"componentType":5126,
			"count":24,
			"type":"VEC2"
		}
	],
	"bufferViews":[
		{
			"buffer":0,
			"byteLength":1812,
			"byteOffset":0,
			"target":34962
		},
		{
			"buffer":0,
			"byteLength":1812,
			"byteOffset":1812,
			"target":34962
		},
		{
			"buffer":0,
			"byteLength":1208,
			"byteOffset":3624,
			"target":34962
		},
		{
			"buffer":0,
			"byteLength":1812,
			"byteOffset":4832,
			"target":34962
		},
		{
			"buffer":0,
			"byteLength":1208,
			"byteOffset":6644,
			"target":34962
		},
		{
			"buffer":0,
			"byteLength":1104,
			"byteOffset":7852,
			"target":34963
		},
		{
			"buffer":0,
			"byteLength":672,
			"byteOffset":8956,
			"target":34962
		},
		{
			"buffer":0,
			"byteLength":672,
			"byteOffset":9628,
			"target":34962
		},
		{
			"buffer":0,
			"byteLength":448,
			"byteOffset":10300,
			"target":34962
		},
		{
			"buffer":0,
			"byteLength":672,
			"byteOffset":10748,
			"target":34962
		},
		{
			"buffer":0,
			"byteLength":448,
			"byteOffset":11420,
			"target":34962
		},
		{
			"buffer":0,
			"byteLength":360,
			"byteOffset":11868,
			"target":34963
		},
		{
			"buffer":0,
			"byteLength":672,
			"byteOffset":12228,
			"target":34962
		},
		{
			"buffer":0,
			"byteLength":672,
			"byteOffset":12900,
			"target":34962
		},
		{
			"buffer":0,
			"byteLength":448,
			"byteOffset":13572,
			"target":34962
		},
		{
			"buffer":0,
			"byteLength":672,
			"byteOffset":14020,
			"target":34962
		},
		{
			"buffer":0,
			"byteLength":448,
			"byteOffset":14692,
			"target":34962
		},
		{
			"buffer":0,
			"byteLength":1812,
			"byteOffset":15140,
			"target":34962
		},
		{
			"buffer":0,
			"byteLength":1812,
			"byteOffset":16952,
			"target":34962
		},
		{
			"buffer":0,
			"byteLength":1208,
			"byteOffset":18764,
			"target":34962
		},
		{
			"buffer":0,
			"byteLength":1812,
			"byteOffset":19972,
			"target":34962
		},
		{
			"buffer":0,
			"byteLength":1208,
			"byteOffset":21784,
			"target":34962
		},
		{
			"buffer":0,
			"byteLength":672,
			"byteOffset":22992,
			"target":34962
		},
		{
			"buffer":0,
			"byteLength":672,
			"byteOffset":23664,
			"target":34962
		},
		{
			"buffer":0,
			"byteLength":448,
			"byteOffset":24336,
			"target":34962
		},
		{
			"buffer":0,
			"byteLength":672,
			"byteOffset":24784,
			"target":34962
		},
		{
			"buffer":0,
			"byteLength":448,
			"byteOffset":25456,
			"target":34962
		},
		{
			"buffer":0,
			"byteLength":1812,
			"byteOffset":25904,
			"target":34962
		},
		{
			"buffer":0,
			"byteLength":1812,
			"byteOffset":27716,
			"target":34962
		},
		{
			"buffer":0,
			"byteLength":1208,
			"byteOffset":29528,
			"target":34962
		},
		{
			"buffer":0,
			"byteLength":1812,
			"byteOffset":30736,
			"target":34962
		},
		{
			"buffer":0,
			"byteLength":1208,
			"byteOffset":32548,
			"target":34962
		},
		{
			"buffer":0,
			"byteLength":672,
			"byteOffset":33756,
			"target":34962
		},
		{
			"buffer":0,
			"byteLength":672,
			"byteOffset":34428,
			"target":34962
		},
		{
			"buffer":0,
			"byteLength":448,
			"byteOffset":35100,
			"target":34962
		},
		{
			"buffer":0,
			"byteLength":672,
			"byteOffset":35548,
			"target":34962
		},
		{
			"buffer":0,
			"byteLength":448,
			"byteOffset":36220,
			"target":34962
		},
		{
			"buffer":0,
			"byteLength":1812,
			"byteOffset":36668,
			"target":34962
		},
		{
			"buffer":0,
			"byteLength":1812,
			"byteOffset":38480,
			"target":34962
		},
		{
			"buffer":0,
			"byteLength":1208,
			"byteOffset":40292,
			"target":34962
		},
		{
			"buffer":0,
			"byteLength":1812,
			"byteOffset":41500,
			"target":34962
		},
		{
			"buffer":0,
			"byteLength":1208,
			"byteOffset":43312,
			"target":34962
		},
		{
			"buffer":0,
			"byteLength":672,
			"byteOffset":44520,
			"target":34962
		},
		{
			"buffer":0,
			"byteLength":672,
			"byteOffset":45192,
			"target":34962
		},
		{
			"buffer":0,
			"byteLength":448,
			"byteOffset":45864,
			"target":34962
		},
		{
			"buffer":0,
			"byteLength":672,
			"byteOffset":46312,
			"target":34962
		},
		{
			"buffer":0,
			"byteLength":448,
			"byteOffset":46984,
			"target":34962
		},
		{
			"buffer":0,
			"byteLength":1812,
			"byteOffset":47432,
			"target":34962
		},
		{
			"buffer":0,
			"byteLength":1812,
			"byteOffset":49244,
			"target":34962
		},
		{
			"buffer":0,
			"byteLength":1208,
			"byteOffset":51056,
			"target":34962
		},
		{
			"buffer":0,
			"byteLength":1812,
			"byteOffset":52264,
			"target":34962
		},
		{
			"buffer":0,
			"byteLength":1208,
			"byteOffset":54076,
			"target":34962
		},
		{
			"buffer":0,
			"byteLength":288,
			"byteOffset":55284,
			"target":34962
		},
		{
			"buffer":0,
			"byteLength":288,
			"byteOffset":55572,
			"target":34962
		},
		{
			"buffer":0,
			"byteLength":192,
			"byteOffset":55860,
			"target":34962
		},
		{
			"buffer":0,
			"byteLength":72,
			"byteOffset":56052,
			"target":34963
		},
		{
			"buffer":0,
			"byteLength":288,
			"byteOffset":56124,
			"target":34962
		},
		{
			"buffer":0,
			"byteLength":288,
			"byteOffset":56412,
			"target":34962
		},
		{
			"buffer":0,
			"byteLength":192,
			"byteOffset":56700,
			"target":34962
		},
		{
			"buffer":0,
			"byteLength":288,
			"byteOffset":56892,
			"target":34962
		},
		{
			"buffer":0,
			"byteLength":288,
			"byteOffset":57180,
			"target":34962
		},
		{
			"buffer":0,
			"byteLength":192,
			"byteOffset":57468,
			"target":34962
		},
		{
			"buffer":0,
			"byteLength":288,
			"byteOffset":57660,
			"target":34962
		},
		{
			"buffer":0,
			"byteLength":288,
			"byteOffset":57948,
			"target":34962
		},
		{
			"buffer":0,
			"byteLength":192,
			"byteOffset":58236,
			"target":34962
		},
		{
			"buffer":0,
			"byteLength":288,
			"byteOffset":58428,
			"target":34962
		},
		{
			"buffer":0,
			"byteLength":288,
			"byteOffset":58716,
			"target":34962
		},
		{
			"buffer":0,
			"byteLength":192,
			"byteOffset":59004,
			"target":34962
		},
		{
			"buffer":0,
			"byteLength":5616,
			"byteOffset":59196,
			"target":34962
		},
		{
			"buffer":0,
			"byteLength":5616,
			"byteOffset":64812,
			"target":34962
		},
		{
			"buffer":0,
			"byteLength":3744,
			"byteOffset":70428,
			"target":34962
		},
		{
			"buffer":0,
			"byteLength":1608,
			"byteOffset":74172,
			"target":34963
		},
		{
			"buffer":0,
			"byteLength":5616,
			"byteOffset":75780,
			"target":34962
		},
		{
			"buffer":0,
			"byteLength":5616,
			"byteOffset":81396,
			"target":34962
		},
		{
			"buffer":0,
			"byteLength":3744,
			"byteOffset":87012,
			"target":34962
		},
		{
			"buffer":0,
			"byteLength":5616,
			"byteOffset":90756,
			"target":34962
		},
		{
			"buffer":0,
			"byteLength":5616,
			"byteOffset":96372,
			"target":34962
		},
		{
			"buffer":0,
			"byteLength":3744,
			"byteOffset":101988,
			"target":34962
		},
		{
			"buffer":0,
			"byteLength":5616,
			"byteOffset":105732,
			"target":34962
		},
		{
			"buffer":0,
			"byteLength":5616,
			"byteOffset":111348,
			"target":34962
		},
		{
			"buffer":0,
			"byteLength":3744,
			"byteOffset":116964,
			"target":34962
		},
		{
			"buffer":0,
			"byteLength":5616,
			"byteOffset":120708,
			"target":34962
		},
		{
			"buffer":0,
			"byteLength":5616,
			"byteOffset":126324,
			"target":34962
		},
		{
			"buffer":0,
			"byteLength":3744,
			"byteOffset":131940,
			"target":34962
		},
		{
			"buffer":0,
			"byteLength":5616,
			"byteOffset":135684,
			"target":34962
		},
		{
			"buffer":0,
			"byteLength":5616,
			"byteOffset":141300,
			"target":34962
		},
		{
			"buffer":0,
			"byteLength":3744,
			"byteOffset":146916,
			"target":34962
		},
		{
			"buffer":0,
			"byteLength":5616,
			"byteOffset":150660,
			"target":34962
		},
		{
			"buffer":0,
			"byteLength":5616,
			"byteOffset":156276,
			"target":34962
		},
		{
			"buffer":0,
			"byteLength":3744,
			"byteOffset":161892,
			"target":34962
		},
		{
			"buffer":0,
			"byteLength":5616,
			"byteOffset":165636,
			"target":34962
		},
		{
			"buffer":0,
			"byteLength":5616,
			"byteOffset":171252,
			"target":34962
		},
		{
			"buffer":0,
			"byteLength":3744,
			"byteOffset":176868,
			"target":34962
		},
		{
			"buffer":0,
			"byteLength":5616,
			"byteOffset":180612,
			"target":34962
		},
		{
			"buffer":0,
			"byteLength":5616,
			"byteOffset":186228,
			"target":34962
		},
		{
			"buffer":0,
			"byteLength":3744,
			"byteOffset":191844,
			"target":34962
		},
		{
			"buffer":0,
			"byteLength":5616,
			"byteOffset":195588,
			"target":34962
		},
		{
			"buffer":0,
			"byteLength":5616,
			"byteOffset":201204,
			"target":34962
		},
		{
			"buffer":0,
			"byteLength":3744,
			"byteOffset":206820,
			"target":34962
		},
		{
			"buffer":0,
			"byteLength":3024,
			"byteOffset":210564,
			"target":34962
		},
		{
			"buffer":0,
			"byteLength":3024,
			"byteOffset":213588,
			"target":34962
		},
		{
			"buffer":0,
			"byteLength":2016,
			"byteOffset":216612,
			"target":34962
		},
		{
			"buffer":0,
			"byteLength":3024,
			"byteOffset":218628,
			"target":34962
		},
		{
			"buffer":0,
			"byteLength":2016,
			"byteOffset":221652,
			"target":34962
		},
		{
			"buffer":0,
			"byteLength":1884,
			"byteOffset":223668,
			"target":34963
		},
		{
			"buffer":0,
			"byteLength":288,
			"byteOffset":225552,
			"target":34962
		},
		{
			"buffer":0,
			"byteLength":288,
			"byteOffset":225840,
			"target":34962
		},
		{
			"buffer":0,
			"byteLength":192,
			"byteOffset":226128,
			"target":34962
		},
		{
			"buffer":0,
			"byteLength":1812,
			"byteOffset":226320,
			"target":34962
		},
		{
			"buffer":0,
			"byteLength":1812,
			"byteOffset":228132,
			"target":34962
		},
		{
			"buffer":0,
			"byteLength":1208,
			"byteOffset":229944,
			"target":34962
		},
		{
			"buffer":0,
			"byteLength":1812,
			"byteOffset":231152,
			"target":34962
		},
		{
			"buffer":0,
			"byteLength":1208,
			"byteOffset":232964,
			"target":34962
		},
		{
			"buffer":0,
			"byteLength":672,
			"byteOffset":234172,
			"target":34962
		},
		{
			"buffer":0,
			"byteLength":672,
			"byteOffset":234844,
			"target":34962
		},
		{
			"buffer":0,
			"byteLength":448,
			"byteOffset":235516,
			"target":34962
		},
		{
			"buffer":0,
			"byteLength":672,
			"byteOffset":235964,
			"target":34962
		},
		{
			"buffer":0,
			"byteLength":448,
			"byteOffset":236636,
			"target":34962
		},
		{
			"buffer":0,
			"byteLength":5616,
			"byteOffset":237084,
			"target":34962
		},
		{
			"buffer":0,
			"byteLength":5616,
			"byteOffset":242700,
			"target":34962
		},
		{
			"buffer":0,
			"byteLength":3744,
			"byteOffset":248316,
			"target":34962
		},
		{
			"buffer":0,
			"byteLength":5616,
			"byteOffset":252060,
			"target":34962
		},
		{
			"buffer":0,
			"byteLength":5616,
			"byteOffset":257676,
			"target":34962
		},
		{
			"buffer":0,
			"byteLength":3744,
			"byteOffset":263292,
			"target":34962
		},
		{
			"buffer":0,
			"byteLength":1812,
			"byteOffset":267036,
			"target":34962
		},
		{
			"buffer":0,
			"byteLength":1812,
			"byteOffset":268848,
			"target":34962
		},
		{
			"buffer":0,
			"byteLength":1208,
			"byteOffset":270660,
			"target":34962
		},
		{
			"buffer":0,
			"byteLength":1812,
			"byteOffset":271868,
			"target":34962
		},
		{
			"buffer":0,
			"byteLength":1208,
			"byteOffset":273680,
			"target":34962
		},
		{
			"buffer":0,
			"byteLength":672,
			"byteOffset":274888,
			"target":34962
		},
		{
			"buffer":0,
			"byteLength":672,
			"byteOffset":275560,
			"target":34962
		},
		{
			"buffer":0,
			"byteLength":448,
			"byteOffset":276232,
			"target":34962
		},
		{
			"buffer":0,
			"byteLength":672,
			"byteOffset":276680,
			"target":34962
		},
		{
			"buffer":0,
			"byteLength":448,
			"byteOffset":277352,
			"target":34962
		},
		{
			"buffer":0,
			"byteLength":1992,
			"byteOffset":277800,
			"target":34962
		},
		{
			"buffer":0,
			"byteLength":1992,
			"byteOffset":279792,
			"target":34962
		},
		{
			"buffer":0,
			"byteLength":1328,
			"byteOffset":281784,
			"target":34962
		},
		{
			"buffer":0,
			"byteLength":1992,
			"byteOffset":283112,
			"target":34962
		},
		{
			"buffer":0,
			"byteLength":1328,
			"byteOffset":285104,
			"target":34962
		},
		{
			"buffer":0,
			"byteLength":1242,
			"byteOffset":286432,
			"target":34963
		},
		{
			"buffer":0,
			"byteLength":672,
			"byteOffset":287676,
			"target":34962
		},
		{
			"buffer":0,
			"byteLength":672,
			"byteOffset":288348,
			"target":34962
		},
		{
			"buffer":0,
			"byteLength":448,
			"byteOffset":289020,
			"target":34962
		},
		{
			"buffer":0,
			"byteLength":672,
			"byteOffset":289468,
			"target":34962
		},
		{
			"buffer":0,
			"byteLength":448,
			"byteOffset":290140,
			"target":34962
		},
		{
			"buffer":0,
			"byteLength":1992,
			"byteOffset":290588,
			"target":34962
		},
		{
			"buffer":0,
			"byteLength":1992,
			"byteOffset":292580,
			"target":34962
		},
		{
			"buffer":0,
			"byteLength":1328,
			"byteOffset":294572,
			"target":34962
		},
		{
			"buffer":0,
			"byteLength":1992,
			"byteOffset":295900,
			"target":34962
		},
		{
			"buffer":0,
			"byteLength":1328,
			"byteOffset":297892,
			"target":34962
		},
		{
			"buffer":0,
			"byteLength":672,
			"byteOffset":299220,
			"target":34962
		},
		{
			"buffer":0,
			"byteLength":672,
			"byteOffset":299892,
			"target":34962
		},
		{
			"buffer":0,
			"byteLength":448,
			"byteOffset":300564,
			"target":34962
		},
		{
			"buffer":0,
			"byteLength":672,
			"byteOffset":301012,
			"target":34962
		},
		{
			"buffer":0,
			"byteLength":448,
			"byteOffset":301684,
			"target":34962
		},
		{
			"buffer":0,
			"byteLength":1992,
			"byteOffset":302132,
			"target":34962
		},
		{
			"buffer":0,
			"byteLength":1992,
			"byteOffset":304124,
			"target":34962
		},
		{
			"buffer":0,
			"byteLength":1328,
			"byteOffset":306116,
			"target":34962
		},
		{
			"buffer":0,
			"byteLength":1992,
			"byteOffset":307444,
			"target":34962
		},
		{
			"buffer":0,
			"byteLength":1328,
			"byteOffset":309436,
			"target":34962
		},
		{
			"buffer":0,
			"byteLength":672,
			"byteOffset":310764,
			"target":34962
		},
		{
			"buffer":0,
			"byteLength":672,
			"byteOffset":311436,
			"target":34962
		},
		{
			"buffer":0,
			"byteLength":448,
			"byteOffset":312108,
			"target":34962
		},
		{
			"buffer":0,
			"byteLength":672,
			"byteOffset":312556,
			"target":34962
		},
		{
			"buffer":0,
			"byteLength":448,
			"byteOffset":313228,
			"target":34962
		},
		{
			"buffer":0,
			"byteLength":1992,
			"byteOffset":313676,
			"target":34962
		},
		{
			"buffer":0,
			"byteLength":1992,
			"byteOffset":315668,
			"target":34962
		},
		{
			"buffer":0,
			"byteLength":1328,
			"byteOffset":317660,
			"target":34962
		},
		{
			"buffer":0,
			"byteLength":1992,
			"byteOffset":318988,
			"target":34962
		},
		{
			"buffer":0,
			"byteLength":1328,
			"byteOffset":320980,
			"target":34962
		},
		{
			"buffer":0,
			"byteLength":672,
			"byteOffset":322308,
			"target":34962
		},
		{
			"buffer":0,
			"byteLength":672,
			"byteOffset":322980,
			"target":34962
		},
		{
			"buffer":0,
			"byteLength":448,
			"byteOffset":323652,
			"target":34962
		},
		{
			"buffer":0,
			"byteLength":672,
			"byteOffset":324100,
			"target":34962
		},
		{
			"buffer":0,
			"byteLength":448,
			"byteOffset":324772,
			"target":34962
		},
		{
			"buffer":0,
			"byteLength":1992,
			"byteOffset":325220,
			"target":34962
		},
		{
			"buffer":0,
			"byteLength":1992,
			"byteOffset":327212,
			"target":34962
		},
		{
			"buffer":0,
			"byteLength":1328,
			"byteOffset":329204,
			"target":34962
		},
		{
			"buffer":0,
			"byteLength":1992,
			"byteOffset":330532,
			"target":34962
		},
		{
			"buffer":0,
			"byteLength":1328,
			"byteOffset":332524,
			"target":34962
		},
		{
			"buffer":0,
			"byteLength":672,
			"byteOffset":333852,
			"target":34962
		},
		{
			"buffer":0,
			"byteLength":672,
			"byteOffset":334524,
			"target":34962
		},
		{
			"buffer":0,
			"byteLength":448,
			"byteOffset":335196,
			"target":34962
		},
		{
			"buffer":0,
			"byteLength":672,
			"byteOffset":335644,
			"target":34962
		},
		{
			"buffer":0,
			"byteLength":448,
			"byteOffset":336316,
			"target":34962
		},
		{
			"buffer":0,
			"byteLength":1812,
			"byteOffset":336764,
			"target":34962
		},
		{
			"buffer":0,
			"byteLength":1812,
			"byteOffset":338576,
			"target":34962
		},
		{
			"buffer":0,
			"byteLength":1208,
			"byteOffset":340388,
			"target":34962
		},
		{
			"buffer":0,
			"byteLength":1812,
			"byteOffset":341596,
			"target":34962
		},
		{
			"buffer":0,
			"byteLength":1208,
			"byteOffset":343408,
			"target":34962
		},
		{
			"buffer":0,
			"byteLength":5616,
			"byteOffset":344616,
			"target":34962
		},
		{
			"buffer":0,
			"byteLength":5616,
			"byteOffset":350232,
			"target":34962
		},
		{
			"buffer":0,
			"byteLength":3744,
			"byteOffset":355848,
			"target":34962
		},
		{
			"buffer":0,
			"byteLength":5616,
			"byteOffset":359592,
			"target":34962
		},
		{
			"buffer":0,
			"byteLength":5616,
			"byteOffset":365208,
			"target":34962
		},
		{
			"buffer":0,
			"byteLength":3744,
			"byteOffset":370824,
			"target":34962
		},
		{
			"buffer":0,
			"byteLength":672,
			"byteOffset":374568,
			"target":34962
		},
		{
			"buffer":0,
			"byteLength":672,
			"byteOffset":375240,
			"target":34962
		},
		{
			"buffer":0,
			"byteLength":448,
			"byteOffset":375912,
			"target":34962
		},
		{
			"buffer":0,
			"byteLength":672,
			"byteOffset":376360,
			"target":34962
		},
		{
			"buffer":0,
			"byteLength":448,
			"byteOffset":377032,
			"target":34962
		},
		{
			"buffer":0,
			"byteLength":1812,
			"byteOffset":377480,
			"target":34962
		},
		{
			"buffer":0,
			"byteLength":1812,
			"byteOffset":379292,
			"target":34962
		},
		{
			"buffer":0,
			"byteLength":1208,
			"byteOffset":381104,
			"target":34962
		},
		{
			"buffer":0,
			"byteLength":1812,
			"byteOffset":382312,
			"target":34962
		},
		{
			"buffer":0,
			"byteLength":1208,
			"byteOffset":384124,
			"target":34962
		},
		{
			"buffer":0,
			"byteLength":3024,
			"byteOffset":385332,
			"target":34962
		},
		{
			"buffer":0,
			"byteLength":3024,
			"byteOffset":388356,
			"target":34962
		},
		{
			"buffer":0,
			"byteLength":2016,
			"byteOffset":391380,
			"target":34962
		},
		{
			"buffer":0,
			"byteLength":3024,
			"byteOffset":393396,
			"target":34962
		},
		{
			"buffer":0,
			"byteLength":2016,
			"byteOffset":396420,
			"target":34962
		},
		{
			"buffer":0,
			"byteLength":3024,
			"byteOffset":398436,
			"target":34962
		},
		{
			"buffer":0,
			"byteLength":3024,
			"byteOffset":401460,
			"target":34962
		},
		{
			"buffer":0,
			"byteLength":2016,
			"byteOffset":404484,
			"target":34962
		},
		{
			"buffer":0,
			"byteLength":3024,
			"byteOffset":406500,
			"target":34962
		},
		{
			"buffer":0,
			"byteLength":2016,
			"byteOffset":409524,
			"target":34962
		},
		{
			"buffer":0,
			"byteLength":3024,
			"byteOffset":411540,
			"target":34962
		},
		{
			"buffer":0,
			"byteLength":3024,
			"byteOffset":414564,
			"target":34962
		},
		{
			"buffer":0,
			"byteLength":2016,
			"byteOffset":417588,
			"target":34962
		},
		{
			"buffer":0,
			"byteLength":3024,
			"byteOffset":419604,
			"target":34962
		},
		{
			"buffer":0,
			"byteLength":2016,
			"byteOffset":422628,
			"target":34962
		},
		{
			"buffer":0,
			"byteLength":3024,
			"byteOffset":424644,
			"target":34962
		},
		{
			"buffer":0,
			"byteLength":3024,
			"byteOffset":427668,
			"target":34962
		},
		{
			"buffer":0,
			"byteLength":2016,
			"byteOffset":430692,
			"target":34962
		},
		{
			"buffer":0,
			"byteLength":3024,
			"byteOffset":432708,
			"target":34962
		},
		{
			"buffer":0,
			"byteLength":2016,
			"byteOffset":435732,
			"target":34962
		},
		{
			"buffer":0,
			"byteLength":288,
			"byteOffset":437748,
			"target":34962
		},
		{
			"buffer":0,
			"byteLength":288,
			"byteOffset":438036,
			"target":34962
		},
		{
			"buffer":0,
			"byteLength":192,
			"byteOffset":438324,
			"target":34962
		},
		{
			"buffer":0,
			"byteLength":288,
			"byteOffset":438516,
			"target":34962
		},
		{
			"buffer":0,
			"byteLength":288,
			"byteOffset":438804,
			"target":34962
		},
		{
			"buffer":0,
			"byteLength":192,
			"byteOffset":439092,
			"target":34962
		},
		{
			"buffer":0,
			"byteLength":288,
			"byteOffset":439284,
			"target":34962
		},
		{
			"buffer":0,
			"byteLength":288,
			"byteOffset":439572,
			"target":34962
		},
		{
			"buffer":0,
			"byteLength":192,
			"byteOffset":439860,
			"target":34962
		}
	],
	"samplers":[
		{
			"magFilter":9729,
			"minFilter":9987
		}
	],
	"buffers":[
		{
			"byteLength":440052,
			"uri":"BeltConveyor.bin"
		}
	]
}
