{
	"asset":{
		"generator":"Khronos glTF Blender I/O v5.1.19",
		"version":"2.0"
	},
	"scene":0,
	"scenes":[
		{
			"name":"Scene",
			"nodes":[
				0
			]
		}
	],
	"nodes":[
		{
			"mesh":0,
			"name":"spikeball002.obj",
			"rotation":[
				0.7071068286895752,
				0,
				0,
				0.7071068286895752
			],
			"scale":[
				5.525002479553223,
				5.525002479553223,
				5.525002479553223
			]
		}
	],
	"meshes":[
		{
			"name":"spikeball002.obj",
			"primitives":[
				{
					"attributes":{
						"POSITION":0,
						"NORMAL":1,
						"TEXCOORD_0":2
					},
					"indices":3
				}
			]
		}
	],
	"accessors":[
		{
			"bufferView":0,
			"componentType":5126,
			"count":3159,
			"max":[
				0.11691349744796753,
				0.13500000536441803,
				0.13500000536441803
			],
			"min":[
				-0.11691349744796753,
				-0.13500000536441803,
				-0.13500000536441803
			],
			"type":"VEC3"
		},
		{
			"bufferView":1,
			"componentType":5126,
			"count":3159,
			"type":"VEC3"
		},
		{
			"bufferView":2,
			"componentType":5126,
			"count":3159,
			"type":"VEC2"
		},
		{
			"bufferView":3,
			"componentType":5123,
			"count":6720,
			"type":"SCALAR"
		}
	],
	"bufferViews":[
		{
			"buffer":0,
			"byteLength":37908,
			"byteOffset":0,
			"target":34962
		},
		{
			"buffer":0,
			"byteLength":37908,
			"byteOffset":37908,
			"target":34962
		},
		{
			"buffer":0,
			"byteLength":25272,
			"byteOffset":75816,
			"target":34962
		},
		{
			"buffer":0,
			"byteLength":13440,
			"byteOffset":101088,
			"target":34963
		}
	],
	"buffers":[
		{
			"byteLength":114528,
			"uri":"SpikeBall.bin"
		}
	]
}
