{
	"asset":{
		"generator":"Khronos glTF Blender I/O v5.1.19",
		"version":"2.0"
	},
	"extensionsUsed":[
		"KHR_materials_specular"
	],
	"scene":0,
	"scenes":[
		{
			"name":"Scene",
			"nodes":[
				0
			]
		}
	],
	"nodes":[
		{
			"mesh":0,
			"name":"volleyball",
			"rotation":[
				0.6728560328483582,
				-0.016640877351164818,
				-0.19100403785705566,
				0.7144965529441833
			],
			"scale":[
				1.4242205619812012,
				1.4242205619812012,
				1.4242205619812012
			],
			"translation":[
				0.007260873913764954,
				0.012241661548614502,
				-0.030894935131072998
			]
		}
	],
	"materials":[
		{
			"doubleSided":true,
			"extensions":{
				"KHR_materials_specular":{
					"specularFactor":0
				}
			},
			"name":"orig_normal",
			"pbrMetallicRoughness":{
				"baseColorTexture":{
					"index":0
				},
				"metallicFactor":0
			}
		}
	],
	"meshes":[
		{
			"name":"volleyball",
			"primitives":[
				{
					"attributes":{
						"POSITION":0,
						"NORMAL":1,
						"TEXCOORD_0":2
					},
					"indices":3,
					"material":0
				}
			]
		}
	],
	"textures":[
		{
			"sampler":0,
			"source":0
		}
	],
	"images":[
		{
			"mimeType":"image/jpeg",
			"name":"volleyball_diffuse_noAO",
			"uri":"volleyball_diffuse_noAO.jpg"
		}
	],
	"accessors":[
		{
			"bufferView":0,
			"componentType":5126,
			"count":66468,
			"max":[
				0.31779542565345764,
				0.31623250246047974,
				0.3169407844543457
			],
			"min":[
				-0.31787624955177307,
				-0.31626421213150024,
				-0.31700587272644043
			],
			"type":"VEC3"
		},
		{
			"bufferView":1,
			"componentType":5126,
			"count":66468,
			"type":"VEC3"
		},
		{
			"bufferView":2,
			"componentType":5126,
			"count":66468,
			"type":"VEC2"
		},
		{
			"bufferView":3,
			"componentType":5125,
			"count":99702,
			"type":"SCALAR"
		}
	],
	"bufferViews":[
		{
			"buffer":0,
			"byteLength":797616,
			"byteOffset":0,
			"target":34962
		},
		{
			"buffer":0,
			"byteLength":797616,
			"byteOffset":797616,
			"target":34962
		},
		{
			"buffer":0,
			"byteLength":531744,
			"byteOffset":1595232,
			"target":34962
		},
		{
			"buffer":0,
			"byteLength":398808,
			"byteOffset":2126976,
			"target":34963
		}
	],
	"samplers":[
		{
			"magFilter":9729,
			"minFilter":9987
		}
	],
	"buffers":[
		{
			"byteLength":2525784,
			"uri":"VolleyBall.bin"
		}
	]
}
