{
	"asset":{
		"generator":"Khronos glTF Blender I/O v5.1.19",
		"version":"2.0"
	},
	"scene":0,
	"scenes":[
		{
			"name":"Scene",
			"nodes":[
				0,
				1
			]
		}
	],
	"nodes":[
		{
			"mesh":0,
			"name":"COL",
			"scale":[
				-0.31657516956329346,
				-0.31657516956329346,
				-0.31657516956329346
			],
			"translation":[
				0.01168060302734375,
				0,
				-0.002576609840616584
			]
		},
		{
			"mesh":1,
			"name":"Solid.001",
			"scale":[
				0.9225705862045288,
				0.9225705862045288,
				0.9225705862045288
			]
		}
	],
	"materials":[
		{
			"doubleSided":true,
			"name":"dirty",
			"pbrMetallicRoughness":{
				"baseColorTexture":{
					"index":0
				},
				"metallicFactor":0,
				"roughnessFactor":0.5
			}
		}
	],
	"meshes":[
		{
			"name":"\u7acb\u65b9\u4f53",
			"primitives":[
				{
					"attributes":{
						"POSITION":0,
						"NORMAL":1,
						"TEXCOORD_0":2
					},
					"indices":3
				}
			]
		},
		{
			"name":"Solid.001",
			"primitives":[
				{
					"attributes":{
						"POSITION":4,
						"NORMAL":5,
						"TEXCOORD_0":6,
						"COLOR_0":7,
						"COLOR_1":8
					},
					"indices":9,
					"material":0
				}
			]
		}
	],
	"textures":[
		{
			"sampler":0,
			"source":0
		}
	],
	"images":[
		{
			"mimeType":"image/png",
			"name":"dirty",
			"uri":"dirty.png"
		}
	],
	"accessors":[
		{
			"bufferView":0,
			"componentType":5126,
			"count":24,
			"max":[
				1,
				1,
				1
			],
			"min":[
				-1,
				-1,
				-1
			],
			"type":"VEC3"
		},
		{
			"bufferView":1,
			"componentType":5126,
			"count":24,
			"type":"VEC3"
		},
		{
			"bufferView":2,
			"componentType":5126,
			"count":24,
			"type":"VEC2"
		},
		{
			"bufferView":3,
			"componentType":5123,
			"count":36,
			"type":"SCALAR"
		},
		{
			"bufferView":4,
			"componentType":5126,
			"count":26496,
			"max":[
				0.5284324288368225,
				0.5284324884414673,
				0.5284324288368225
			],
			"min":[
				-0.5284324884414673,
				-0.5284324288368225,
				-0.5284324288368225
			],
			"type":"VEC3"
		},
		{
			"bufferView":5,
			"componentType":5126,
			"count":26496,
			"type":"VEC3"
		},
		{
			"bufferView":6,
			"componentType":5126,
			"count":26496,
			"type":"VEC2"
		},
		{
			"bufferView":7,
			"componentType":5121,
			"count":26496,
			"normalized":true,
			"type":"VEC4"
		},
		{
			"bufferView":8,
			"componentType":5123,
			"count":26496,
			"normalized":true,
			"type":"VEC4"
		},
		{
			"bufferView":9,
			"componentType":5123,
			"count":97740,
			"type":"SCALAR"
		}
	],
	"bufferViews":[
		{
			"buffer":0,
			"byteLength":288,
			"byteOffset":0,
			"target":34962
		},
		{
			"buffer":0,
			"byteLength":288,
			"byteOffset":288,
			"target":34962
		},
		{
			"buffer":0,
			"byteLength":192,
			"byteOffset":576,
			"target":34962
		},
		{
			"buffer":0,
			"byteLength":72,
			"byteOffset":768,
			"target":34963
		},
		{
			"buffer":0,
			"byteLength":317952,
			"byteOffset":840,
			"target":34962
		},
		{
			"buffer":0,
			"byteLength":317952,
			"byteOffset":318792,
			"target":34962
		},
		{
			"buffer":0,
			"byteLength":211968,
			"byteOffset":636744,
			"target":34962
		},
		{
			"buffer":0,
			"byteLength":105984,
			"byteOffset":848712,
			"target":34962
		},
		{
			"buffer":0,
			"byteLength":211968,
			"byteOffset":954696,
			"target":34962
		},
		{
			"buffer":0,
			"byteLength":195480,
			"byteOffset":1166664,
			"target":34963
		}
	],
	"samplers":[
		{
			"magFilter":9729,
			"minFilter":9987
		}
	],
	"buffers":[
		{
			"byteLength":1362144,
			"uri":"DirtySoccerBall.bin"
		}
	]
}
