{
	"asset":{
		"generator":"Khronos glTF Blender I/O v5.1.19",
		"version":"2.0"
	},
	"scene":0,
	"scenes":[
		{
			"name":"Scene",
			"nodes":[
				0,
				1,
				2,
				3,
				4,
				5,
				6,
				7,
				8,
				9,
				10,
				11,
				12,
				13,
				14,
				15,
				16,
				17,
				18,
				19,
				20,
				21,
				22,
				23,
				24,
				25,
				26,
				27,
				28,
				29,
				30,
				31,
				32,
				33,
				34,
				35,
				36,
				37,
				38,
				39,
				40,
				41,
				42,
				43,
				44,
				45,
				46,
				47,
				48,
				49,
				50,
				51,
				52,
				53,
				54,
				55,
				56,
				57,
				58,
				59
			]
		}
	],
	"nodes":[
		{
			"mesh":0,
			"name":"Floor.001",
			"scale":[
				0.6739940643310547,
				0.6739940643310547,
				0.6739940643310547
			],
			"translation":[
				-52.8050537109375,
				0,
				-34.97284698486328
			]
		},
		{
			"mesh":1,
			"name":"Floor.002",
			"scale":[
				0.6739940643310547,
				0.6739940643310547,
				0.6739940643310547
			],
			"translation":[
				-52.8050537109375,
				0,
				-37.661224365234375
			]
		},
		{
			"mesh":2,
			"name":"Floor.003",
			"scale":[
				0.6739940643310547,
				0.6739940643310547,
				0.6739940643310547
			],
			"translation":[
				-52.8050537109375,
				0,
				-40.31770324707031
			]
		},
		{
			"mesh":3,
			"name":"Floor.004",
			"scale":[
				0.6739940643310547,
				0.6739940643310547,
				0.6739940643310547
			],
			"translation":[
				-52.8050537109375,
				0,
				-42.978538513183594
			]
		},
		{
			"mesh":4,
			"name":"Floor.005",
			"scale":[
				0.6739940643310547,
				0.6739940643310547,
				0.6739940643310547
			],
			"translation":[
				-52.8050537109375,
				0,
				-45.652225494384766
			]
		},
		{
			"mesh":5,
			"name":"Floor.007",
			"scale":[
				0.6739940643310547,
				0.6739940643310547,
				0.6739940643310547
			],
			"translation":[
				-52.8050537109375,
				0,
				-29.62950897216797
			]
		},
		{
			"mesh":6,
			"name":"Floor.008",
			"scale":[
				0.6739940643310547,
				0.6739940643310547,
				0.6739940643310547
			],
			"translation":[
				-52.8050537109375,
				0,
				-26.9372615814209
			]
		},
		{
			"mesh":7,
			"name":"Floor.009",
			"scale":[
				0.6739940643310547,
				0.6739940643310547,
				0.6739940643310547
			],
			"translation":[
				-52.8050537109375,
				0,
				-24.297155380249023
			]
		},
		{
			"mesh":8,
			"name":"Floor.010",
			"scale":[
				0.6739940643310547,
				0.6739940643310547,
				0.6739940643310547
			],
			"translation":[
				-52.8050537109375,
				0,
				-21.668466567993164
			]
		},
		{
			"mesh":9,
			"name":"Floor.011",
			"scale":[
				0.6739940643310547,
				0.6739940643310547,
				0.6739940643310547
			],
			"translation":[
				-52.8050537109375,
				0,
				-19.012939453125
			]
		},
		{
			"mesh":10,
			"name":"Floor.006",
			"scale":[
				0.6739940643310547,
				0.6739940643310547,
				0.6739940643310547
			],
			"translation":[
				-52.8050537109375,
				0,
				10.303586959838867
			]
		},
		{
			"mesh":11,
			"name":"Floor.012",
			"scale":[
				0.6739940643310547,
				0.6739940643310547,
				0.6739940643310547
			],
			"translation":[
				-52.8050537109375,
				0,
				7.648059844970703
			]
		},
		{
			"mesh":12,
			"name":"Floor.013",
			"scale":[
				0.6739940643310547,
				0.6739940643310547,
				0.6739940643310547
			],
			"translation":[
				-52.8050537109375,
				0,
				5.019371032714844
			]
		},
		{
			"mesh":13,
			"name":"Floor.014",
			"scale":[
				0.6739940643310547,
				0.6739940643310547,
				0.6739940643310547
			],
			"translation":[
				-52.8050537109375,
				0,
				2.3792648315429688
			]
		},
		{
			"mesh":14,
			"name":"Floor.015",
			"scale":[
				0.6739940643310547,
				0.6739940643310547,
				0.6739940643310547
			],
			"translation":[
				-52.8050537109375,
				0,
				-0.31298255920410156
			]
		},
		{
			"mesh":15,
			"name":"Floor.016",
			"scale":[
				0.6739940643310547,
				0.6739940643310547,
				0.6739940643310547
			],
			"translation":[
				-52.8050537109375,
				0,
				-16.3356990814209
			]
		},
		{
			"mesh":16,
			"name":"Floor.017",
			"scale":[
				0.6739940643310547,
				0.6739940643310547,
				0.6739940643310547
			],
			"translation":[
				-52.8050537109375,
				0,
				-13.662012100219727
			]
		},
		{
			"mesh":17,
			"name":"Floor.018",
			"scale":[
				0.6739940643310547,
				0.6739940643310547,
				0.6739940643310547
			],
			"translation":[
				-52.8050537109375,
				0,
				-11.001176834106445
			]
		},
		{
			"mesh":18,
			"name":"Floor.019",
			"scale":[
				0.6739940643310547,
				0.6739940643310547,
				0.6739940643310547
			],
			"translation":[
				-52.8050537109375,
				0,
				-8.344697952270508
			]
		},
		{
			"mesh":19,
			"name":"Floor.020",
			"scale":[
				0.6739940643310547,
				0.6739940643310547,
				0.6739940643310547
			],
			"translation":[
				-52.8050537109375,
				0,
				-5.656320571899414
			]
		},
		{
			"mesh":20,
			"name":"Floor.021",
			"scale":[
				0.6739940643310547,
				0.6739940643310547,
				0.6739940643310547
			],
			"translation":[
				-52.8050537109375,
				0,
				-2.971677780151367
			]
		},
		{
			"mesh":21,
			"name":"Floor.022",
			"scale":[
				0.6739940643310547,
				0.6739940643310547,
				0.6739940643310547
			],
			"translation":[
				-52.8050537109375,
				0,
				18.362163543701172
			]
		},
		{
			"mesh":22,
			"name":"Floor.023",
			"scale":[
				0.6739940643310547,
				0.6739940643310547,
				0.6739940643310547
			],
			"translation":[
				-52.8050537109375,
				0,
				15.677520751953125
			]
		},
		{
			"mesh":23,
			"name":"Floor.024",
			"scale":[
				0.6739940643310547,
				0.6739940643310547,
				0.6739940643310547
			],
			"translation":[
				-52.8050537109375,
				0,
				12.989143371582031
			]
		},
		{
			"mesh":24,
			"name":"Floor.025",
			"scale":[
				0.6739940643310547,
				0.6739940643310547,
				0.6739940643310547
			],
			"translation":[
				-52.8050537109375,
				0,
				21.020858764648438
			]
		},
		{
			"mesh":25,
			"name":"Floor.026",
			"scale":[
				0.6739940643310547,
				0.6739940643310547,
				0.6739940643310547
			],
			"translation":[
				-52.8050537109375,
				0,
				23.713106155395508
			]
		},
		{
			"mesh":26,
			"name":"Floor.027",
			"scale":[
				0.6739940643310547,
				0.6739940643310547,
				0.6739940643310547
			],
			"translation":[
				-52.8050537109375,
				0,
				26.353212356567383
			]
		},
		{
			"mesh":27,
			"name":"Floor.028",
			"scale":[
				0.6739940643310547,
				0.6739940643310547,
				0.6739940643310547
			],
			"translation":[
				-52.8050537109375,
				0,
				28.981901168823242
			]
		},
		{
			"mesh":28,
			"name":"Floor.029",
			"scale":[
				0.6739940643310547,
				0.6739940643310547,
				0.6739940643310547
			],
			"translation":[
				-52.8050537109375,
				0,
				31.637428283691406
			]
		},
		{
			"mesh":29,
			"name":"Floor.030",
			"scale":[
				0.6739940643310547,
				0.6739940643310547,
				0.6739940643310547
			],
			"translation":[
				1.0658726692199707,
				0,
				31.637428283691406
			]
		},
		{
			"mesh":30,
			"name":"Floor.031",
			"scale":[
				0.6739940643310547,
				0.6739940643310547,
				0.6739940643310547
			],
			"translation":[
				1.0658726692199707,
				0,
				28.981901168823242
			]
		},
		{
			"mesh":31,
			"name":"Floor.032",
			"scale":[
				0.6739940643310547,
				0.6739940643310547,
				0.6739940643310547
			],
			"translation":[
				1.0658726692199707,
				0,
				26.353212356567383
			]
		},
		{
			"mesh":32,
			"name":"Floor.033",
			"scale":[
				0.6739940643310547,
				0.6739940643310547,
				0.6739940643310547
			],
			"translation":[
				1.0658726692199707,
				0,
				23.713106155395508
			]
		},
		{
			"mesh":33,
			"name":"Floor.034",
			"scale":[
				0.6739940643310547,
				0.6739940643310547,
				0.6739940643310547
			],
			"translation":[
				1.0658726692199707,
				0,
				21.020858764648438
			]
		},
		{
			"mesh":34,
			"name":"Floor.035",
			"scale":[
				0.6739940643310547,
				0.6739940643310547,
				0.6739940643310547
			],
			"translation":[
				1.0658726692199707,
				0,
				12.989143371582031
			]
		},
		{
			"mesh":35,
			"name":"Floor.036",
			"scale":[
				0.6739940643310547,
				0.6739940643310547,
				0.6739940643310547
			],
			"translation":[
				1.0658726692199707,
				0,
				15.677520751953125
			]
		},
		{
			"mesh":36,
			"name":"Floor.037",
			"scale":[
				0.6739940643310547,
				0.6739940643310547,
				0.6739940643310547
			],
			"translation":[
				1.0658726692199707,
				0,
				18.362163543701172
			]
		},
		{
			"mesh":37,
			"name":"Floor.038",
			"scale":[
				0.6739940643310547,
				0.6739940643310547,
				0.6739940643310547
			],
			"translation":[
				1.0658726692199707,
				0,
				-2.971677780151367
			]
		},
		{
			"mesh":38,
			"name":"Floor.039",
			"scale":[
				0.6739940643310547,
				0.6739940643310547,
				0.6739940643310547
			],
			"translation":[
				1.0658726692199707,
				0,
				-5.656320571899414
			]
		},
		{
			"mesh":39,
			"name":"Floor.040",
			"scale":[
				0.6739940643310547,
				0.6739940643310547,
				0.6739940643310547
			],
			"translation":[
				1.0658726692199707,
				0,
				-8.344697952270508
			]
		},
		{
			"mesh":40,
			"name":"Floor.041",
			"scale":[
				0.6739940643310547,
				0.6739940643310547,
				0.6739940643310547
			],
			"translation":[
				1.0658726692199707,
				0,
				-11.001176834106445
			]
		},
		{
			"mesh":41,
			"name":"Floor.042",
			"scale":[
				0.6739940643310547,
				0.6739940643310547,
				0.6739940643310547
			],
			"translation":[
				1.0658726692199707,
				0,
				-13.662012100219727
			]
		},
		{
			"mesh":42,
			"name":"Floor.043",
			"scale":[
				0.6739940643310547,
				0.6739940643310547,
				0.6739940643310547
			],
			"translation":[
				1.0658726692199707,
				0,
				-16.3356990814209
			]
		},
		{
			"mesh":43,
			"name":"Floor.044",
			"scale":[
				0.6739940643310547,
				0.6739940643310547,
				0.6739940643310547
			],
			"translation":[
				1.0658726692199707,
				0,
				-0.31298255920410156
			]
		},
		{
			"mesh":44,
			"name":"Floor.045",
			"scale":[
				0.6739940643310547,
				0.6739940643310547,
				0.6739940643310547
			],
			"translation":[
				1.0658726692199707,
				0,
				2.3792648315429688
			]
		},
		{
			"mesh":45,
			"name":"Floor.046",
			"scale":[
				0.6739940643310547,
				0.6739940643310547,
				0.6739940643310547
			],
			"translation":[
				1.0658726692199707,
				0,
				5.019371032714844
			]
		},
		{
			"mesh":46,
			"name":"Floor.047",
			"scale":[
				0.6739940643310547,
				0.6739940643310547,
				0.6739940643310547
			],
			"translation":[
				1.0658726692199707,
				0,
				7.648059844970703
			]
		},
		{
			"mesh":47,
			"name":"Floor.048",
			"scale":[
				0.6739940643310547,
				0.6739940643310547,
				0.6739940643310547
			],
			"translation":[
				1.0658726692199707,
				0,
				-19.012939453125
			]
		},
		{
			"mesh":48,
			"name":"Floor.049",
			"scale":[
				0.6739940643310547,
				0.6739940643310547,
				0.6739940643310547
			],
			"translation":[
				1.0658726692199707,
				0,
				-21.668466567993164
			]
		},
		{
			"mesh":49,
			"name":"Floor.050",
			"scale":[
				0.6739940643310547,
				0.6739940643310547,
				0.6739940643310547
			],
			"translation":[
				1.0658726692199707,
				0,
				-24.297155380249023
			]
		},
		{
			"mesh":50,
			"name":"Floor.051",
			"scale":[
				0.6739940643310547,
				0.6739940643310547,
				0.6739940643310547
			],
			"translation":[
				1.0658726692199707,
				0,
				-26.9372615814209
			]
		},
		{
			"mesh":51,
			"name":"Floor.052",
			"scale":[
				0.6739940643310547,
				0.6739940643310547,
				0.6739940643310547
			],
			"translation":[
				1.0658726692199707,
				0,
				-29.62950897216797
			]
		},
		{
			"mesh":52,
			"name":"Floor.053",
			"scale":[
				0.6739940643310547,
				0.6739940643310547,
				0.6739940643310547
			],
			"translation":[
				1.0658726692199707,
				0,
				10.303586959838867
			]
		},
		{
			"mesh":53,
			"name":"Floor.054",
			"scale":[
				0.6739940643310547,
				0.6739940643310547,
				0.6739940643310547
			],
			"translation":[
				1.0658726692199707,
				0,
				-45.652225494384766
			]
		},
		{
			"mesh":54,
			"name":"Floor.055",
			"scale":[
				0.6739940643310547,
				0.6739940643310547,
				0.6739940643310547
			],
			"translation":[
				1.0658726692199707,
				0,
				-42.978538513183594
			]
		},
		{
			"mesh":55,
			"name":"Floor.056",
			"scale":[
				0.6739940643310547,
				0.6739940643310547,
				0.6739940643310547
			],
			"translation":[
				1.0658726692199707,
				0,
				-40.31770324707031
			]
		},
		{
			"mesh":56,
			"name":"Floor.057",
			"scale":[
				0.6739940643310547,
				0.6739940643310547,
				0.6739940643310547
			],
			"translation":[
				1.0658726692199707,
				0,
				-37.661224365234375
			]
		},
		{
			"mesh":57,
			"name":"Floor.058",
			"scale":[
				0.6739940643310547,
				0.6739940643310547,
				0.6739940643310547
			],
			"translation":[
				1.0658726692199707,
				0,
				-34.97284698486328
			]
		},
		{
			"mesh":58,
			"name":"Floor.059",
			"scale":[
				0.6739940643310547,
				0.6739940643310547,
				0.6739940643310547
			],
			"translation":[
				1.0658726692199707,
				0,
				-32.288204193115234
			]
		},
		{
			"mesh":59,
			"name":"Floor",
			"scale":[
				0.6739940643310547,
				0.6739940643310547,
				0.6739940643310547
			],
			"translation":[
				-52.8050537109375,
				0,
				-32.288204193115234
			]
		}
	],
	"materials":[
		{
			"doubleSided":true,
			"name":"\u30de\u30c6\u30ea\u30a2\u30eb.001",
			"pbrMetallicRoughness":{
				"baseColorTexture":{
					"index":0
				},
				"metallicFactor":0,
				"roughnessFactor":0.5
			}
		},
		{
			"doubleSided":true,
			"name":"\u30de\u30c6\u30ea\u30a2\u30eb.002",
			"pbrMetallicRoughness":{
				"baseColorTexture":{
					"index":1
				},
				"metallicFactor":0,
				"roughnessFactor":0.5
			}
		},
		{
			"doubleSided":true,
			"name":"\u30de\u30c6\u30ea\u30a2\u30eb.003",
			"pbrMetallicRoughness":{
				"baseColorTexture":{
					"index":2
				},
				"metallicFactor":0,
				"roughnessFactor":0.5
			}
		},
		{
			"doubleSided":true,
			"name":"\u30de\u30c6\u30ea\u30a2\u30eb.004",
			"pbrMetallicRoughness":{
				"baseColorTexture":{
					"index":3
				},
				"metallicFactor":0,
				"roughnessFactor":0.5
			}
		},
		{
			"doubleSided":true,
			"name":"\u30de\u30c6\u30ea\u30a2\u30eb.005",
			"pbrMetallicRoughness":{
				"baseColorTexture":{
					"index":4
				},
				"metallicFactor":0,
				"roughnessFactor":0.5
			}
		},
		{
			"doubleSided":true,
			"name":"\u30de\u30c6\u30ea\u30a2\u30eb.007",
			"pbrMetallicRoughness":{
				"baseColorTexture":{
					"index":5
				},
				"metallicFactor":0,
				"roughnessFactor":0.5
			}
		},
		{
			"doubleSided":true,
			"name":"\u30de\u30c6\u30ea\u30a2\u30eb.008",
			"pbrMetallicRoughness":{
				"baseColorTexture":{
					"index":6
				},
				"metallicFactor":0,
				"roughnessFactor":0.5
			}
		},
		{
			"doubleSided":true,
			"name":"\u30de\u30c6\u30ea\u30a2\u30eb.009",
			"pbrMetallicRoughness":{
				"baseColorTexture":{
					"index":7
				},
				"metallicFactor":0,
				"roughnessFactor":0.5
			}
		},
		{
			"doubleSided":true,
			"name":"\u30de\u30c6\u30ea\u30a2\u30eb.010",
			"pbrMetallicRoughness":{
				"baseColorTexture":{
					"index":8
				},
				"metallicFactor":0,
				"roughnessFactor":0.5
			}
		},
		{
			"doubleSided":true,
			"name":"\u30de\u30c6\u30ea\u30a2\u30eb.011",
			"pbrMetallicRoughness":{
				"baseColorTexture":{
					"index":9
				},
				"metallicFactor":0,
				"roughnessFactor":0.5
			}
		},
		{
			"doubleSided":true,
			"name":"\u30de\u30c6\u30ea\u30a2\u30eb.006",
			"pbrMetallicRoughness":{
				"baseColorTexture":{
					"index":10
				},
				"metallicFactor":0,
				"roughnessFactor":0.5
			}
		},
		{
			"doubleSided":true,
			"name":"\u30de\u30c6\u30ea\u30a2\u30eb.012",
			"pbrMetallicRoughness":{
				"baseColorTexture":{
					"index":11
				},
				"metallicFactor":0,
				"roughnessFactor":0.5
			}
		},
		{
			"doubleSided":true,
			"name":"\u30de\u30c6\u30ea\u30a2\u30eb.013",
			"pbrMetallicRoughness":{
				"baseColorTexture":{
					"index":12
				},
				"metallicFactor":0,
				"roughnessFactor":0.5
			}
		},
		{
			"doubleSided":true,
			"name":"\u30de\u30c6\u30ea\u30a2\u30eb.014",
			"pbrMetallicRoughness":{
				"baseColorTexture":{
					"index":13
				},
				"metallicFactor":0,
				"roughnessFactor":0.5
			}
		},
		{
			"doubleSided":true,
			"name":"\u30de\u30c6\u30ea\u30a2\u30eb.015",
			"pbrMetallicRoughness":{
				"baseColorTexture":{
					"index":14
				},
				"metallicFactor":0,
				"roughnessFactor":0.5
			}
		},
		{
			"doubleSided":true,
			"name":"\u30de\u30c6\u30ea\u30a2\u30eb.016",
			"pbrMetallicRoughness":{
				"baseColorTexture":{
					"index":15
				},
				"metallicFactor":0,
				"roughnessFactor":0.5
			}
		},
		{
			"doubleSided":true,
			"name":"\u30de\u30c6\u30ea\u30a2\u30eb.017",
			"pbrMetallicRoughness":{
				"baseColorTexture":{
					"index":16
				},
				"metallicFactor":0,
				"roughnessFactor":0.5
			}
		},
		{
			"doubleSided":true,
			"name":"\u30de\u30c6\u30ea\u30a2\u30eb.018",
			"pbrMetallicRoughness":{
				"baseColorTexture":{
					"index":17
				},
				"metallicFactor":0,
				"roughnessFactor":0.5
			}
		},
		{
			"doubleSided":true,
			"name":"\u30de\u30c6\u30ea\u30a2\u30eb.019",
			"pbrMetallicRoughness":{
				"baseColorTexture":{
					"index":18
				},
				"metallicFactor":0,
				"roughnessFactor":0.5
			}
		},
		{
			"doubleSided":true,
			"name":"\u30de\u30c6\u30ea\u30a2\u30eb.020",
			"pbrMetallicRoughness":{
				"baseColorTexture":{
					"index":19
				},
				"metallicFactor":0,
				"roughnessFactor":0.5
			}
		},
		{
			"doubleSided":true,
			"name":"\u30de\u30c6\u30ea\u30a2\u30eb.021",
			"pbrMetallicRoughness":{
				"baseColorTexture":{
					"index":20
				},
				"metallicFactor":0,
				"roughnessFactor":0.5
			}
		},
		{
			"doubleSided":true,
			"name":"\u30de\u30c6\u30ea\u30a2\u30eb.022",
			"pbrMetallicRoughness":{
				"baseColorTexture":{
					"index":21
				},
				"metallicFactor":0,
				"roughnessFactor":0.5
			}
		},
		{
			"doubleSided":true,
			"name":"\u30de\u30c6\u30ea\u30a2\u30eb.023",
			"pbrMetallicRoughness":{
				"baseColorTexture":{
					"index":22
				},
				"metallicFactor":0,
				"roughnessFactor":0.5
			}
		},
		{
			"doubleSided":true,
			"name":"\u30de\u30c6\u30ea\u30a2\u30eb.024",
			"pbrMetallicRoughness":{
				"baseColorTexture":{
					"index":23
				},
				"metallicFactor":0,
				"roughnessFactor":0.5
			}
		},
		{
			"doubleSided":true,
			"name":"\u30de\u30c6\u30ea\u30a2\u30eb.025",
			"pbrMetallicRoughness":{
				"baseColorTexture":{
					"index":24
				},
				"metallicFactor":0,
				"roughnessFactor":0.5
			}
		},
		{
			"doubleSided":true,
			"name":"\u30de\u30c6\u30ea\u30a2\u30eb.026",
			"pbrMetallicRoughness":{
				"baseColorTexture":{
					"index":25
				},
				"metallicFactor":0,
				"roughnessFactor":0.5
			}
		},
		{
			"doubleSided":true,
			"name":"\u30de\u30c6\u30ea\u30a2\u30eb.027",
			"pbrMetallicRoughness":{
				"baseColorTexture":{
					"index":26
				},
				"metallicFactor":0,
				"roughnessFactor":0.5
			}
		},
		{
			"doubleSided":true,
			"name":"\u30de\u30c6\u30ea\u30a2\u30eb.028",
			"pbrMetallicRoughness":{
				"baseColorTexture":{
					"index":27
				},
				"metallicFactor":0,
				"roughnessFactor":0.5
			}
		},
		{
			"doubleSided":true,
			"name":"\u30de\u30c6\u30ea\u30a2\u30eb.029",
			"pbrMetallicRoughness":{
				"baseColorTexture":{
					"index":28
				},
				"metallicFactor":0,
				"roughnessFactor":0.5
			}
		},
		{
			"doubleSided":true,
			"name":"\u30de\u30c6\u30ea\u30a2\u30eb.030",
			"pbrMetallicRoughness":{
				"baseColorTexture":{
					"index":29
				},
				"metallicFactor":0,
				"roughnessFactor":0.5
			}
		},
		{
			"doubleSided":true,
			"name":"\u30de\u30c6\u30ea\u30a2\u30eb.031",
			"pbrMetallicRoughness":{
				"baseColorTexture":{
					"index":30
				},
				"metallicFactor":0,
				"roughnessFactor":0.5
			}
		},
		{
			"doubleSided":true,
			"name":"\u30de\u30c6\u30ea\u30a2\u30eb.032",
			"pbrMetallicRoughness":{
				"baseColorTexture":{
					"index":31
				},
				"metallicFactor":0,
				"roughnessFactor":0.5
			}
		},
		{
			"doubleSided":true,
			"name":"\u30de\u30c6\u30ea\u30a2\u30eb.033",
			"pbrMetallicRoughness":{
				"baseColorTexture":{
					"index":32
				},
				"metallicFactor":0,
				"roughnessFactor":0.5
			}
		},
		{
			"doubleSided":true,
			"name":"\u30de\u30c6\u30ea\u30a2\u30eb.034",
			"pbrMetallicRoughness":{
				"baseColorTexture":{
					"index":33
				},
				"metallicFactor":0,
				"roughnessFactor":0.5
			}
		},
		{
			"doubleSided":true,
			"name":"\u30de\u30c6\u30ea\u30a2\u30eb.035",
			"pbrMetallicRoughness":{
				"baseColorTexture":{
					"index":34
				},
				"metallicFactor":0,
				"roughnessFactor":0.5
			}
		},
		{
			"doubleSided":true,
			"name":"\u30de\u30c6\u30ea\u30a2\u30eb.036",
			"pbrMetallicRoughness":{
				"baseColorTexture":{
					"index":35
				},
				"metallicFactor":0,
				"roughnessFactor":0.5
			}
		},
		{
			"doubleSided":true,
			"name":"\u30de\u30c6\u30ea\u30a2\u30eb.037",
			"pbrMetallicRoughness":{
				"baseColorTexture":{
					"index":36
				},
				"metallicFactor":0,
				"roughnessFactor":0.5
			}
		},
		{
			"doubleSided":true,
			"name":"\u30de\u30c6\u30ea\u30a2\u30eb.038",
			"pbrMetallicRoughness":{
				"baseColorTexture":{
					"index":37
				},
				"metallicFactor":0,
				"roughnessFactor":0.5
			}
		},
		{
			"doubleSided":true,
			"name":"\u30de\u30c6\u30ea\u30a2\u30eb.039",
			"pbrMetallicRoughness":{
				"baseColorTexture":{
					"index":38
				},
				"metallicFactor":0,
				"roughnessFactor":0.5
			}
		},
		{
			"doubleSided":true,
			"name":"\u30de\u30c6\u30ea\u30a2\u30eb.040",
			"pbrMetallicRoughness":{
				"baseColorTexture":{
					"index":39
				},
				"metallicFactor":0,
				"roughnessFactor":0.5
			}
		},
		{
			"doubleSided":true,
			"name":"\u30de\u30c6\u30ea\u30a2\u30eb.041",
			"pbrMetallicRoughness":{
				"baseColorTexture":{
					"index":40
				},
				"metallicFactor":0,
				"roughnessFactor":0.5
			}
		},
		{
			"doubleSided":true,
			"name":"\u30de\u30c6\u30ea\u30a2\u30eb.042",
			"pbrMetallicRoughness":{
				"baseColorTexture":{
					"index":41
				},
				"metallicFactor":0,
				"roughnessFactor":0.5
			}
		},
		{
			"doubleSided":true,
			"name":"\u30de\u30c6\u30ea\u30a2\u30eb.043",
			"pbrMetallicRoughness":{
				"baseColorTexture":{
					"index":42
				},
				"metallicFactor":0,
				"roughnessFactor":0.5
			}
		},
		{
			"doubleSided":true,
			"name":"\u30de\u30c6\u30ea\u30a2\u30eb.044",
			"pbrMetallicRoughness":{
				"baseColorTexture":{
					"index":43
				},
				"metallicFactor":0,
				"roughnessFactor":0.5
			}
		},
		{
			"doubleSided":true,
			"name":"\u30de\u30c6\u30ea\u30a2\u30eb.045",
			"pbrMetallicRoughness":{
				"baseColorTexture":{
					"index":44
				},
				"metallicFactor":0,
				"roughnessFactor":0.5
			}
		},
		{
			"doubleSided":true,
			"name":"\u30de\u30c6\u30ea\u30a2\u30eb.046",
			"pbrMetallicRoughness":{
				"baseColorTexture":{
					"index":45
				},
				"metallicFactor":0,
				"roughnessFactor":0.5
			}
		},
		{
			"doubleSided":true,
			"name":"\u30de\u30c6\u30ea\u30a2\u30eb.047",
			"pbrMetallicRoughness":{
				"baseColorTexture":{
					"index":46
				},
				"metallicFactor":0,
				"roughnessFactor":0.5
			}
		},
		{
			"doubleSided":true,
			"name":"\u30de\u30c6\u30ea\u30a2\u30eb.048",
			"pbrMetallicRoughness":{
				"baseColorTexture":{
					"index":47
				},
				"metallicFactor":0,
				"roughnessFactor":0.5
			}
		},
		{
			"doubleSided":true,
			"name":"\u30de\u30c6\u30ea\u30a2\u30eb.049",
			"pbrMetallicRoughness":{
				"baseColorTexture":{
					"index":48
				},
				"metallicFactor":0,
				"roughnessFactor":0.5
			}
		},
		{
			"doubleSided":true,
			"name":"\u30de\u30c6\u30ea\u30a2\u30eb.050",
			"pbrMetallicRoughness":{
				"baseColorTexture":{
					"index":49
				},
				"metallicFactor":0,
				"roughnessFactor":0.5
			}
		},
		{
			"doubleSided":true,
			"name":"\u30de\u30c6\u30ea\u30a2\u30eb.051",
			"pbrMetallicRoughness":{
				"baseColorTexture":{
					"index":50
				},
				"metallicFactor":0,
				"roughnessFactor":0.5
			}
		},
		{
			"doubleSided":true,
			"name":"\u30de\u30c6\u30ea\u30a2\u30eb.052",
			"pbrMetallicRoughness":{
				"baseColorTexture":{
					"index":51
				},
				"metallicFactor":0,
				"roughnessFactor":0.5
			}
		},
		{
			"doubleSided":true,
			"name":"\u30de\u30c6\u30ea\u30a2\u30eb.053",
			"pbrMetallicRoughness":{
				"baseColorTexture":{
					"index":52
				},
				"metallicFactor":0,
				"roughnessFactor":0.5
			}
		},
		{
			"doubleSided":true,
			"name":"\u30de\u30c6\u30ea\u30a2\u30eb.054",
			"pbrMetallicRoughness":{
				"baseColorTexture":{
					"index":53
				},
				"metallicFactor":0,
				"roughnessFactor":0.5
			}
		},
		{
			"doubleSided":true,
			"name":"\u30de\u30c6\u30ea\u30a2\u30eb.055",
			"pbrMetallicRoughness":{
				"baseColorTexture":{
					"index":54
				},
				"metallicFactor":0,
				"roughnessFactor":0.5
			}
		},
		{
			"doubleSided":true,
			"name":"\u30de\u30c6\u30ea\u30a2\u30eb.056",
			"pbrMetallicRoughness":{
				"baseColorTexture":{
					"index":55
				},
				"metallicFactor":0,
				"roughnessFactor":0.5
			}
		},
		{
			"doubleSided":true,
			"name":"\u30de\u30c6\u30ea\u30a2\u30eb.057",
			"pbrMetallicRoughness":{
				"baseColorTexture":{
					"index":56
				},
				"metallicFactor":0,
				"roughnessFactor":0.5
			}
		},
		{
			"doubleSided":true,
			"name":"\u30de\u30c6\u30ea\u30a2\u30eb.058",
			"pbrMetallicRoughness":{
				"baseColorTexture":{
					"index":57
				},
				"metallicFactor":0,
				"roughnessFactor":0.5
			}
		},
		{
			"doubleSided":true,
			"name":"\u30de\u30c6\u30ea\u30a2\u30eb.059",
			"pbrMetallicRoughness":{
				"baseColorTexture":{
					"index":58
				},
				"metallicFactor":0,
				"roughnessFactor":0.5
			}
		},
		{
			"doubleSided":true,
			"name":"\u30de\u30c6\u30ea\u30a2\u30eb",
			"pbrMetallicRoughness":{
				"baseColorTexture":{
					"index":59
				},
				"metallicFactor":0,
				"roughnessFactor":0.5
			}
		}
	],
	"meshes":[
		{
			"name":"Plane.008",
			"primitives":[
				{
					"attributes":{
						"POSITION":0,
						"NORMAL":1,
						"TEXCOORD_0":2
					},
					"indices":3,
					"material":0
				}
			]
		},
		{
			"name":"Plane.009",
			"primitives":[
				{
					"attributes":{
						"POSITION":4,
						"NORMAL":5,
						"TEXCOORD_0":6
					},
					"indices":3,
					"material":1
				}
			]
		},
		{
			"name":"Plane.010",
			"primitives":[
				{
					"attributes":{
						"POSITION":7,
						"NORMAL":8,
						"TEXCOORD_0":9
					},
					"indices":3,
					"material":2
				}
			]
		},
		{
			"name":"Plane.011",
			"primitives":[
				{
					"attributes":{
						"POSITION":10,
						"NORMAL":11,
						"TEXCOORD_0":12
					},
					"indices":3,
					"material":3
				}
			]
		},
		{
			"name":"Plane.012",
			"primitives":[
				{
					"attributes":{
						"POSITION":13,
						"NORMAL":14,
						"TEXCOORD_0":15
					},
					"indices":3,
					"material":4
				}
			]
		},
		{
			"name":"Plane.014",
			"primitives":[
				{
					"attributes":{
						"POSITION":16,
						"NORMAL":17,
						"TEXCOORD_0":18
					},
					"indices":3,
					"material":5
				}
			]
		},
		{
			"name":"Plane.015",
			"primitives":[
				{
					"attributes":{
						"POSITION":19,
						"NORMAL":20,
						"TEXCOORD_0":21
					},
					"indices":3,
					"material":6
				}
			]
		},
		{
			"name":"Plane.016",
			"primitives":[
				{
					"attributes":{
						"POSITION":22,
						"NORMAL":23,
						"TEXCOORD_0":24
					},
					"indices":3,
					"material":7
				}
			]
		},
		{
			"name":"Plane.017",
			"primitives":[
				{
					"attributes":{
						"POSITION":25,
						"NORMAL":26,
						"TEXCOORD_0":27
					},
					"indices":3,
					"material":8
				}
			]
		},
		{
			"name":"Plane.018",
			"primitives":[
				{
					"attributes":{
						"POSITION":28,
						"NORMAL":29,
						"TEXCOORD_0":30
					},
					"indices":3,
					"material":9
				}
			]
		},
		{
			"name":"Plane.001",
			"primitives":[
				{
					"attributes":{
						"POSITION":31,
						"NORMAL":32,
						"TEXCOORD_0":33
					},
					"indices":3,
					"material":10
				}
			]
		},
		{
			"name":"Plane.002",
			"primitives":[
				{
					"attributes":{
						"POSITION":34,
						"NORMAL":35,
						"TEXCOORD_0":36
					},
					"indices":3,
					"material":11
				}
			]
		},
		{
			"name":"Plane.003",
			"primitives":[
				{
					"attributes":{
						"POSITION":37,
						"NORMAL":38,
						"TEXCOORD_0":39
					},
					"indices":3,
					"material":12
				}
			]
		},
		{
			"name":"Plane.004",
			"primitives":[
				{
					"attributes":{
						"POSITION":40,
						"NORMAL":41,
						"TEXCOORD_0":42
					},
					"indices":3,
					"material":13
				}
			]
		},
		{
			"name":"Plane.005",
			"primitives":[
				{
					"attributes":{
						"POSITION":43,
						"NORMAL":44,
						"TEXCOORD_0":45
					},
					"indices":3,
					"material":14
				}
			]
		},
		{
			"name":"Plane.006",
			"primitives":[
				{
					"attributes":{
						"POSITION":46,
						"NORMAL":47,
						"TEXCOORD_0":48
					},
					"indices":3,
					"material":15
				}
			]
		},
		{
			"name":"Plane.007",
			"primitives":[
				{
					"attributes":{
						"POSITION":49,
						"NORMAL":50,
						"TEXCOORD_0":51
					},
					"indices":3,
					"material":16
				}
			]
		},
		{
			"name":"Plane.013",
			"primitives":[
				{
					"attributes":{
						"POSITION":52,
						"NORMAL":53,
						"TEXCOORD_0":54
					},
					"indices":3,
					"material":17
				}
			]
		},
		{
			"name":"Plane.019",
			"primitives":[
				{
					"attributes":{
						"POSITION":55,
						"NORMAL":56,
						"TEXCOORD_0":57
					},
					"indices":3,
					"material":18
				}
			]
		},
		{
			"name":"Plane.020",
			"primitives":[
				{
					"attributes":{
						"POSITION":58,
						"NORMAL":59,
						"TEXCOORD_0":60
					},
					"indices":3,
					"material":19
				}
			]
		},
		{
			"name":"Plane.021",
			"primitives":[
				{
					"attributes":{
						"POSITION":61,
						"NORMAL":62,
						"TEXCOORD_0":63
					},
					"indices":3,
					"material":20
				}
			]
		},
		{
			"name":"Plane.022",
			"primitives":[
				{
					"attributes":{
						"POSITION":64,
						"NORMAL":65,
						"TEXCOORD_0":66
					},
					"indices":3,
					"material":21
				}
			]
		},
		{
			"name":"Plane.023",
			"primitives":[
				{
					"attributes":{
						"POSITION":67,
						"NORMAL":68,
						"TEXCOORD_0":69
					},
					"indices":3,
					"material":22
				}
			]
		},
		{
			"name":"Plane.024",
			"primitives":[
				{
					"attributes":{
						"POSITION":70,
						"NORMAL":71,
						"TEXCOORD_0":72
					},
					"indices":3,
					"material":23
				}
			]
		},
		{
			"name":"Plane.025",
			"primitives":[
				{
					"attributes":{
						"POSITION":73,
						"NORMAL":74,
						"TEXCOORD_0":75
					},
					"indices":3,
					"material":24
				}
			]
		},
		{
			"name":"Plane.026",
			"primitives":[
				{
					"attributes":{
						"POSITION":76,
						"NORMAL":77,
						"TEXCOORD_0":78
					},
					"indices":3,
					"material":25
				}
			]
		},
		{
			"name":"Plane.027",
			"primitives":[
				{
					"attributes":{
						"POSITION":79,
						"NORMAL":80,
						"TEXCOORD_0":81
					},
					"indices":3,
					"material":26
				}
			]
		},
		{
			"name":"Plane.028",
			"primitives":[
				{
					"attributes":{
						"POSITION":82,
						"NORMAL":83,
						"TEXCOORD_0":84
					},
					"indices":3,
					"material":27
				}
			]
		},
		{
			"name":"Plane.029",
			"primitives":[
				{
					"attributes":{
						"POSITION":85,
						"NORMAL":86,
						"TEXCOORD_0":87
					},
					"indices":3,
					"material":28
				}
			]
		},
		{
			"name":"Plane.030",
			"primitives":[
				{
					"attributes":{
						"POSITION":88,
						"NORMAL":89,
						"TEXCOORD_0":90
					},
					"indices":3,
					"material":29
				}
			]
		},
		{
			"name":"Plane.031",
			"primitives":[
				{
					"attributes":{
						"POSITION":91,
						"NORMAL":92,
						"TEXCOORD_0":93
					},
					"indices":3,
					"material":30
				}
			]
		},
		{
			"name":"Plane.032",
			"primitives":[
				{
					"attributes":{
						"POSITION":94,
						"NORMAL":95,
						"TEXCOORD_0":96
					},
					"indices":3,
					"material":31
				}
			]
		},
		{
			"name":"Plane.033",
			"primitives":[
				{
					"attributes":{
						"POSITION":97,
						"NORMAL":98,
						"TEXCOORD_0":99
					},
					"indices":3,
					"material":32
				}
			]
		},
		{
			"name":"Plane.034",
			"primitives":[
				{
					"attributes":{
						"POSITION":100,
						"NORMAL":101,
						"TEXCOORD_0":102
					},
					"indices":3,
					"material":33
				}
			]
		},
		{
			"name":"Plane.035",
			"primitives":[
				{
					"attributes":{
						"POSITION":103,
						"NORMAL":104,
						"TEXCOORD_0":105
					},
					"indices":3,
					"material":34
				}
			]
		},
		{
			"name":"Plane.036",
			"primitives":[
				{
					"attributes":{
						"POSITION":106,
						"NORMAL":107,
						"TEXCOORD_0":108
					},
					"indices":3,
					"material":35
				}
			]
		},
		{
			"name":"Plane.037",
			"primitives":[
				{
					"attributes":{
						"POSITION":109,
						"NORMAL":110,
						"TEXCOORD_0":111
					},
					"indices":3,
					"material":36
				}
			]
		},
		{
			"name":"Plane.038",
			"primitives":[
				{
					"attributes":{
						"POSITION":112,
						"NORMAL":113,
						"TEXCOORD_0":114
					},
					"indices":3,
					"material":37
				}
			]
		},
		{
			"name":"Plane.039",
			"primitives":[
				{
					"attributes":{
						"POSITION":115,
						"NORMAL":116,
						"TEXCOORD_0":117
					},
					"indices":3,
					"material":38
				}
			]
		},
		{
			"name":"Plane.040",
			"primitives":[
				{
					"attributes":{
						"POSITION":118,
						"NORMAL":119,
						"TEXCOORD_0":120
					},
					"indices":3,
					"material":39
				}
			]
		},
		{
			"name":"Plane.041",
			"primitives":[
				{
					"attributes":{
						"POSITION":121,
						"NORMAL":122,
						"TEXCOORD_0":123
					},
					"indices":3,
					"material":40
				}
			]
		},
		{
			"name":"Plane.042",
			"primitives":[
				{
					"attributes":{
						"POSITION":124,
						"NORMAL":125,
						"TEXCOORD_0":126
					},
					"indices":3,
					"material":41
				}
			]
		},
		{
			"name":"Plane.043",
			"primitives":[
				{
					"attributes":{
						"POSITION":127,
						"NORMAL":128,
						"TEXCOORD_0":129
					},
					"indices":3,
					"material":42
				}
			]
		},
		{
			"name":"Plane.044",
			"primitives":[
				{
					"attributes":{
						"POSITION":130,
						"NORMAL":131,
						"TEXCOORD_0":132
					},
					"indices":3,
					"material":43
				}
			]
		},
		{
			"name":"Plane.045",
			"primitives":[
				{
					"attributes":{
						"POSITION":133,
						"NORMAL":134,
						"TEXCOORD_0":135
					},
					"indices":3,
					"material":44
				}
			]
		},
		{
			"name":"Plane.046",
			"primitives":[
				{
					"attributes":{
						"POSITION":136,
						"NORMAL":137,
						"TEXCOORD_0":138
					},
					"indices":3,
					"material":45
				}
			]
		},
		{
			"name":"Plane.047",
			"primitives":[
				{
					"attributes":{
						"POSITION":139,
						"NORMAL":140,
						"TEXCOORD_0":141
					},
					"indices":3,
					"material":46
				}
			]
		},
		{
			"name":"Plane.048",
			"primitives":[
				{
					"attributes":{
						"POSITION":142,
						"NORMAL":143,
						"TEXCOORD_0":144
					},
					"indices":3,
					"material":47
				}
			]
		},
		{
			"name":"Plane.049",
			"primitives":[
				{
					"attributes":{
						"POSITION":145,
						"NORMAL":146,
						"TEXCOORD_0":147
					},
					"indices":3,
					"material":48
				}
			]
		},
		{
			"name":"Plane.050",
			"primitives":[
				{
					"attributes":{
						"POSITION":148,
						"NORMAL":149,
						"TEXCOORD_0":150
					},
					"indices":3,
					"material":49
				}
			]
		},
		{
			"name":"Plane.051",
			"primitives":[
				{
					"attributes":{
						"POSITION":151,
						"NORMAL":152,
						"TEXCOORD_0":153
					},
					"indices":3,
					"material":50
				}
			]
		},
		{
			"name":"Plane.052",
			"primitives":[
				{
					"attributes":{
						"POSITION":154,
						"NORMAL":155,
						"TEXCOORD_0":156
					},
					"indices":3,
					"material":51
				}
			]
		},
		{
			"name":"Plane.053",
			"primitives":[
				{
					"attributes":{
						"POSITION":157,
						"NORMAL":158,
						"TEXCOORD_0":159
					},
					"indices":3,
					"material":52
				}
			]
		},
		{
			"name":"Plane.054",
			"primitives":[
				{
					"attributes":{
						"POSITION":160,
						"NORMAL":161,
						"TEXCOORD_0":162
					},
					"indices":3,
					"material":53
				}
			]
		},
		{
			"name":"Plane.055",
			"primitives":[
				{
					"attributes":{
						"POSITION":163,
						"NORMAL":164,
						"TEXCOORD_0":165
					},
					"indices":3,
					"material":54
				}
			]
		},
		{
			"name":"Plane.056",
			"primitives":[
				{
					"attributes":{
						"POSITION":166,
						"NORMAL":167,
						"TEXCOORD_0":168
					},
					"indices":3,
					"material":55
				}
			]
		},
		{
			"name":"Plane.057",
			"primitives":[
				{
					"attributes":{
						"POSITION":169,
						"NORMAL":170,
						"TEXCOORD_0":171
					},
					"indices":3,
					"material":56
				}
			]
		},
		{
			"name":"Plane.058",
			"primitives":[
				{
					"attributes":{
						"POSITION":172,
						"NORMAL":173,
						"TEXCOORD_0":174
					},
					"indices":3,
					"material":57
				}
			]
		},
		{
			"name":"Plane.059",
			"primitives":[
				{
					"attributes":{
						"POSITION":175,
						"NORMAL":176,
						"TEXCOORD_0":177
					},
					"indices":3,
					"material":58
				}
			]
		},
		{
			"name":"Plane",
			"primitives":[
				{
					"attributes":{
						"POSITION":178,
						"NORMAL":179,
						"TEXCOORD_0":180
					},
					"indices":3,
					"material":59
				}
			]
		}
	],
	"textures":[
		{
			"sampler":0,
			"source":0
		},
		{
			"sampler":0,
			"source":0
		},
		{
			"sampler":0,
			"source":0
		},
		{
			"sampler":0,
			"source":0
		},
		{
			"sampler":0,
			"source":0
		},
		{
			"sampler":0,
			"source":0
		},
		{
			"sampler":0,
			"source":0
		},
		{
			"sampler":0,
			"source":0
		},
		{
			"sampler":0,
			"source":0
		},
		{
			"sampler":0,
			"source":0
		},
		{
			"sampler":0,
			"source":0
		},
		{
			"sampler":0,
			"source":0
		},
		{
			"sampler":0,
			"source":0
		},
		{
			"sampler":0,
			"source":0
		},
		{
			"sampler":0,
			"source":0
		},
		{
			"sampler":0,
			"source":0
		},
		{
			"sampler":0,
			"source":0
		},
		{
			"sampler":0,
			"source":0
		},
		{
			"sampler":0,
			"source":0
		},
		{
			"sampler":0,
			"source":0
		},
		{
			"sampler":0,
			"source":0
		},
		{
			"sampler":0,
			"source":0
		},
		{
			"sampler":0,
			"source":0
		},
		{
			"sampler":0,
			"source":0
		},
		{
			"sampler":0,
			"source":0
		},
		{
			"sampler":0,
			"source":0
		},
		{
			"sampler":0,
			"source":0
		},
		{
			"sampler":0,
			"source":0
		},
		{
			"sampler":0,
			"source":0
		},
		{
			"sampler":0,
			"source":0
		},
		{
			"sampler":0,
			"source":0
		},
		{
			"sampler":0,
			"source":0
		},
		{
			"sampler":0,
			"source":0
		},
		{
			"sampler":0,
			"source":0
		},
		{
			"sampler":0,
			"source":0
		},
		{
			"sampler":0,
			"source":0
		},
		{
			"sampler":0,
			"source":0
		},
		{
			"sampler":0,
			"source":0
		},
		{
			"sampler":0,
			"source":0
		},
		{
			"sampler":0,
			"source":0
		},
		{
			"sampler":0,
			"source":0
		},
		{
			"sampler":0,
			"source":0
		},
		{
			"sampler":0,
			"source":0
		},
		{
			"sampler":0,
			"source":0
		},
		{
			"sampler":0,
			"source":0
		},
		{
			"sampler":0,
			"source":0
		},
		{
			"sampler":0,
			"source":0
		},
		{
			"sampler":0,
			"source":0
		},
		{
			"sampler":0,
			"source":0
		},
		{
			"sampler":0,
			"source":0
		},
		{
			"sampler":0,
			"source":0
		},
		{
			"sampler":0,
			"source":0
		},
		{
			"sampler":0,
			"source":0
		},
		{
			"sampler":0,
			"source":0
		},
		{
			"sampler":0,
			"source":0
		},
		{
			"sampler":0,
			"source":0
		},
		{
			"sampler":0,
			"source":0
		},
		{
			"sampler":0,
			"source":0
		},
		{
			"sampler":0,
			"source":0
		},
		{
			"sampler":0,
			"source":0
		}
	],
	"images":[
		{
			"mimeType":"image/png",
			"name":"WhiteColor_Occlusion",
			"uri":"WhiteColor_Occlusion.png"
		}
	],
	"accessors":[
		{
			"bufferView":0,
			"componentType":5126,
			"count":80,
			"max":[
				78,
				0,
				2
			],
			"min":[
				-2,
				0,
				-2
			],
			"type":"VEC3"
		},
		{
			"bufferView":1,
			"componentType":5126,
			"count":80,
			"type":"VEC3"
		},
		{
			"bufferView":2,
			"componentType":5126,
			"count":80,
			"type":"VEC2"
		},
		{
			"bufferView":3,
			"componentType":5123,
			"count":120,
			"type":"SCALAR"
		},
		{
			"bufferView":4,
			"componentType":5126,
			"count":80,
			"max":[
				78,
				0,
				2
			],
			"min":[
				-2,
				0,
				-2
			],
			"type":"VEC3"
		},
		{
			"bufferView":5,
			"componentType":5126,
			"count":80,
			"type":"VEC3"
		},
		{
			"bufferView":6,
			"componentType":5126,
			"count":80,
			"type":"VEC2"
		},
		{
			"bufferView":7,
			"componentType":5126,
			"count":80,
			"max":[
				78,
				0,
				2
			],
			"min":[
				-2,
				0,
				-2
			],
			"type":"VEC3"
		},
		{
			"bufferView":8,
			"componentType":5126,
			"count":80,
			"type":"VEC3"
		},
		{
			"bufferView":9,
			"componentType":5126,
			"count":80,
			"type":"VEC2"
		},
		{
			"bufferView":10,
			"componentType":5126,
			"count":80,
			"max":[
				78,
				0,
				2
			],
			"min":[
				-2,
				0,
				-2
			],
			"type":"VEC3"
		},
		{
			"bufferView":11,
			"componentType":5126,
			"count":80,
			"type":"VEC3"
		},
		{
			"bufferView":12,
			"componentType":5126,
			"count":80,
			"type":"VEC2"
		},
		{
			"bufferView":13,
			"componentType":5126,
			"count":80,
			"max":[
				78,
				0,
				2
			],
			"min":[
				-2,
				0,
				-2
			],
			"type":"VEC3"
		},
		{
			"bufferView":14,
			"componentType":5126,
			"count":80,
			"type":"VEC3"
		},
		{
			"bufferView":15,
			"componentType":5126,
			"count":80,
			"type":"VEC2"
		},
		{
			"bufferView":16,
			"componentType":5126,
			"count":80,
			"max":[
				78,
				0,
				2
			],
			"min":[
				-2,
				0,
				-2
			],
			"type":"VEC3"
		},
		{
			"bufferView":17,
			"componentType":5126,
			"count":80,
			"type":"VEC3"
		},
		{
			"bufferView":18,
			"componentType":5126,
			"count":80,
			"type":"VEC2"
		},
		{
			"bufferView":19,
			"componentType":5126,
			"count":80,
			"max":[
				78,
				0,
				2
			],
			"min":[
				-2,
				0,
				-2
			],
			"type":"VEC3"
		},
		{
			"bufferView":20,
			"componentType":5126,
			"count":80,
			"type":"VEC3"
		},
		{
			"bufferView":21,
			"componentType":5126,
			"count":80,
			"type":"VEC2"
		},
		{
			"bufferView":22,
			"componentType":5126,
			"count":80,
			"max":[
				78,
				0,
				2
			],
			"min":[
				-2,
				0,
				-2
			],
			"type":"VEC3"
		},
		{
			"bufferView":23,
			"componentType":5126,
			"count":80,
			"type":"VEC3"
		},
		{
			"bufferView":24,
			"componentType":5126,
			"count":80,
			"type":"VEC2"
		},
		{
			"bufferView":25,
			"componentType":5126,
			"count":80,
			"max":[
				78,
				0,
				2
			],
			"min":[
				-2,
				0,
				-2
			],
			"type":"VEC3"
		},
		{
			"bufferView":26,
			"componentType":5126,
			"count":80,
			"type":"VEC3"
		},
		{
			"bufferView":27,
			"componentType":5126,
			"count":80,
			"type":"VEC2"
		},
		{
			"bufferView":28,
			"componentType":5126,
			"count":80,
			"max":[
				78,
				0,
				2
			],
			"min":[
				-2,
				0,
				-2
			],
			"type":"VEC3"
		},
		{
			"bufferView":29,
			"componentType":5126,
			"count":80,
			"type":"VEC3"
		},
		{
			"bufferView":30,
			"componentType":5126,
			"count":80,
			"type":"VEC2"
		},
		{
			"bufferView":31,
			"componentType":5126,
			"count":80,
			"max":[
				78,
				0,
				2
			],
			"min":[
				-2,
				0,
				-2
			],
			"type":"VEC3"
		},
		{
			"bufferView":32,
			"componentType":5126,
			"count":80,
			"type":"VEC3"
		},
		{
			"bufferView":33,
			"componentType":5126,
			"count":80,
			"type":"VEC2"
		},
		{
			"bufferView":34,
			"componentType":5126,
			"count":80,
			"max":[
				78,
				0,
				2
			],
			"min":[
				-2,
				0,
				-2
			],
			"type":"VEC3"
		},
		{
			"bufferView":35,
			"componentType":5126,
			"count":80,
			"type":"VEC3"
		},
		{
			"bufferView":36,
			"componentType":5126,
			"count":80,
			"type":"VEC2"
		},
		{
			"bufferView":37,
			"componentType":5126,
			"count":80,
			"max":[
				78,
				0,
				2
			],
			"min":[
				-2,
				0,
				-2
			],
			"type":"VEC3"
		},
		{
			"bufferView":38,
			"componentType":5126,
			"count":80,
			"type":"VEC3"
		},
		{
			"bufferView":39,
			"componentType":5126,
			"count":80,
			"type":"VEC2"
		},
		{
			"bufferView":40,
			"componentType":5126,
			"count":80,
			"max":[
				78,
				0,
				2
			],
			"min":[
				-2,
				0,
				-2
			],
			"type":"VEC3"
		},
		{
			"bufferView":41,
			"componentType":5126,
			"count":80,
			"type":"VEC3"
		},
		{
			"bufferView":42,
			"componentType":5126,
			"count":80,
			"type":"VEC2"
		},
		{
			"bufferView":43,
			"componentType":5126,
			"count":80,
			"max":[
				78,
				0,
				2
			],
			"min":[
				-2,
				0,
				-2
			],
			"type":"VEC3"
		},
		{
			"bufferView":44,
			"componentType":5126,
			"count":80,
			"type":"VEC3"
		},
		{
			"bufferView":45,
			"componentType":5126,
			"count":80,
			"type":"VEC2"
		},
		{
			"bufferView":46,
			"componentType":5126,
			"count":80,
			"max":[
				78,
				0,
				2
			],
			"min":[
				-2,
				0,
				-2
			],
			"type":"VEC3"
		},
		{
			"bufferView":47,
			"componentType":5126,
			"count":80,
			"type":"VEC3"
		},
		{
			"bufferView":48,
			"componentType":5126,
			"count":80,
			"type":"VEC2"
		},
		{
			"bufferView":49,
			"componentType":5126,
			"count":80,
			"max":[
				78,
				0,
				2
			],
			"min":[
				-2,
				0,
				-2
			],
			"type":"VEC3"
		},
		{
			"bufferView":50,
			"componentType":5126,
			"count":80,
			"type":"VEC3"
		},
		{
			"bufferView":51,
			"componentType":5126,
			"count":80,
			"type":"VEC2"
		},
		{
			"bufferView":52,
			"componentType":5126,
			"count":80,
			"max":[
				78,
				0,
				2
			],
			"min":[
				-2,
				0,
				-2
			],
			"type":"VEC3"
		},
		{
			"bufferView":53,
			"componentType":5126,
			"count":80,
			"type":"VEC3"
		},
		{
			"bufferView":54,
			"componentType":5126,
			"count":80,
			"type":"VEC2"
		},
		{
			"bufferView":55,
			"componentType":5126,
			"count":80,
			"max":[
				78,
				0,
				2
			],
			"min":[
				-2,
				0,
				-2
			],
			"type":"VEC3"
		},
		{
			"bufferView":56,
			"componentType":5126,
			"count":80,
			"type":"VEC3"
		},
		{
			"bufferView":57,
			"componentType":5126,
			"count":80,
			"type":"VEC2"
		},
		{
			"bufferView":58,
			"componentType":5126,
			"count":80,
			"max":[
				78,
				0,
				2
			],
			"min":[
				-2,
				0,
				-2
			],
			"type":"VEC3"
		},
		{
			"bufferView":59,
			"componentType":5126,
			"count":80,
			"type":"VEC3"
		},
		{
			"bufferView":60,
			"componentType":5126,
			"count":80,
			"type":"VEC2"
		},
		{
			"bufferView":61,
			"componentType":5126,
			"count":80,
			"max":[
				78,
				0,
				2
			],
			"min":[
				-2,
				0,
				-2
			],
			"type":"VEC3"
		},
		{
			"bufferView":62,
			"componentType":5126,
			"count":80,
			"type":"VEC3"
		},
		{
			"bufferView":63,
			"componentType":5126,
			"count":80,
			"type":"VEC2"
		},
		{
			"bufferView":64,
			"componentType":5126,
			"count":80,
			"max":[
				78,
				0,
				2
			],
			"min":[
				-2,
				0,
				-2
			],
			"type":"VEC3"
		},
		{
			"bufferView":65,
			"componentType":5126,
			"count":80,
			"type":"VEC3"
		},
		{
			"bufferView":66,
			"componentType":5126,
			"count":80,
			"type":"VEC2"
		},
		{
			"bufferView":67,
			"componentType":5126,
			"count":80,
			"max":[
				78,
				0,
				2
			],
			"min":[
				-2,
				0,
				-2
			],
			"type":"VEC3"
		},
		{
			"bufferView":68,
			"componentType":5126,
			"count":80,
			"type":"VEC3"
		},
		{
			"bufferView":69,
			"componentType":5126,
			"count":80,
			"type":"VEC2"
		},
		{
			"bufferView":70,
			"componentType":5126,
			"count":80,
			"max":[
				78,
				0,
				2
			],
			"min":[
				-2,
				0,
				-2
			],
			"type":"VEC3"
		},
		{
			"bufferView":71,
			"componentType":5126,
			"count":80,
			"type":"VEC3"
		},
		{
			"bufferView":72,
			"componentType":5126,
			"count":80,
			"type":"VEC2"
		},
		{
			"bufferView":73,
			"componentType":5126,
			"count":80,
			"max":[
				78,
				0,
				2
			],
			"min":[
				-2,
				0,
				-2
			],
			"type":"VEC3"
		},
		{
			"bufferView":74,
			"componentType":5126,
			"count":80,
			"type":"VEC3"
		},
		{
			"bufferView":75,
			"componentType":5126,
			"count":80,
			"type":"VEC2"
		},
		{
			"bufferView":76,
			"componentType":5126,
			"count":80,
			"max":[
				78,
				0,
				2
			],
			"min":[
				-2,
				0,
				-2
			],
			"type":"VEC3"
		},
		{
			"bufferView":77,
			"componentType":5126,
			"count":80,
			"type":"VEC3"
		},
		{
			"bufferView":78,
			"componentType":5126,
			"count":80,
			"type":"VEC2"
		},
		{
			"bufferView":79,
			"componentType":5126,
			"count":80,
			"max":[
				78,
				0,
				2
			],
			"min":[
				-2,
				0,
				-2
			],
			"type":"VEC3"
		},
		{
			"bufferView":80,
			"componentType":5126,
			"count":80,
			"type":"VEC3"
		},
		{
			"bufferView":81,
			"componentType":5126,
			"count":80,
			"type":"VEC2"
		},
		{
			"bufferView":82,
			"componentType":5126,
			"count":80,
			"max":[
				78,
				0,
				2
			],
			"min":[
				-2,
				0,
				-2
			],
			"type":"VEC3"
		},
		{
			"bufferView":83,
			"componentType":5126,
			"count":80,
			"type":"VEC3"
		},
		{
			"bufferView":84,
			"componentType":5126,
			"count":80,
			"type":"VEC2"
		},
		{
			"bufferView":85,
			"componentType":5126,
			"count":80,
			"max":[
				78,
				0,
				2
			],
			"min":[
				-2,
				0,
				-2
			],
			"type":"VEC3"
		},
		{
			"bufferView":86,
			"componentType":5126,
			"count":80,
			"type":"VEC3"
		},
		{
			"bufferView":87,
			"componentType":5126,
			"count":80,
			"type":"VEC2"
		},
		{
			"bufferView":88,
			"componentType":5126,
			"count":80,
			"max":[
				78,
				0,
				2
			],
			"min":[
				-2,
				0,
				-2
			],
			"type":"VEC3"
		},
		{
			"bufferView":89,
			"componentType":5126,
			"count":80,
			"type":"VEC3"
		},
		{
			"bufferView":90,
			"componentType":5126,
			"count":80,
			"type":"VEC2"
		},
		{
			"bufferView":91,
			"componentType":5126,
			"count":80,
			"max":[
				78,
				0,
				2
			],
			"min":[
				-2,
				0,
				-2
			],
			"type":"VEC3"
		},
		{
			"bufferView":92,
			"componentType":5126,
			"count":80,
			"type":"VEC3"
		},
		{
			"bufferView":93,
			"componentType":5126,
			"count":80,
			"type":"VEC2"
		},
		{
			"bufferView":94,
			"componentType":5126,
			"count":80,
			"max":[
				78,
				0,
				2
			],
			"min":[
				-2,
				0,
				-2
			],
			"type":"VEC3"
		},
		{
			"bufferView":95,
			"componentType":5126,
			"count":80,
			"type":"VEC3"
		},
		{
			"bufferView":96,
			"componentType":5126,
			"count":80,
			"type":"VEC2"
		},
		{
			"bufferView":97,
			"componentType":5126,
			"count":80,
			"max":[
				78,
				0,
				2
			],
			"min":[
				-2,
				0,
				-2
			],
			"type":"VEC3"
		},
		{
			"bufferView":98,
			"componentType":5126,
			"count":80,
			"type":"VEC3"
		},
		{
			"bufferView":99,
			"componentType":5126,
			"count":80,
			"type":"VEC2"
		},
		{
			"bufferView":100,
			"componentType":5126,
			"count":80,
			"max":[
				78,
				0,
				2
			],
			"min":[
				-2,
				0,
				-2
			],
			"type":"VEC3"
		},
		{
			"bufferView":101,
			"componentType":5126,
			"count":80,
			"type":"VEC3"
		},
		{
			"bufferView":102,
			"componentType":5126,
			"count":80,
			"type":"VEC2"
		},
		{
			"bufferView":103,
			"componentType":5126,
			"count":80,
			"max":[
				78,
				0,
				2
			],
			"min":[
				-2,
				0,
				-2
			],
			"type":"VEC3"
		},
		{
			"bufferView":104,
			"componentType":5126,
			"count":80,
			"type":"VEC3"
		},
		{
			"bufferView":105,
			"componentType":5126,
			"count":80,
			"type":"VEC2"
		},
		{
			"bufferView":106,
			"componentType":5126,
			"count":80,
			"max":[
				78,
				0,
				2
			],
			"min":[
				-2,
				0,
				-2
			],
			"type":"VEC3"
		},
		{
			"bufferView":107,
			"componentType":5126,
			"count":80,
			"type":"VEC3"
		},
		{
			"bufferView":108,
			"componentType":5126,
			"count":80,
			"type":"VEC2"
		},
		{
			"bufferView":109,
			"componentType":5126,
			"count":80,
			"max":[
				78,
				0,
				2
			],
			"min":[
				-2,
				0,
				-2
			],
			"type":"VEC3"
		},
		{
			"bufferView":110,
			"componentType":5126,
			"count":80,
			"type":"VEC3"
		},
		{
			"bufferView":111,
			"componentType":5126,
			"count":80,
			"type":"VEC2"
		},
		{
			"bufferView":112,
			"componentType":5126,
			"count":80,
			"max":[
				78,
				0,
				2
			],
			"min":[
				-2,
				0,
				-2
			],
			"type":"VEC3"
		},
		{
			"bufferView":113,
			"componentType":5126,
			"count":80,
			"type":"VEC3"
		},
		{
			"bufferView":114,
			"componentType":5126,
			"count":80,
			"type":"VEC2"
		},
		{
			"bufferView":115,
			"componentType":5126,
			"count":80,
			"max":[
				78,
				0,
				2
			],
			"min":[
				-2,
				0,
				-2
			],
			"type":"VEC3"
		},
		{
			"bufferView":116,
			"componentType":5126,
			"count":80,
			"type":"VEC3"
		},
		{
			"bufferView":117,
			"componentType":5126,
			"count":80,
			"type":"VEC2"
		},
		{
			"bufferView":118,
			"componentType":5126,
			"count":80,
			"max":[
				78,
				0,
				2
			],
			"min":[
				-2,
				0,
				-2
			],
			"type":"VEC3"
		},
		{
			"bufferView":119,
			"componentType":5126,
			"count":80,
			"type":"VEC3"
		},
		{
			"bufferView":120,
			"componentType":5126,
			"count":80,
			"type":"VEC2"
		},
		{
			"bufferView":121,
			"componentType":5126,
			"count":80,
			"max":[
				78,
				0,
				2
			],
			"min":[
				-2,
				0,
				-2
			],
			"type":"VEC3"
		},
		{
			"bufferView":122,
			"componentType":5126,
			"count":80,
			"type":"VEC3"
		},
		{
			"bufferView":123,
			"componentType":5126,
			"count":80,
			"type":"VEC2"
		},
		{
			"bufferView":124,
			"componentType":5126,
			"count":80,
			"max":[
				78,
				0,
				2
			],
			"min":[
				-2,
				0,
				-2
			],
			"type":"VEC3"
		},
		{
			"bufferView":125,
			"componentType":5126,
			"count":80,
			"type":"VEC3"
		},
		{
			"bufferView":126,
			"componentType":5126,
			"count":80,
			"type":"VEC2"
		},
		{
			"bufferView":127,
			"componentType":5126,
			"count":80,
			"max":[
				78,
				0,
				2
			],
			"min":[
				-2,
				0,
				-2
			],
			"type":"VEC3"
		},
		{
			"bufferView":128,
			"componentType":5126,
			"count":80,
			"type":"VEC3"
		},
		{
			"bufferView":129,
			"componentType":5126,
			"count":80,
			"type":"VEC2"
		},
		{
			"bufferView":130,
			"componentType":5126,
			"count":80,
			"max":[
				78,
				0,
				2
			],
			"min":[
				-2,
				0,
				-2
			],
			"type":"VEC3"
		},
		{
			"bufferView":131,
			"componentType":5126,
			"count":80,
			"type":"VEC3"
		},
		{
			"bufferView":132,
			"componentType":5126,
			"count":80,
			"type":"VEC2"
		},
		{
			"bufferView":133,
			"componentType":5126,
			"count":80,
			"max":[
				78,
				0,
				2
			],
			"min":[
				-2,
				0,
				-2
			],
			"type":"VEC3"
		},
		{
			"bufferView":134,
			"componentType":5126,
			"count":80,
			"type":"VEC3"
		},
		{
			"bufferView":135,
			"componentType":5126,
			"count":80,
			"type":"VEC2"
		},
		{
			"bufferView":136,
			"componentType":5126,
			"count":80,
			"max":[
				78,
				0,
				2
			],
			"min":[
				-2,
				0,
				-2
			],
			"type":"VEC3"
		},
		{
			"bufferView":137,
			"componentType":5126,
			"count":80,
			"type":"VEC3"
		},
		{
			"bufferView":138,
			"componentType":5126,
			"count":80,
			"type":"VEC2"
		},
		{
			"bufferView":139,
			"componentType":5126,
			"count":80,
			"max":[
				78,
				0,
				2
			],
			"min":[
				-2,
				0,
				-2
			],
			"type":"VEC3"
		},
		{
			"bufferView":140,
			"componentType":5126,
			"count":80,
			"type":"VEC3"
		},
		{
			"bufferView":141,
			"componentType":5126,
			"count":80,
			"type":"VEC2"
		},
		{
			"bufferView":142,
			"componentType":5126,
			"count":80,
			"max":[
				78,
				0,
				2
			],
			"min":[
				-2,
				0,
				-2
			],
			"type":"VEC3"
		},
		{
			"bufferView":143,
			"componentType":5126,
			"count":80,
			"type":"VEC3"
		},
		{
			"bufferView":144,
			"componentType":5126,
			"count":80,
			"type":"VEC2"
		},
		{
			"bufferView":145,
			"componentType":5126,
			"count":80,
			"max":[
				78,
				0,
				2
			],
			"min":[
				-2,
				0,
				-2
			],
			"type":"VEC3"
		},
		{
			"bufferView":146,
			"componentType":5126,
			"count":80,
			"type":"VEC3"
		},
		{
			"bufferView":147,
			"componentType":5126,
			"count":80,
			"type":"VEC2"
		},
		{
			"bufferView":148,
			"componentType":5126,
			"count":80,
			"max":[
				78,
				0,
				2
			],
			"min":[
				-2,
				0,
				-2
			],
			"type":"VEC3"
		},
		{
			"bufferView":149,
			"componentType":5126,
			"count":80,
			"type":"VEC3"
		},
		{
			"bufferView":150,
			"componentType":5126,
			"count":80,
			"type":"VEC2"
		},
		{
			"bufferView":151,
			"componentType":5126,
			"count":80,
			"max":[
				78,
				0,
				2
			],
			"min":[
				-2,
				0,
				-2
			],
			"type":"VEC3"
		},
		{
			"bufferView":152,
			"componentType":5126,
			"count":80,
			"type":"VEC3"
		},
		{
			"bufferView":153,
			"componentType":5126,
			"count":80,
			"type":"VEC2"
		},
		{
			"bufferView":154,
			"componentType":5126,
			"count":80,
			"max":[
				78,
				0,
				2
			],
			"min":[
				-2,
				0,
				-2
			],
			"type":"VEC3"
		},
		{
			"bufferView":155,
			"componentType":5126,
			"count":80,
			"type":"VEC3"
		},
		{
			"bufferView":156,
			"componentType":5126,
			"count":80,
			"type":"VEC2"
		},
		{
			"bufferView":157,
			"componentType":5126,
			"count":80,
			"max":[
				78,
				0,
				2
			],
			"min":[
				-2,
				0,
				-2
			],
			"type":"VEC3"
		},
		{
			"bufferView":158,
			"componentType":5126,
			"count":80,
			"type":"VEC3"
		},
		{
			"bufferView":159,
			"componentType":5126,
			"count":80,
			"type":"VEC2"
		},
		{
			"bufferView":160,
			"componentType":5126,
			"count":80,
			"max":[
				78,
				0,
				2
			],
			"min":[
				-2,
				0,
				-2
			],
			"type":"VEC3"
		},
		{
			"bufferView":161,
			"componentType":5126,
			"count":80,
			"type":"VEC3"
		},
		{
			"bufferView":162,
			"componentType":5126,
			"count":80,
			"type":"VEC2"
		},
		{
			"bufferView":163,
			"componentType":5126,
			"count":80,
			"max":[
				78,
				0,
				2
			],
			"min":[
				-2,
				0,
				-2
			],
			"type":"VEC3"
		},
		{
			"bufferView":164,
			"componentType":5126,
			"count":80,
			"type":"VEC3"
		},
		{
			"bufferView":165,
			"componentType":5126,
			"count":80,
			"type":"VEC2"
		},
		{
			"bufferView":166,
			"componentType":5126,
			"count":80,
			"max":[
				78,
				0,
				2
			],
			"min":[
				-2,
				0,
				-2
			],
			"type":"VEC3"
		},
		{
			"bufferView":167,
			"componentType":5126,
			"count":80,
			"type":"VEC3"
		},
		{
			"bufferView":168,
			"componentType":5126,
			"count":80,
			"type":"VEC2"
		},
		{
			"bufferView":169,
			"componentType":5126,
			"count":80,
			"max":[
				78,
				0,
				2
			],
			"min":[
				-2,
				0,
				-2
			],
			"type":"VEC3"
		},
		{
			"bufferView":170,
			"componentType":5126,
			"count":80,
			"type":"VEC3"
		},
		{
			"bufferView":171,
			"componentType":5126,
			"count":80,
			"type":"VEC2"
		},
		{
			"bufferView":172,
			"componentType":5126,
			"count":80,
			"max":[
				78,
				0,
				2
			],
			"min":[
				-2,
				0,
				-2
			],
			"type":"VEC3"
		},
		{
			"bufferView":173,
			"componentType":5126,
			"count":80,
			"type":"VEC3"
		},
		{
			"bufferView":174,
			"componentType":5126,
			"count":80,
			"type":"VEC2"
		},
		{
			"bufferView":175,
			"componentType":5126,
			"count":80,
			"max":[
				78,
				0,
				2
			],
			"min":[
				-2,
				0,
				-2
			],
			"type":"VEC3"
		},
		{
			"bufferView":176,
			"componentType":5126,
			"count":80,
			"type":"VEC3"
		},
		{
			"bufferView":177,
			"componentType":5126,
			"count":80,
			"type":"VEC2"
		},
		{
			"bufferView":178,
			"componentType":5126,
			"count":80,
			"max":[
				78,
				0,
				2
			],
			"min":[
				-2,
				0,
				-2
			],
			"type":"VEC3"
		},
		{
			"bufferView":179,
			"componentType":5126,
			"count":80,
			"type":"VEC3"
		},
		{
			"bufferView":180,
			"componentType":5126,
			"count":80,
			"type":"VEC2"
		}
	],
	"bufferViews":[
		{
			"buffer":0,
			"byteLength":960,
			"byteOffset":0,
			"target":34962
		},
		{
			"buffer":0,
			"byteLength":960,
			"byteOffset":960,
			"target":34962
		},
		{
			"buffer":0,
			"byteLength":640,
			"byteOffset":1920,
			"target":34962
		},
		{
			"buffer":0,
			"byteLength":240,
			"byteOffset":2560,
			"target":34963
		},
		{
			"buffer":0,
			"byteLength":960,
			"byteOffset":2800,
			"target":34962
		},
		{
			"buffer":0,
			"byteLength":960,
			"byteOffset":3760,
			"target":34962
		},
		{
			"buffer":0,
			"byteLength":640,
			"byteOffset":4720,
			"target":34962
		},
		{
			"buffer":0,
			"byteLength":960,
			"byteOffset":5360,
			"target":34962
		},
		{
			"buffer":0,
			"byteLength":960,
			"byteOffset":6320,
			"target":34962
		},
		{
			"buffer":0,
			"byteLength":640,
			"byteOffset":7280,
			"target":34962
		},
		{
			"buffer":0,
			"byteLength":960,
			"byteOffset":7920,
			"target":34962
		},
		{
			"buffer":0,
			"byteLength":960,
			"byteOffset":8880,
			"target":34962
		},
		{
			"buffer":0,
			"byteLength":640,
			"byteOffset":9840,
			"target":34962
		},
		{
			"buffer":0,
			"byteLength":960,
			"byteOffset":10480,
			"target":34962
		},
		{
			"buffer":0,
			"byteLength":960,
			"byteOffset":11440,
			"target":34962
		},
		{
			"buffer":0,
			"byteLength":640,
			"byteOffset":12400,
			"target":34962
		},
		{
			"buffer":0,
			"byteLength":960,
			"byteOffset":13040,
			"target":34962
		},
		{
			"buffer":0,
			"byteLength":960,
			"byteOffset":14000,
			"target":34962
		},
		{
			"buffer":0,
			"byteLength":640,
			"byteOffset":14960,
			"target":34962
		},
		{
			"buffer":0,
			"byteLength":960,
			"byteOffset":15600,
			"target":34962
		},
		{
			"buffer":0,
			"byteLength":960,
			"byteOffset":16560,
			"target":34962
		},
		{
			"buffer":0,
			"byteLength":640,
			"byteOffset":17520,
			"target":34962
		},
		{
			"buffer":0,
			"byteLength":960,
			"byteOffset":18160,
			"target":34962
		},
		{
			"buffer":0,
			"byteLength":960,
			"byteOffset":19120,
			"target":34962
		},
		{
			"buffer":0,
			"byteLength":640,
			"byteOffset":20080,
			"target":34962
		},
		{
			"buffer":0,
			"byteLength":960,
			"byteOffset":20720,
			"target":34962
		},
		{
			"buffer":0,
			"byteLength":960,
			"byteOffset":21680,
			"target":34962
		},
		{
			"buffer":0,
			"byteLength":640,
			"byteOffset":22640,
			"target":34962
		},
		{
			"buffer":0,
			"byteLength":960,
			"byteOffset":23280,
			"target":34962
		},
		{
			"buffer":0,
			"byteLength":960,
			"byteOffset":24240,
			"target":34962
		},
		{
			"buffer":0,
			"byteLength":640,
			"byteOffset":25200,
			"target":34962
		},
		{
			"buffer":0,
			"byteLength":960,
			"byteOffset":25840,
			"target":34962
		},
		{
			"buffer":0,
			"byteLength":960,
			"byteOffset":26800,
			"target":34962
		},
		{
			"buffer":0,
			"byteLength":640,
			"byteOffset":27760,
			"target":34962
		},
		{
			"buffer":0,
			"byteLength":960,
			"byteOffset":28400,
			"target":34962
		},
		{
			"buffer":0,
			"byteLength":960,
			"byteOffset":29360,
			"target":34962
		},
		{
			"buffer":0,
			"byteLength":640,
			"byteOffset":30320,
			"target":34962
		},
		{
			"buffer":0,
			"byteLength":960,
			"byteOffset":30960,
			"target":34962
		},
		{
			"buffer":0,
			"byteLength":960,
			"byteOffset":31920,
			"target":34962
		},
		{
			"buffer":0,
			"byteLength":640,
			"byteOffset":32880,
			"target":34962
		},
		{
			"buffer":0,
			"byteLength":960,
			"byteOffset":33520,
			"target":34962
		},
		{
			"buffer":0,
			"byteLength":960,
			"byteOffset":34480,
			"target":34962
		},
		{
			"buffer":0,
			"byteLength":640,
			"byteOffset":35440,
			"target":34962
		},
		{
			"buffer":0,
			"byteLength":960,
			"byteOffset":36080,
			"target":34962
		},
		{
			"buffer":0,
			"byteLength":960,
			"byteOffset":37040,
			"target":34962
		},
		{
			"buffer":0,
			"byteLength":640,
			"byteOffset":38000,
			"target":34962
		},
		{
			"buffer":0,
			"byteLength":960,
			"byteOffset":38640,
			"target":34962
		},
		{
			"buffer":0,
			"byteLength":960,
			"byteOffset":39600,
			"target":34962
		},
		{
			"buffer":0,
			"byteLength":640,
			"byteOffset":40560,
			"target":34962
		},
		{
			"buffer":0,
			"byteLength":960,
			"byteOffset":41200,
			"target":34962
		},
		{
			"buffer":0,
			"byteLength":960,
			"byteOffset":42160,
			"target":34962
		},
		{
			"buffer":0,
			"byteLength":640,
			"byteOffset":43120,
			"target":34962
		},
		{
			"buffer":0,
			"byteLength":960,
			"byteOffset":43760,
			"target":34962
		},
		{
			"buffer":0,
			"byteLength":960,
			"byteOffset":44720,
			"target":34962
		},
		{
			"buffer":0,
			"byteLength":640,
			"byteOffset":45680,
			"target":34962
		},
		{
			"buffer":0,
			"byteLength":960,
			"byteOffset":46320,
			"target":34962
		},
		{
			"buffer":0,
			"byteLength":960,
			"byteOffset":47280,
			"target":34962
		},
		{
			"buffer":0,
			"byteLength":640,
			"byteOffset":48240,
			"target":34962
		},
		{
			"buffer":0,
			"byteLength":960,
			"byteOffset":48880,
			"target":34962
		},
		{
			"buffer":0,
			"byteLength":960,
			"byteOffset":49840,
			"target":34962
		},
		{
			"buffer":0,
			"byteLength":640,
			"byteOffset":50800,
			"target":34962
		},
		{
			"buffer":0,
			"byteLength":960,
			"byteOffset":51440,
			"target":34962
		},
		{
			"buffer":0,
			"byteLength":960,
			"byteOffset":52400,
			"target":34962
		},
		{
			"buffer":0,
			"byteLength":640,
			"byteOffset":53360,
			"target":34962
		},
		{
			"buffer":0,
			"byteLength":960,
			"byteOffset":54000,
			"target":34962
		},
		{
			"buffer":0,
			"byteLength":960,
			"byteOffset":54960,
			"target":34962
		},
		{
			"buffer":0,
			"byteLength":640,
			"byteOffset":55920,
			"target":34962
		},
		{
			"buffer":0,
			"byteLength":960,
			"byteOffset":56560,
			"target":34962
		},
		{
			"buffer":0,
			"byteLength":960,
			"byteOffset":57520,
			"target":34962
		},
		{
			"buffer":0,
			"byteLength":640,
			"byteOffset":58480,
			"target":34962
		},
		{
			"buffer":0,
			"byteLength":960,
			"byteOffset":59120,
			"target":34962
		},
		{
			"buffer":0,
			"byteLength":960,
			"byteOffset":60080,
			"target":34962
		},
		{
			"buffer":0,
			"byteLength":640,
			"byteOffset":61040,
			"target":34962
		},
		{
			"buffer":0,
			"byteLength":960,
			"byteOffset":61680,
			"target":34962
		},
		{
			"buffer":0,
			"byteLength":960,
			"byteOffset":62640,
			"target":34962
		},
		{
			"buffer":0,
			"byteLength":640,
			"byteOffset":63600,
			"target":34962
		},
		{
			"buffer":0,
			"byteLength":960,
			"byteOffset":64240,
			"target":34962
		},
		{
			"buffer":0,
			"byteLength":960,
			"byteOffset":65200,
			"target":34962
		},
		{
			"buffer":0,
			"byteLength":640,
			"byteOffset":66160,
			"target":34962
		},
		{
			"buffer":0,
			"byteLength":960,
			"byteOffset":66800,
			"target":34962
		},
		{
			"buffer":0,
			"byteLength":960,
			"byteOffset":67760,
			"target":34962
		},
		{
			"buffer":0,
			"byteLength":640,
			"byteOffset":68720,
			"target":34962
		},
		{
			"buffer":0,
			"byteLength":960,
			"byteOffset":69360,
			"target":34962
		},
		{
			"buffer":0,
			"byteLength":960,
			"byteOffset":70320,
			"target":34962
		},
		{
			"buffer":0,
			"byteLength":640,
			"byteOffset":71280,
			"target":34962
		},
		{
			"buffer":0,
			"byteLength":960,
			"byteOffset":71920,
			"target":34962
		},
		{
			"buffer":0,
			"byteLength":960,
			"byteOffset":72880,
			"target":34962
		},
		{
			"buffer":0,
			"byteLength":640,
			"byteOffset":73840,
			"target":34962
		},
		{
			"buffer":0,
			"byteLength":960,
			"byteOffset":74480,
			"target":34962
		},
		{
			"buffer":0,
			"byteLength":960,
			"byteOffset":75440,
			"target":34962
		},
		{
			"buffer":0,
			"byteLength":640,
			"byteOffset":76400,
			"target":34962
		},
		{
			"buffer":0,
			"byteLength":960,
			"byteOffset":77040,
			"target":34962
		},
		{
			"buffer":0,
			"byteLength":960,
			"byteOffset":78000,
			"target":34962
		},
		{
			"buffer":0,
			"byteLength":640,
			"byteOffset":78960,
			"target":34962
		},
		{
			"buffer":0,
			"byteLength":960,
			"byteOffset":79600,
			"target":34962
		},
		{
			"buffer":0,
			"byteLength":960,
			"byteOffset":80560,
			"target":34962
		},
		{
			"buffer":0,
			"byteLength":640,
			"byteOffset":81520,
			"target":34962
		},
		{
			"buffer":0,
			"byteLength":960,
			"byteOffset":82160,
			"target":34962
		},
		{
			"buffer":0,
			"byteLength":960,
			"byteOffset":83120,
			"target":34962
		},
		{
			"buffer":0,
			"byteLength":640,
			"byteOffset":84080,
			"target":34962
		},
		{
			"buffer":0,
			"byteLength":960,
			"byteOffset":84720,
			"target":34962
		},
		{
			"buffer":0,
			"byteLength":960,
			"byteOffset":85680,
			"target":34962
		},
		{
			"buffer":0,
			"byteLength":640,
			"byteOffset":86640,
			"target":34962
		},
		{
			"buffer":0,
			"byteLength":960,
			"byteOffset":87280,
			"target":34962
		},
		{
			"buffer":0,
			"byteLength":960,
			"byteOffset":88240,
			"target":34962
		},
		{
			"buffer":0,
			"byteLength":640,
			"byteOffset":89200,
			"target":34962
		},
		{
			"buffer":0,
			"byteLength":960,
			"byteOffset":89840,
			"target":34962
		},
		{
			"buffer":0,
			"byteLength":960,
			"byteOffset":90800,
			"target":34962
		},
		{
			"buffer":0,
			"byteLength":640,
			"byteOffset":91760,
			"target":34962
		},
		{
			"buffer":0,
			"byteLength":960,
			"byteOffset":92400,
			"target":34962
		},
		{
			"buffer":0,
			"byteLength":960,
			"byteOffset":93360,
			"target":34962
		},
		{
			"buffer":0,
			"byteLength":640,
			"byteOffset":94320,
			"target":34962
		},
		{
			"buffer":0,
			"byteLength":960,
			"byteOffset":94960,
			"target":34962
		},
		{
			"buffer":0,
			"byteLength":960,
			"byteOffset":95920,
			"target":34962
		},
		{
			"buffer":0,
			"byteLength":640,
			"byteOffset":96880,
			"target":34962
		},
		{
			"buffer":0,
			"byteLength":960,
			"byteOffset":97520,
			"target":34962
		},
		{
			"buffer":0,
			"byteLength":960,
			"byteOffset":98480,
			"target":34962
		},
		{
			"buffer":0,
			"byteLength":640,
			"byteOffset":99440,
			"target":34962
		},
		{
			"buffer":0,
			"byteLength":960,
			"byteOffset":100080,
			"target":34962
		},
		{
			"buffer":0,
			"byteLength":960,
			"byteOffset":101040,
			"target":34962
		},
		{
			"buffer":0,
			"byteLength":640,
			"byteOffset":102000,
			"target":34962
		},
		{
			"buffer":0,
			"byteLength":960,
			"byteOffset":102640,
			"target":34962
		},
		{
			"buffer":0,
			"byteLength":960,
			"byteOffset":103600,
			"target":34962
		},
		{
			"buffer":0,
			"byteLength":640,
			"byteOffset":104560,
			"target":34962
		},
		{
			"buffer":0,
			"byteLength":960,
			"byteOffset":105200,
			"target":34962
		},
		{
			"buffer":0,
			"byteLength":960,
			"byteOffset":106160,
			"target":34962
		},
		{
			"buffer":0,
			"byteLength":640,
			"byteOffset":107120,
			"target":34962
		},
		{
			"buffer":0,
			"byteLength":960,
			"byteOffset":107760,
			"target":34962
		},
		{
			"buffer":0,
			"byteLength":960,
			"byteOffset":108720,
			"target":34962
		},
		{
			"buffer":0,
			"byteLength":640,
			"byteOffset":109680,
			"target":34962
		},
		{
			"buffer":0,
			"byteLength":960,
			"byteOffset":110320,
			"target":34962
		},
		{
			"buffer":0,
			"byteLength":960,
			"byteOffset":111280,
			"target":34962
		},
		{
			"buffer":0,
			"byteLength":640,
			"byteOffset":112240,
			"target":34962
		},
		{
			"buffer":0,
			"byteLength":960,
			"byteOffset":112880,
			"target":34962
		},
		{
			"buffer":0,
			"byteLength":960,
			"byteOffset":113840,
			"target":34962
		},
		{
			"buffer":0,
			"byteLength":640,
			"byteOffset":114800,
			"target":34962
		},
		{
			"buffer":0,
			"byteLength":960,
			"byteOffset":115440,
			"target":34962
		},
		{
			"buffer":0,
			"byteLength":960,
			"byteOffset":116400,
			"target":34962
		},
		{
			"buffer":0,
			"byteLength":640,
			"byteOffset":117360,
			"target":34962
		},
		{
			"buffer":0,
			"byteLength":960,
			"byteOffset":118000,
			"target":34962
		},
		{
			"buffer":0,
			"byteLength":960,
			"byteOffset":118960,
			"target":34962
		},
		{
			"buffer":0,
			"byteLength":640,
			"byteOffset":119920,
			"target":34962
		},
		{
			"buffer":0,
			"byteLength":960,
			"byteOffset":120560,
			"target":34962
		},
		{
			"buffer":0,
			"byteLength":960,
			"byteOffset":121520,
			"target":34962
		},
		{
			"buffer":0,
			"byteLength":640,
			"byteOffset":122480,
			"target":34962
		},
		{
			"buffer":0,
			"byteLength":960,
			"byteOffset":123120,
			"target":34962
		},
		{
			"buffer":0,
			"byteLength":960,
			"byteOffset":124080,
			"target":34962
		},
		{
			"buffer":0,
			"byteLength":640,
			"byteOffset":125040,
			"target":34962
		},
		{
			"buffer":0,
			"byteLength":960,
			"byteOffset":125680,
			"target":34962
		},
		{
			"buffer":0,
			"byteLength":960,
			"byteOffset":126640,
			"target":34962
		},
		{
			"buffer":0,
			"byteLength":640,
			"byteOffset":127600,
			"target":34962
		},
		{
			"buffer":0,
			"byteLength":960,
			"byteOffset":128240,
			"target":34962
		},
		{
			"buffer":0,
			"byteLength":960,
			"byteOffset":129200,
			"target":34962
		},
		{
			"buffer":0,
			"byteLength":640,
			"byteOffset":130160,
			"target":34962
		},
		{
			"buffer":0,
			"byteLength":960,
			"byteOffset":130800,
			"target":34962
		},
		{
			"buffer":0,
			"byteLength":960,
			"byteOffset":131760,
			"target":34962
		},
		{
			"buffer":0,
			"byteLength":640,
			"byteOffset":132720,
			"target":34962
		},
		{
			"buffer":0,
			"byteLength":960,
			"byteOffset":133360,
			"target":34962
		},
		{
			"buffer":0,
			"byteLength":960,
			"byteOffset":134320,
			"target":34962
		},
		{
			"buffer":0,
			"byteLength":640,
			"byteOffset":135280,
			"target":34962
		},
		{
			"buffer":0,
			"byteLength":960,
			"byteOffset":135920,
			"target":34962
		},
		{
			"buffer":0,
			"byteLength":960,
			"byteOffset":136880,
			"target":34962
		},
		{
			"buffer":0,
			"byteLength":640,
			"byteOffset":137840,
			"target":34962
		},
		{
			"buffer":0,
			"byteLength":960,
			"byteOffset":138480,
			"target":34962
		},
		{
			"buffer":0,
			"byteLength":960,
			"byteOffset":139440,
			"target":34962
		},
		{
			"buffer":0,
			"byteLength":640,
			"byteOffset":140400,
			"target":34962
		},
		{
			"buffer":0,
			"byteLength":960,
			"byteOffset":141040,
			"target":34962
		},
		{
			"buffer":0,
			"byteLength":960,
			"byteOffset":142000,
			"target":34962
		},
		{
			"buffer":0,
			"byteLength":640,
			"byteOffset":142960,
			"target":34962
		},
		{
			"buffer":0,
			"byteLength":960,
			"byteOffset":143600,
			"target":34962
		},
		{
			"buffer":0,
			"byteLength":960,
			"byteOffset":144560,
			"target":34962
		},
		{
			"buffer":0,
			"byteLength":640,
			"byteOffset":145520,
			"target":34962
		},
		{
			"buffer":0,
			"byteLength":960,
			"byteOffset":146160,
			"target":34962
		},
		{
			"buffer":0,
			"byteLength":960,
			"byteOffset":147120,
			"target":34962
		},
		{
			"buffer":0,
			"byteLength":640,
			"byteOffset":148080,
			"target":34962
		},
		{
			"buffer":0,
			"byteLength":960,
			"byteOffset":148720,
			"target":34962
		},
		{
			"buffer":0,
			"byteLength":960,
			"byteOffset":149680,
			"target":34962
		},
		{
			"buffer":0,
			"byteLength":640,
			"byteOffset":150640,
			"target":34962
		},
		{
			"buffer":0,
			"byteLength":960,
			"byteOffset":151280,
			"target":34962
		},
		{
			"buffer":0,
			"byteLength":960,
			"byteOffset":152240,
			"target":34962
		},
		{
			"buffer":0,
			"byteLength":640,
			"byteOffset":153200,
			"target":34962
		}
	],
	"samplers":[
		{
			"magFilter":9729,
			"minFilter":9987
		}
	],
	"buffers":[
		{
			"byteLength":153840,
			"uri":"Ground.bin"
		}
	]
}
