{
	"asset":{
		"generator":"Khronos glTF Blender I/O v5.1.19",
		"version":"2.0"
	},
	"scene":0,
	"scenes":[
		{
			"name":"Scene",
			"nodes":[
				0,
				1,
				2
			]
		}
	],
	"nodes":[
		{
			"mesh":0,
			"name":"Cube.003",
			"rotation":[
				0.7071068286895752,
				0,
				0,
				0.7071068286895752
			]
		},
		{
			"mesh":1,
			"name":"basketball",
			"rotation":[
				0,
				0.7027896642684937,
				0,
				0.7113977670669556
			],
			"scale":[
				0.4498288631439209,
				3.969101667404175,
				3.968515157699585
			],
			"translation":[
				0,
				0.04046304151415825,
				1.0153855085372925
			]
		},
		{
			"mesh":2,
			"name":"COL",
			"scale":[
				1,
				0.21925169229507446,
				1
			],
			"translation":[
				0,
				-0.3079379200935364,
				0
			]
		}
	],
	"materials":[
		{
			"doubleSided":true,
			"name":"Strip1.003",
			"pbrMetallicRoughness":{
				"baseColorFactor":[
					0.2476309984922409,
					0.15034599602222443,
					0.07047700136899948,
					1
				],
				"metallicFactor":0,
				"roughnessFactor":0.4307900071144104
			}
		},
		{
			"doubleSided":true,
			"name":"Strip2.003",
			"pbrMetallicRoughness":{
				"metallicFactor":0,
				"roughnessFactor":0.525658369064331
			}
		},
		{
			"doubleSided":true,
			"name":"Base.003",
			"pbrMetallicRoughness":{
				"baseColorFactor":[
					0.4262140095233917,
					0.2644740045070648,
					0.1735980063676834,
					1
				],
				"metallicFactor":0,
				"roughnessFactor":0.525658369064331
			}
		},
		{
			"doubleSided":true,
			"name":"\u30de\u30c6\u30ea\u30a2\u30eb",
			"pbrMetallicRoughness":{
				"baseColorTexture":{
					"index":0
				},
				"metallicFactor":0,
				"roughnessFactor":0.5
			}
		}
	],
	"meshes":[
		{
			"name":"Cube.003",
			"primitives":[
				{
					"attributes":{
						"POSITION":0,
						"NORMAL":1,
						"TEXCOORD_0":2
					},
					"indices":3,
					"material":0
				},
				{
					"attributes":{
						"POSITION":4,
						"NORMAL":5,
						"TEXCOORD_0":6
					},
					"indices":7,
					"material":1
				},
				{
					"attributes":{
						"POSITION":8,
						"NORMAL":9,
						"TEXCOORD_0":10
					},
					"indices":11,
					"material":2
				}
			]
		},
		{
			"name":"basketball",
			"primitives":[
				{
					"attributes":{
						"POSITION":12,
						"NORMAL":13,
						"TEXCOORD_0":14
					},
					"indices":15,
					"material":3
				}
			]
		},
		{
			"name":"\u7acb\u65b9\u4f53",
			"primitives":[
				{
					"attributes":{
						"POSITION":16,
						"NORMAL":17,
						"TEXCOORD_0":18
					},
					"indices":19
				}
			]
		}
	],
	"textures":[
		{
			"sampler":0,
			"source":0
		}
	],
	"images":[
		{
			"mimeType":"image/png",
			"name":"classic_baseColor",
			"uri":"classic_baseColor.png"
		}
	],
	"accessors":[
		{
			"bufferView":0,
			"componentType":5126,
			"count":24,
			"max":[
				1,
				0.9952836036682129,
				0.19779831171035767
			],
			"min":[
				-1,
				-1.004716396331787,
				0.0816643238067627
			],
			"type":"VEC3"
		},
		{
			"bufferView":1,
			"componentType":5126,
			"count":24,
			"type":"VEC3"
		},
		{
			"bufferView":2,
			"componentType":5126,
			"count":24,
			"type":"VEC2"
		},
		{
			"bufferView":3,
			"componentType":5123,
			"count":36,
			"type":"SCALAR"
		},
		{
			"bufferView":4,
			"componentType":5126,
			"count":28,
			"max":[
				1,
				0.2452988624572754,
				0.42411431670188904
			],
			"min":[
				-1,
				-0.23548507690429688,
				-0.5338456630706787
			],
			"type":"VEC3"
		},
		{
			"bufferView":5,
			"componentType":5126,
			"count":28,
			"type":"VEC3"
		},
		{
			"bufferView":6,
			"componentType":5126,
			"count":28,
			"type":"VEC2"
		},
		{
			"bufferView":7,
			"componentType":5123,
			"count":54,
			"type":"SCALAR"
		},
		{
			"bufferView":8,
			"componentType":5126,
			"count":106,
			"max":[
				1,
				0.9952836036682129,
				0.42411431670188904
			],
			"min":[
				-1,
				-1.004716396331787,
				-0.5338456630706787
			],
			"type":"VEC3"
		},
		{
			"bufferView":9,
			"componentType":5126,
			"count":106,
			"type":"VEC3"
		},
		{
			"bufferView":10,
			"componentType":5126,
			"count":106,
			"type":"VEC2"
		},
		{
			"bufferView":11,
			"componentType":5123,
			"count":186,
			"type":"SCALAR"
		},
		{
			"bufferView":12,
			"componentType":5126,
			"count":592,
			"max":[
				0.11646680533885956,
				0.11642046272754669,
				0.1196521669626236
			],
			"min":[
				-0.11646673083305359,
				-0.11642053723335266,
				-0.11965228617191315
			],
			"type":"VEC3"
		},
		{
			"bufferView":13,
			"componentType":5126,
			"count":592,
			"type":"VEC3"
		},
		{
			"bufferView":14,
			"componentType":5126,
			"count":592,
			"type":"VEC2"
		},
		{
			"bufferView":15,
			"componentType":5123,
			"count":3264,
			"type":"SCALAR"
		},
		{
			"bufferView":16,
			"componentType":5126,
			"count":24,
			"max":[
				1,
				1,
				1
			],
			"min":[
				-1,
				-1,
				-1
			],
			"type":"VEC3"
		},
		{
			"bufferView":17,
			"componentType":5126,
			"count":24,
			"type":"VEC3"
		},
		{
			"bufferView":18,
			"componentType":5126,
			"count":24,
			"type":"VEC2"
		},
		{
			"bufferView":19,
			"componentType":5123,
			"count":36,
			"type":"SCALAR"
		}
	],
	"bufferViews":[
		{
			"buffer":0,
			"byteLength":288,
			"byteOffset":0,
			"target":34962
		},
		{
			"buffer":0,
			"byteLength":288,
			"byteOffset":288,
			"target":34962
		},
		{
			"buffer":0,
			"byteLength":192,
			"byteOffset":576,
			"target":34962
		},
		{
			"buffer":0,
			"byteLength":72,
			"byteOffset":768,
			"target":34963
		},
		{
			"buffer":0,
			"byteLength":336,
			"byteOffset":840,
			"target":34962
		},
		{
			"buffer":0,
			"byteLength":336,
			"byteOffset":1176,
			"target":34962
		},
		{
			"buffer":0,
			"byteLength":224,
			"byteOffset":1512,
			"target":34962
		},
		{
			"buffer":0,
			"byteLength":108,
			"byteOffset":1736,
			"target":34963
		},
		{
			"buffer":0,
			"byteLength":1272,
			"byteOffset":1844,
			"target":34962
		},
		{
			"buffer":0,
			"byteLength":1272,
			"byteOffset":3116,
			"target":34962
		},
		{
			"buffer":0,
			"byteLength":848,
			"byteOffset":4388,
			"target":34962
		},
		{
			"buffer":0,
			"byteLength":372,
			"byteOffset":5236,
			"target":34963
		},
		{
			"buffer":0,
			"byteLength":7104,
			"byteOffset":5608,
			"target":34962
		},
		{
			"buffer":0,
			"byteLength":7104,
			"byteOffset":12712,
			"target":34962
		},
		{
			"buffer":0,
			"byteLength":4736,
			"byteOffset":19816,
			"target":34962
		},
		{
			"buffer":0,
			"byteLength":6528,
			"byteOffset":24552,
			"target":34963
		},
		{
			"buffer":0,
			"byteLength":288,
			"byteOffset":31080,
			"target":34962
		},
		{
			"buffer":0,
			"byteLength":288,
			"byteOffset":31368,
			"target":34962
		},
		{
			"buffer":0,
			"byteLength":192,
			"byteOffset":31656,
			"target":34962
		},
		{
			"buffer":0,
			"byteLength":72,
			"byteOffset":31848,
			"target":34963
		}
	],
	"samplers":[
		{
			"magFilter":9729,
			"minFilter":9987
		}
	],
	"buffers":[
		{
			"byteLength":31920,
			"uri":"BasketBallBox.bin"
		}
	]
}
