{
	"asset":{
		"generator":"Khronos glTF Blender I/O v5.1.19",
		"version":"2.0"
	},
	"scene":0,
	"scenes":[
		{
			"name":"Scene",
			"nodes":[
				0,
				1
			]
		}
	],
	"nodes":[
		{
			"mesh":0,
			"name":"COL",
			"scale":[
				-0.31657516956329346,
				-0.31657516956329346,
				-0.31657516956329346
			],
			"translation":[
				0,
				-0.021258577704429626,
				0
			]
		},
		{
			"mesh":1,
			"name":"Solid.001",
			"scale":[
				0.9225705862045288,
				0.9225705862045288,
				0.9225705862045288
			]
		}
	],
	"materials":[
		{
			"doubleSided":true,
			"name":"Bianco"
		},
		{
			"doubleSided":true,
			"name":"Nero.001",
			"pbrMetallicRoughness":{
				"baseColorFactor":[
					0,
					0,
					0,
					1
				],
				"metallicFactor":0,
				"roughnessFactor":0.5
			}
		}
	],
	"meshes":[
		{
			"name":"\u7acb\u65b9\u4f53",
			"primitives":[
				{
					"attributes":{
						"POSITION":0,
						"NORMAL":1,
						"TEXCOORD_0":2
					},
					"indices":3
				}
			]
		},
		{
			"name":"Solid.001",
			"primitives":[
				{
					"attributes":{
						"POSITION":4,
						"NORMAL":5
					},
					"indices":6,
					"material":0
				},
				{
					"attributes":{
						"POSITION":7,
						"NORMAL":8
					},
					"indices":9,
					"material":1
				}
			]
		}
	],
	"accessors":[
		{
			"bufferView":0,
			"componentType":5126,
			"count":24,
			"max":[
				1,
				1,
				1
			],
			"min":[
				-1,
				-1,
				-1
			],
			"type":"VEC3"
		},
		{
			"bufferView":1,
			"componentType":5126,
			"count":24,
			"type":"VEC3"
		},
		{
			"bufferView":2,
			"componentType":5126,
			"count":24,
			"type":"VEC2"
		},
		{
			"bufferView":3,
			"componentType":5123,
			"count":36,
			"type":"SCALAR"
		},
		{
			"bufferView":4,
			"componentType":5126,
			"count":17255,
			"max":[
				0.5284324288368225,
				0.5284324884414673,
				0.5284324288368225
			],
			"min":[
				-0.5284324884414673,
				-0.5284324288368225,
				-0.5284324288368225
			],
			"type":"VEC3"
		},
		{
			"bufferView":5,
			"componentType":5126,
			"count":17255,
			"type":"VEC3"
		},
		{
			"bufferView":6,
			"componentType":5123,
			"count":65160,
			"type":"SCALAR"
		},
		{
			"bufferView":7,
			"componentType":5126,
			"count":8466,
			"max":[
				0.5250412821769714,
				0.5250412821769714,
				0.5250412821769714
			],
			"min":[
				-0.5250412821769714,
				-0.5250412821769714,
				-0.5250412821769714
			],
			"type":"VEC3"
		},
		{
			"bufferView":8,
			"componentType":5126,
			"count":8466,
			"type":"VEC3"
		},
		{
			"bufferView":9,
			"componentType":5123,
			"count":32580,
			"type":"SCALAR"
		}
	],
	"bufferViews":[
		{
			"buffer":0,
			"byteLength":288,
			"byteOffset":0,
			"target":34962
		},
		{
			"buffer":0,
			"byteLength":288,
			"byteOffset":288,
			"target":34962
		},
		{
			"buffer":0,
			"byteLength":192,
			"byteOffset":576,
			"target":34962
		},
		{
			"buffer":0,
			"byteLength":72,
			"byteOffset":768,
			"target":34963
		},
		{
			"buffer":0,
			"byteLength":207060,
			"byteOffset":840,
			"target":34962
		},
		{
			"buffer":0,
			"byteLength":207060,
			"byteOffset":207900,
			"target":34962
		},
		{
			"buffer":0,
			"byteLength":130320,
			"byteOffset":414960,
			"target":34963
		},
		{
			"buffer":0,
			"byteLength":101592,
			"byteOffset":545280,
			"target":34962
		},
		{
			"buffer":0,
			"byteLength":101592,
			"byteOffset":646872,
			"target":34962
		},
		{
			"buffer":0,
			"byteLength":65160,
			"byteOffset":748464,
			"target":34963
		}
	],
	"buffers":[
		{
			"byteLength":813624,
			"uri":"SoccerBall.bin"
		}
	]
}
