{
	"asset":{
		"generator":"Khronos glTF Blender I/O v5.1.19",
		"version":"2.0"
	},
	"scene":0,
	"scenes":[
		{
			"name":"Scene",
			"nodes":[
				0,
				1,
				2
			]
		}
	],
	"nodes":[
		{
			"mesh":0,
			"name":"Cube",
			"translation":[
				-0.10979795455932617,
				1.0899200439453125,
				0
			]
		},
		{
			"mesh":1,
			"name":"Cube.001",
			"translation":[
				-2.1071135997772217,
				1.0899200439453125,
				0
			]
		},
		{
			"mesh":2,
			"name":"Cube.002",
			"translation":[
				1.887820839881897,
				1.0899200439453125,
				0
			]
		}
	],
	"materials":[
		{
			"doubleSided":true,
			"name":"Material.001",
			"pbrMetallicRoughness":{
				"baseColorFactor":[
					0.8000074625015259,
					0.0008380982908420265,
					0,
					1
				],
				"metallicFactor":0,
				"roughnessFactor":0.5
			}
		},
		{
			"doubleSided":true,
			"name":"\u30de\u30c6\u30ea\u30a2\u30eb",
			"pbrMetallicRoughness":{
				"baseColorFactor":[
					0.800000011920929,
					0.800000011920929,
					0.800000011920929,
					1
				],
				"metallicFactor":0,
				"roughnessFactor":0.5
			}
		},
		{
			"doubleSided":true,
			"name":"Material.003",
			"pbrMetallicRoughness":{
				"baseColorFactor":[
					0.0011736025335267186,
					0.8000156879425049,
					0,
					1
				],
				"metallicFactor":0,
				"roughnessFactor":0.5
			}
		},
		{
			"doubleSided":true,
			"name":"\u30de\u30c6\u30ea\u30a2\u30eb.003",
			"pbrMetallicRoughness":{
				"baseColorFactor":[
					0.800000011920929,
					0.800000011920929,
					0.800000011920929,
					1
				],
				"metallicFactor":0,
				"roughnessFactor":0.5
			}
		},
		{
			"doubleSided":true,
			"name":"Material.004",
			"pbrMetallicRoughness":{
				"baseColorFactor":[
					0.0010992990573868155,
					0,
					0.8000156879425049,
					1
				],
				"metallicFactor":0,
				"roughnessFactor":0.5
			}
		},
		{
			"doubleSided":true,
			"name":"\u30de\u30c6\u30ea\u30a2\u30eb.004",
			"pbrMetallicRoughness":{
				"baseColorFactor":[
					0.800000011920929,
					0.800000011920929,
					0.800000011920929,
					1
				],
				"metallicFactor":0,
				"roughnessFactor":0.5
			}
		}
	],
	"meshes":[
		{
			"name":"Cube.001",
			"primitives":[
				{
					"attributes":{
						"POSITION":0,
						"NORMAL":1,
						"TEXCOORD_0":2,
						"TEXCOORD_1":3
					},
					"indices":4,
					"material":0
				},
				{
					"attributes":{
						"POSITION":5,
						"NORMAL":6,
						"TEXCOORD_0":7,
						"TEXCOORD_1":8
					},
					"indices":9,
					"material":1
				}
			]
		},
		{
			"name":"Cube.004",
			"primitives":[
				{
					"attributes":{
						"POSITION":10,
						"NORMAL":11,
						"TEXCOORD_0":12,
						"TEXCOORD_1":13
					},
					"indices":4,
					"material":2
				},
				{
					"attributes":{
						"POSITION":14,
						"NORMAL":15,
						"TEXCOORD_0":16,
						"TEXCOORD_1":17
					},
					"indices":9,
					"material":3
				}
			]
		},
		{
			"name":"Cube.005",
			"primitives":[
				{
					"attributes":{
						"POSITION":18,
						"NORMAL":19,
						"TEXCOORD_0":20,
						"TEXCOORD_1":21
					},
					"indices":4,
					"material":4
				},
				{
					"attributes":{
						"POSITION":22,
						"NORMAL":23,
						"TEXCOORD_0":24,
						"TEXCOORD_1":25
					},
					"indices":9,
					"material":5
				}
			]
		}
	],
	"accessors":[
		{
			"bufferView":0,
			"componentType":5126,
			"count":60,
			"max":[
				1,
				1,
				1
			],
			"min":[
				-1,
				-1,
				-1
			],
			"type":"VEC3"
		},
		{
			"bufferView":1,
			"componentType":5126,
			"count":60,
			"type":"VEC3"
		},
		{
			"bufferView":2,
			"componentType":5126,
			"count":60,
			"type":"VEC2"
		},
		{
			"bufferView":3,
			"componentType":5126,
			"count":60,
			"type":"VEC2"
		},
		{
			"bufferView":4,
			"componentType":5123,
			"count":114,
			"type":"SCALAR"
		},
		{
			"bufferView":5,
			"componentType":5126,
			"count":6,
			"max":[
				0.8821500539779663,
				1,
				-0.8821500539779663
			],
			"min":[
				-0.8821500539779663,
				-1,
				-0.8821500539779663
			],
			"type":"VEC3"
		},
		{
			"bufferView":6,
			"componentType":5126,
			"count":6,
			"type":"VEC3"
		},
		{
			"bufferView":7,
			"componentType":5126,
			"count":6,
			"type":"VEC2"
		},
		{
			"bufferView":8,
			"componentType":5126,
			"count":6,
			"type":"VEC2"
		},
		{
			"bufferView":9,
			"componentType":5123,
			"count":12,
			"type":"SCALAR"
		},
		{
			"bufferView":10,
			"componentType":5126,
			"count":60,
			"max":[
				1,
				1,
				1
			],
			"min":[
				-1,
				-1,
				-1
			],
			"type":"VEC3"
		},
		{
			"bufferView":11,
			"componentType":5126,
			"count":60,
			"type":"VEC3"
		},
		{
			"bufferView":12,
			"componentType":5126,
			"count":60,
			"type":"VEC2"
		},
		{
			"bufferView":13,
			"componentType":5126,
			"count":60,
			"type":"VEC2"
		},
		{
			"bufferView":14,
			"componentType":5126,
			"count":6,
			"max":[
				0.8821500539779663,
				1,
				-0.8821500539779663
			],
			"min":[
				-0.8821500539779663,
				-1,
				-0.8821500539779663
			],
			"type":"VEC3"
		},
		{
			"bufferView":15,
			"componentType":5126,
			"count":6,
			"type":"VEC3"
		},
		{
			"bufferView":16,
			"componentType":5126,
			"count":6,
			"type":"VEC2"
		},
		{
			"bufferView":17,
			"componentType":5126,
			"count":6,
			"type":"VEC2"
		},
		{
			"bufferView":18,
			"componentType":5126,
			"count":60,
			"max":[
				1,
				1,
				1
			],
			"min":[
				-1,
				-1,
				-1
			],
			"type":"VEC3"
		},
		{
			"bufferView":19,
			"componentType":5126,
			"count":60,
			"type":"VEC3"
		},
		{
			"bufferView":20,
			"componentType":5126,
			"count":60,
			"type":"VEC2"
		},
		{
			"bufferView":21,
			"componentType":5126,
			"count":60,
			"type":"VEC2"
		},
		{
			"bufferView":22,
			"componentType":5126,
			"count":6,
			"max":[
				0.8821500539779663,
				1,
				-0.8821500539779663
			],
			"min":[
				-0.8821500539779663,
				-1,
				-0.8821500539779663
			],
			"type":"VEC3"
		},
		{
			"bufferView":23,
			"componentType":5126,
			"count":6,
			"type":"VEC3"
		},
		{
			"bufferView":24,
			"componentType":5126,
			"count":6,
			"type":"VEC2"
		},
		{
			"bufferView":25,
			"componentType":5126,
			"count":6,
			"type":"VEC2"
		}
	],
	"bufferViews":[
		{
			"buffer":0,
			"byteLength":720,
			"byteOffset":0,
			"target":34962
		},
		{
			"buffer":0,
			"byteLength":720,
			"byteOffset":720,
			"target":34962
		},
		{
			"buffer":0,
			"byteLength":480,
			"byteOffset":1440,
			"target":34962
		},
		{
			"buffer":0,
			"byteLength":480,
			"byteOffset":1920,
			"target":34962
		},
		{
			"buffer":0,
			"byteLength":228,
			"byteOffset":2400,
			"target":34963
		},
		{
			"buffer":0,
			"byteLength":72,
			"byteOffset":2628,
			"target":34962
		},
		{
			"buffer":0,
			"byteLength":72,
			"byteOffset":2700,
			"target":34962
		},
		{
			"buffer":0,
			"byteLength":48,
			"byteOffset":2772,
			"target":34962
		},
		{
			"buffer":0,
			"byteLength":48,
			"byteOffset":2820,
			"target":34962
		},
		{
			"buffer":0,
			"byteLength":24,
			"byteOffset":2868,
			"target":34963
		},
		{
			"buffer":0,
			"byteLength":720,
			"byteOffset":2892,
			"target":34962
		},
		{
			"buffer":0,
			"byteLength":720,
			"byteOffset":3612,
			"target":34962
		},
		{
			"buffer":0,
			"byteLength":480,
			"byteOffset":4332,
			"target":34962
		},
		{
			"buffer":0,
			"byteLength":480,
			"byteOffset":4812,
			"target":34962
		},
		{
			"buffer":0,
			"byteLength":72,
			"byteOffset":5292,
			"target":34962
		},
		{
			"buffer":0,
			"byteLength":72,
			"byteOffset":5364,
			"target":34962
		},
		{
			"buffer":0,
			"byteLength":48,
			"byteOffset":5436,
			"target":34962
		},
		{
			"buffer":0,
			"byteLength":48,
			"byteOffset":5484,
			"target":34962
		},
		{
			"buffer":0,
			"byteLength":720,
			"byteOffset":5532,
			"target":34962
		},
		{
			"buffer":0,
			"byteLength":720,
			"byteOffset":6252,
			"target":34962
		},
		{
			"buffer":0,
			"byteLength":480,
			"byteOffset":6972,
			"target":34962
		},
		{
			"buffer":0,
			"byteLength":480,
			"byteOffset":7452,
			"target":34962
		},
		{
			"buffer":0,
			"byteLength":72,
			"byteOffset":7932,
			"target":34962
		},
		{
			"buffer":0,
			"byteLength":72,
			"byteOffset":8004,
			"target":34962
		},
		{
			"buffer":0,
			"byteLength":48,
			"byteOffset":8076,
			"target":34962
		},
		{
			"buffer":0,
			"byteLength":48,
			"byteOffset":8124,
			"target":34962
		}
	],
	"buffers":[
		{
			"byteLength":8172,
			"uri":"Box.bin"
		}
	]
}
