{
	"asset":{
		"generator":"Khronos glTF Blender I/O v5.1.19",
		"version":"2.0"
	},
	"extensionsUsed":[
		"KHR_materials_specular"
	],
	"scene":0,
	"scenes":[
		{
			"name":"Scene",
			"nodes":[
				0,
				1,
				2,
				3,
				4,
				5,
				6,
				7,
				8,
				9
			]
		}
	],
	"nodes":[
		{
			"mesh":0,
			"name":"basketball",
			"translation":[
				0.3376815915107727,
				0.3879903256893158,
				-0.2843182682991028
			]
		},
		{
			"mesh":1,
			"name":"Solid.001",
			"scale":[
				0.9225705862045288,
				0.9225705862045288,
				0.9225705862045288
			],
			"translation":[
				0.32077327370643616,
				0.38783764839172363,
				-1.3042895793914795
			]
		},
		{
			"mesh":2,
			"name":"volleyball",
			"rotation":[
				0.6728560328483582,
				-0.016640877351164818,
				-0.19100403785705566,
				0.7144965529441833
			],
			"scale":[
				1.4242205619812012,
				1.4242205619812012,
				1.4242205619812012
			],
			"translation":[
				0.3791854679584503,
				0.38063275814056396,
				-2.2879080772399902
			]
		},
		{
			"mesh":3,
			"name":"volleyball.001",
			"rotation":[
				0.6728560328483582,
				-0.016640877351164818,
				-0.19100403785705566,
				0.7144965529441833
			],
			"scale":[
				1.4242205619812012,
				1.4242205619812012,
				1.4242205619812012
			],
			"translation":[
				0.3791854679584503,
				-0.7848555445671082,
				-2.2879080772399902
			]
		},
		{
			"mesh":4,
			"name":"Solid.002",
			"scale":[
				0.9225705862045288,
				0.9225705862045288,
				0.9225705862045288
			],
			"translation":[
				0.32077327370643616,
				-0.7776506543159485,
				-1.3042895793914795
			]
		},
		{
			"mesh":5,
			"name":"basketball.001",
			"translation":[
				0.3376815915107727,
				-0.7774979472160339,
				-0.2843182682991028
			]
		},
		{
			"mesh":6,
			"name":"volleyball.002",
			"rotation":[
				0.6728560328483582,
				-0.016640877351164818,
				-0.19100403785705566,
				0.7144965529441833
			],
			"scale":[
				1.4242205619812012,
				1.4242205619812012,
				1.4242205619812012
			],
			"translation":[
				0.3791854679584503,
				1.68129563331604,
				-2.1412768363952637
			]
		},
		{
			"mesh":7,
			"name":"Solid.003",
			"scale":[
				0.9225705862045288,
				0.9225705862045288,
				0.9225705862045288
			],
			"translation":[
				0.32077327370643616,
				1.6864913702011108,
				-1.2877382040023804
			]
		},
		{
			"mesh":8,
			"name":"basketball.002",
			"translation":[
				0.3376815915107727,
				1.6866440773010254,
				-0.4006694555282593
			]
		},
		{
			"mesh":9,
			"name":"Cylinder",
			"translation":[
				0.3628268837928772,
				0,
				-1.2588247060775757
			]
		}
	],
	"materials":[
		{
			"doubleSided":true,
			"name":"\u30de\u30c6\u30ea\u30a2\u30eb.001",
			"pbrMetallicRoughness":{
				"baseColorTexture":{
					"index":0
				},
				"metallicFactor":0,
				"roughnessFactor":0.5
			}
		},
		{
			"doubleSided":true,
			"name":"Bianco"
		},
		{
			"doubleSided":true,
			"name":"Nero.001",
			"pbrMetallicRoughness":{
				"baseColorFactor":[
					0,
					0,
					0,
					1
				],
				"metallicFactor":0,
				"roughnessFactor":0.5
			}
		},
		{
			"doubleSided":true,
			"extensions":{
				"KHR_materials_specular":{
					"specularFactor":0
				}
			},
			"name":"orig_normal",
			"pbrMetallicRoughness":{
				"baseColorTexture":{
					"index":1
				},
				"metallicFactor":0
			}
		},
		{
			"doubleSided":true,
			"extensions":{
				"KHR_materials_specular":{
					"specularFactor":0
				}
			},
			"name":"orig_normal.001",
			"pbrMetallicRoughness":{
				"baseColorTexture":{
					"index":2
				},
				"metallicFactor":0
			}
		},
		{
			"doubleSided":true,
			"name":"Bianco.001"
		},
		{
			"doubleSided":true,
			"name":"Nero.002",
			"pbrMetallicRoughness":{
				"baseColorFactor":[
					0,
					0,
					0,
					1
				],
				"metallicFactor":0,
				"roughnessFactor":0.5
			}
		},
		{
			"doubleSided":true,
			"name":"\u30de\u30c6\u30ea\u30a2\u30eb.002",
			"pbrMetallicRoughness":{
				"baseColorTexture":{
					"index":3
				},
				"metallicFactor":0,
				"roughnessFactor":0.5
			}
		},
		{
			"doubleSided":true,
			"extensions":{
				"KHR_materials_specular":{
					"specularFactor":0
				}
			},
			"name":"orig_normal.002",
			"pbrMetallicRoughness":{
				"baseColorTexture":{
					"index":4
				},
				"metallicFactor":0
			}
		},
		{
			"doubleSided":true,
			"name":"Bianco.002"
		},
		{
			"doubleSided":true,
			"name":"Nero.003",
			"pbrMetallicRoughness":{
				"baseColorFactor":[
					0,
					0,
					0,
					1
				],
				"metallicFactor":0,
				"roughnessFactor":0.5
			}
		},
		{
			"doubleSided":true,
			"name":"\u30de\u30c6\u30ea\u30a2\u30eb.003",
			"pbrMetallicRoughness":{
				"baseColorTexture":{
					"index":5
				},
				"metallicFactor":0,
				"roughnessFactor":0.5
			}
		},
		{
			"doubleSided":true,
			"name":"\u30de\u30c6\u30ea\u30a2\u30eb",
			"pbrMetallicRoughness":{
				"baseColorFactor":[
					0.47169017791748047,
					0.4664248824119568,
					0.4769912362098694,
					1
				],
				"metallicFactor":0,
				"roughnessFactor":0.5
			}
		}
	],
	"meshes":[
		{
			"name":"basketball",
			"primitives":[
				{
					"attributes":{
						"POSITION":0,
						"NORMAL":1,
						"TEXCOORD_0":2
					},
					"indices":3,
					"material":0
				}
			]
		},
		{
			"name":"Solid.001",
			"primitives":[
				{
					"attributes":{
						"POSITION":4,
						"NORMAL":5
					},
					"indices":6,
					"material":1
				},
				{
					"attributes":{
						"POSITION":7,
						"NORMAL":8
					},
					"indices":9,
					"material":2
				}
			]
		},
		{
			"name":"volleyball",
			"primitives":[
				{
					"attributes":{
						"POSITION":10,
						"NORMAL":11,
						"TEXCOORD_0":12
					},
					"indices":13,
					"material":3
				}
			]
		},
		{
			"name":"volleyball.001",
			"primitives":[
				{
					"attributes":{
						"POSITION":14,
						"NORMAL":15,
						"TEXCOORD_0":16
					},
					"indices":13,
					"material":4
				}
			]
		},
		{
			"name":"Solid.002",
			"primitives":[
				{
					"attributes":{
						"POSITION":17,
						"NORMAL":18
					},
					"indices":6,
					"material":5
				},
				{
					"attributes":{
						"POSITION":19,
						"NORMAL":20
					},
					"indices":9,
					"material":6
				}
			]
		},
		{
			"name":"basketball.001",
			"primitives":[
				{
					"attributes":{
						"POSITION":21,
						"NORMAL":22,
						"TEXCOORD_0":23
					},
					"indices":3,
					"material":7
				}
			]
		},
		{
			"name":"volleyball.002",
			"primitives":[
				{
					"attributes":{
						"POSITION":24,
						"NORMAL":25,
						"TEXCOORD_0":26
					},
					"indices":13,
					"material":8
				}
			]
		},
		{
			"name":"Solid.003",
			"primitives":[
				{
					"attributes":{
						"POSITION":27,
						"NORMAL":28
					},
					"indices":6,
					"material":9
				},
				{
					"attributes":{
						"POSITION":29,
						"NORMAL":30
					},
					"indices":9,
					"material":10
				}
			]
		},
		{
			"name":"basketball.002",
			"primitives":[
				{
					"attributes":{
						"POSITION":31,
						"NORMAL":32,
						"TEXCOORD_0":33
					},
					"indices":3,
					"material":11
				}
			]
		},
		{
			"name":"Cylinder",
			"primitives":[
				{
					"attributes":{
						"POSITION":34,
						"NORMAL":35,
						"TEXCOORD_0":36
					},
					"indices":37,
					"material":12
				}
			]
		}
	],
	"textures":[
		{
			"sampler":0,
			"source":0
		},
		{
			"sampler":0,
			"source":1
		},
		{
			"sampler":0,
			"source":1
		},
		{
			"sampler":0,
			"source":0
		},
		{
			"sampler":0,
			"source":1
		},
		{
			"sampler":0,
			"source":0
		}
	],
	"images":[
		{
			"mimeType":"image/png",
			"name":"classic_baseColor",
			"uri":"classic_baseColor.png"
		},
		{
			"mimeType":"image/jpeg",
			"name":"volleyball_diffuse_noAO",
			"uri":"volleyball_diffuse_noAO.jpg"
		}
	],
	"accessors":[
		{
			"bufferView":0,
			"componentType":5126,
			"count":592,
			"max":[
				0.47510308027267456,
				0.46208468079566956,
				0.46223410964012146
			],
			"min":[
				-0.47510355710983276,
				-0.46208497881889343,
				-0.46223440766334534
			],
			"type":"VEC3"
		},
		{
			"bufferView":1,
			"componentType":5126,
			"count":592,
			"type":"VEC3"
		},
		{
			"bufferView":2,
			"componentType":5126,
			"count":592,
			"type":"VEC2"
		},
		{
			"bufferView":3,
			"componentType":5123,
			"count":3264,
			"type":"SCALAR"
		},
		{
			"bufferView":4,
			"componentType":5126,
			"count":17808,
			"max":[
				0.5284324288368225,
				0.5284324884414673,
				0.5284324288368225
			],
			"min":[
				-0.5284324884414673,
				-0.5284324288368225,
				-0.5284324288368225
			],
			"type":"VEC3"
		},
		{
			"bufferView":5,
			"componentType":5126,
			"count":17808,
			"type":"VEC3"
		},
		{
			"bufferView":6,
			"componentType":5123,
			"count":65160,
			"type":"SCALAR"
		},
		{
			"bufferView":7,
			"componentType":5126,
			"count":8477,
			"max":[
				0.5250412821769714,
				0.5250412821769714,
				0.5250412821769714
			],
			"min":[
				-0.5250412821769714,
				-0.5250412821769714,
				-0.5250412821769714
			],
			"type":"VEC3"
		},
		{
			"bufferView":8,
			"componentType":5126,
			"count":8477,
			"type":"VEC3"
		},
		{
			"bufferView":9,
			"componentType":5123,
			"count":32580,
			"type":"SCALAR"
		},
		{
			"bufferView":10,
			"componentType":5126,
			"count":69308,
			"max":[
				0.31779542565345764,
				0.31623250246047974,
				0.3169407844543457
			],
			"min":[
				-0.31787624955177307,
				-0.31626421213150024,
				-0.31700587272644043
			],
			"type":"VEC3"
		},
		{
			"bufferView":11,
			"componentType":5126,
			"count":69308,
			"type":"VEC3"
		},
		{
			"bufferView":12,
			"componentType":5126,
			"count":69308,
			"type":"VEC2"
		},
		{
			"bufferView":13,
			"componentType":5125,
			"count":99702,
			"type":"SCALAR"
		},
		{
			"bufferView":14,
			"componentType":5126,
			"count":69308,
			"max":[
				0.31779542565345764,
				0.31623250246047974,
				0.3169407844543457
			],
			"min":[
				-0.31787624955177307,
				-0.31626421213150024,
				-0.31700587272644043
			],
			"type":"VEC3"
		},
		{
			"bufferView":15,
			"componentType":5126,
			"count":69308,
			"type":"VEC3"
		},
		{
			"bufferView":16,
			"componentType":5126,
			"count":69308,
			"type":"VEC2"
		},
		{
			"bufferView":17,
			"componentType":5126,
			"count":17808,
			"max":[
				0.5284324288368225,
				0.5284324884414673,
				0.5284324288368225
			],
			"min":[
				-0.5284324884414673,
				-0.5284324288368225,
				-0.5284324288368225
			],
			"type":"VEC3"
		},
		{
			"bufferView":18,
			"componentType":5126,
			"count":17808,
			"type":"VEC3"
		},
		{
			"bufferView":19,
			"componentType":5126,
			"count":8477,
			"max":[
				0.5250412821769714,
				0.5250412821769714,
				0.5250412821769714
			],
			"min":[
				-0.5250412821769714,
				-0.5250412821769714,
				-0.5250412821769714
			],
			"type":"VEC3"
		},
		{
			"bufferView":20,
			"componentType":5126,
			"count":8477,
			"type":"VEC3"
		},
		{
			"bufferView":21,
			"componentType":5126,
			"count":592,
			"max":[
				0.47510308027267456,
				0.46208468079566956,
				0.46223410964012146
			],
			"min":[
				-0.47510355710983276,
				-0.46208497881889343,
				-0.46223440766334534
			],
			"type":"VEC3"
		},
		{
			"bufferView":22,
			"componentType":5126,
			"count":592,
			"type":"VEC3"
		},
		{
			"bufferView":23,
			"componentType":5126,
			"count":592,
			"type":"VEC2"
		},
		{
			"bufferView":24,
			"componentType":5126,
			"count":69308,
			"max":[
				0.31779542565345764,
				0.31623250246047974,
				0.3169407844543457
			],
			"min":[
				-0.31787624955177307,
				-0.31626421213150024,
				-0.31700587272644043
			],
			"type":"VEC3"
		},
		{
			"bufferView":25,
			"componentType":5126,
			"count":69308,
			"type":"VEC3"
		},
		{
			"bufferView":26,
			"componentType":5126,
			"count":69308,
			"type":"VEC2"
		},
		{
			"bufferView":27,
			"componentType":5126,
			"count":17808,
			"max":[
				0.5284324288368225,
				0.5284324884414673,
				0.5284324288368225
			],
			"min":[
				-0.5284324884414673,
				-0.5284324288368225,
				-0.5284324288368225
			],
			"type":"VEC3"
		},
		{
			"bufferView":28,
			"componentType":5126,
			"count":17808,
			"type":"VEC3"
		},
		{
			"bufferView":29,
			"componentType":5126,
			"count":8477,
			"max":[
				0.5250412821769714,
				0.5250412821769714,
				0.5250412821769714
			],
			"min":[
				-0.5250412821769714,
				-0.5250412821769714,
				-0.5250412821769714
			],
			"type":"VEC3"
		},
		{
			"bufferView":30,
			"componentType":5126,
			"count":8477,
			"type":"VEC3"
		},
		{
			"bufferView":31,
			"componentType":5126,
			"count":592,
			"max":[
				0.47510308027267456,
				0.46208468079566956,
				0.46223410964012146
			],
			"min":[
				-0.47510355710983276,
				-0.46208497881889343,
				-0.46223440766334534
			],
			"type":"VEC3"
		},
		{
			"bufferView":32,
			"componentType":5126,
			"count":592,
			"type":"VEC3"
		},
		{
			"bufferView":33,
			"componentType":5126,
			"count":592,
			"type":"VEC2"
		},
		{
			"bufferView":34,
			"componentType":5126,
			"count":1618,
			"max":[
				0.8290553092956543,
				1.8173925876617432,
				1.3902677297592163
			],
			"min":[
				-0.8290553092956543,
				-1.534587025642395,
				-1.3902677297592163
			],
			"type":"VEC3"
		},
		{
			"bufferView":35,
			"componentType":5126,
			"count":1618,
			"type":"VEC3"
		},
		{
			"bufferView":36,
			"componentType":5126,
			"count":1618,
			"type":"VEC2"
		},
		{
			"bufferView":37,
			"componentType":5123,
			"count":5478,
			"type":"SCALAR"
		}
	],
	"bufferViews":[
		{
			"buffer":0,
			"byteLength":7104,
			"byteOffset":0,
			"target":34962
		},
		{
			"buffer":0,
			"byteLength":7104,
			"byteOffset":7104,
			"target":34962
		},
		{
			"buffer":0,
			"byteLength":4736,
			"byteOffset":14208,
			"target":34962
		},
		{
			"buffer":0,
			"byteLength":6528,
			"byteOffset":18944,
			"target":34963
		},
		{
			"buffer":0,
			"byteLength":213696,
			"byteOffset":25472,
			"target":34962
		},
		{
			"buffer":0,
			"byteLength":213696,
			"byteOffset":239168,
			"target":34962
		},
		{
			"buffer":0,
			"byteLength":130320,
			"byteOffset":452864,
			"target":34963
		},
		{
			"buffer":0,
			"byteLength":101724,
			"byteOffset":583184,
			"target":34962
		},
		{
			"buffer":0,
			"byteLength":101724,
			"byteOffset":684908,
			"target":34962
		},
		{
			"buffer":0,
			"byteLength":65160,
			"byteOffset":786632,
			"target":34963
		},
		{
			"buffer":0,
			"byteLength":831696,
			"byteOffset":851792,
			"target":34962
		},
		{
			"buffer":0,
			"byteLength":831696,
			"byteOffset":1683488,
			"target":34962
		},
		{
			"buffer":0,
			"byteLength":554464,
			"byteOffset":2515184,
			"target":34962
		},
		{
			"buffer":0,
			"byteLength":398808,
			"byteOffset":3069648,
			"target":34963
		},
		{
			"buffer":0,
			"byteLength":831696,
			"byteOffset":3468456,
			"target":34962
		},
		{
			"buffer":0,
			"byteLength":831696,
			"byteOffset":4300152,
			"target":34962
		},
		{
			"buffer":0,
			"byteLength":554464,
			"byteOffset":5131848,
			"target":34962
		},
		{
			"buffer":0,
			"byteLength":213696,
			"byteOffset":5686312,
			"target":34962
		},
		{
			"buffer":0,
			"byteLength":213696,
			"byteOffset":5900008,
			"target":34962
		},
		{
			"buffer":0,
			"byteLength":101724,
			"byteOffset":6113704,
			"target":34962
		},
		{
			"buffer":0,
			"byteLength":101724,
			"byteOffset":6215428,
			"target":34962
		},
		{
			"buffer":0,
			"byteLength":7104,
			"byteOffset":6317152,
			"target":34962
		},
		{
			"buffer":0,
			"byteLength":7104,
			"byteOffset":6324256,
			"target":34962
		},
		{
			"buffer":0,
			"byteLength":4736,
			"byteOffset":6331360,
			"target":34962
		},
		{
			"buffer":0,
			"byteLength":831696,
			"byteOffset":6336096,
			"target":34962
		},
		{
			"buffer":0,
			"byteLength":831696,
			"byteOffset":7167792,
			"target":34962
		},
		{
			"buffer":0,
			"byteLength":554464,
			"byteOffset":7999488,
			"target":34962
		},
		{
			"buffer":0,
			"byteLength":213696,
			"byteOffset":8553952,
			"target":34962
		},
		{
			"buffer":0,
			"byteLength":213696,
			"byteOffset":8767648,
			"target":34962
		},
		{
			"buffer":0,
			"byteLength":101724,
			"byteOffset":8981344,
			"target":34962
		},
		{
			"buffer":0,
			"byteLength":101724,
			"byteOffset":9083068,
			"target":34962
		},
		{
			"buffer":0,
			"byteLength":7104,
			"byteOffset":9184792,
			"target":34962
		},
		{
			"buffer":0,
			"byteLength":7104,
			"byteOffset":9191896,
			"target":34962
		},
		{
			"buffer":0,
			"byteLength":4736,
			"byteOffset":9199000,
			"target":34962
		},
		{
			"buffer":0,
			"byteLength":19416,
			"byteOffset":9203736,
			"target":34962
		},
		{
			"buffer":0,
			"byteLength":19416,
			"byteOffset":9223152,
			"target":34962
		},
		{
			"buffer":0,
			"byteLength":12944,
			"byteOffset":9242568,
			"target":34962
		},
		{
			"buffer":0,
			"byteLength":10956,
			"byteOffset":9255512,
			"target":34963
		}
	],
	"samplers":[
		{
			"magFilter":9729,
			"minFilter":9987
		}
	],
	"buffers":[
		{
			"byteLength":9266468,
			"uri":"Shelf.bin"
		}
	]
}
