{
	"asset":{
		"generator":"Khronos glTF Blender I/O v5.1.19",
		"version":"2.0"
	},
	"extensionsUsed":[
		"KHR_materials_specular"
	],
	"scene":0,
	"scenes":[
		{
			"name":"Scene",
			"nodes":[
				0,
				1,
				2,
				3,
				4,
				5,
				6,
				7,
				8,
				9,
				10,
				11,
				12,
				13,
				14,
				15,
				16,
				17,
				18,
				19,
				20,
				21,
				22,
				23,
				24,
				25,
				26,
				27,
				28,
				29,
				30,
				31,
				32,
				33,
				34,
				35,
				36,
				37,
				38,
				39,
				40,
				41,
				42,
				43,
				44,
				45,
				46,
				47,
				48,
				49,
				50,
				51,
				52,
				53,
				54,
				55,
				56
			]
		}
	],
	"nodes":[
		{
			"mesh":0,
			"name":"conveyor-stripe-part-end",
			"rotation":[
				0.5006205439567566,
				-0.49937865138053894,
				0.49937862157821655,
				0.5006207227706909
			],
			"translation":[
				0,
				0,
				5.239590167999268
			]
		},
		{
			"mesh":1,
			"name":"conveyor-stripe-part-middle.001",
			"rotation":[
				0.499736487865448,
				-0.5002633929252625,
				0.5002633333206177,
				0.4997365176677704
			]
		},
		{
			"mesh":2,
			"name":"conveyor-stripe-part-middle.002",
			"rotation":[
				0.499736487865448,
				-0.5002633929252625,
				0.5002633333206177,
				0.4997365176677704
			],
			"translation":[
				1.9965593814849854,
				0,
				0
			]
		},
		{
			"mesh":3,
			"name":"conveyor-stripe-part-end.001",
			"rotation":[
				0.5006205439567566,
				-0.49937865138053894,
				0.49937862157821655,
				0.5006207227706909
			],
			"translation":[
				1.9965593814849854,
				0,
				5.239590167999268
			]
		},
		{
			"mesh":4,
			"name":"conveyor-stripe-part-middle.003",
			"rotation":[
				0.499736487865448,
				-0.5002633929252625,
				0.5002633333206177,
				0.4997365176677704
			],
			"translation":[
				4,
				0,
				0
			]
		},
		{
			"mesh":5,
			"name":"conveyor-stripe-part-end.002",
			"rotation":[
				0.5006205439567566,
				-0.49937865138053894,
				0.49937862157821655,
				0.5006207227706909
			],
			"translation":[
				4,
				0,
				5.239590167999268
			]
		},
		{
			"mesh":6,
			"name":"conveyor-stripe-part-middle.004",
			"rotation":[
				0.499736487865448,
				-0.5002633929252625,
				0.5002633333206177,
				0.4997365176677704
			],
			"translation":[
				-2.0131070613861084,
				0,
				0
			]
		},
		{
			"mesh":7,
			"name":"conveyor-stripe-part-end.003",
			"rotation":[
				0.5006205439567566,
				-0.49937865138053894,
				0.49937862157821655,
				0.5006207227706909
			],
			"translation":[
				-2.0131070613861084,
				0,
				5.239590167999268
			]
		},
		{
			"mesh":8,
			"name":"conveyor-stripe-part-middle.005",
			"rotation":[
				0.499736487865448,
				-0.5002633929252625,
				0.5002633333206177,
				0.4997365176677704
			],
			"translation":[
				-4,
				0,
				0
			]
		},
		{
			"mesh":9,
			"name":"conveyor-stripe-part-end.004",
			"rotation":[
				0.5006205439567566,
				-0.49937865138053894,
				0.49937862157821655,
				0.5006207227706909
			],
			"translation":[
				-4,
				0,
				5.239590167999268
			]
		},
		{
			"mesh":10,
			"name":"machine-connection-pipe",
			"rotation":[
				0,
				0.7050467133522034,
				0,
				0.7091608643531799
			],
			"translation":[
				0,
				0.23252877593040466,
				-4.403463363647461
			]
		},
		{
			"mesh":11,
			"name":"machine-connection-pipe.001",
			"rotation":[
				0,
				0.7050467133522034,
				0,
				0.7091608643531799
			],
			"translation":[
				0,
				0.23252877593040466,
				-4.403463363647461
			]
		},
		{
			"mesh":12,
			"name":"machine-connection-pipe.002",
			"rotation":[
				0,
				0.7050467133522034,
				0,
				0.7091608643531799
			],
			"translation":[
				2,
				0.23252877593040466,
				-4.403463363647461
			]
		},
		{
			"mesh":13,
			"name":"machine-connection-pipe.003",
			"rotation":[
				0,
				0.7050467133522034,
				0,
				0.7091608643531799
			],
			"translation":[
				4,
				0.23252877593040466,
				-4.403463363647461
			]
		},
		{
			"mesh":14,
			"name":"machine-connection-pipe.004",
			"rotation":[
				0,
				0.7050467133522034,
				0,
				0.7091608643531799
			],
			"translation":[
				-2,
				0.23252877593040466,
				-4.403463363647461
			]
		},
		{
			"mesh":15,
			"name":"machine-connection-pipe.005",
			"rotation":[
				0,
				0.7050467133522034,
				0,
				0.7091608643531799
			],
			"translation":[
				-4,
				0.23252877593040466,
				-4.4034600257873535
			]
		},
		{
			"mesh":16,
			"name":"top",
			"rotation":[
				-0.7046353220939636,
				0,
				0,
				0.7095696926116943
			],
			"translation":[
				0,
				0.7719793319702148,
				-5.0084638595581055
			]
		},
		{
			"mesh":17,
			"name":"COL1",
			"scale":[
				0.533487856388092,
				0.12212824821472168,
				5.176986217498779
			],
			"translation":[
				-0.01160573959350586,
				0.2668221890926361,
				0.2516815662384033
			]
		},
		{
			"mesh":18,
			"name":"COL2",
			"scale":[
				0.533487856388092,
				0.12212824821472168,
				5.176986217498779
			],
			"translation":[
				2,
				0.2668221890926361,
				0.2516815662384033
			]
		},
		{
			"mesh":19,
			"name":"COL3",
			"scale":[
				0.533487856388092,
				0.12212824821472168,
				5.176986217498779
			],
			"translation":[
				4,
				0.2668221890926361,
				0.2516815662384033
			]
		},
		{
			"mesh":20,
			"name":"COL4",
			"scale":[
				0.533487856388092,
				0.12212824821472168,
				5.176986217498779
			],
			"translation":[
				-2,
				0.2668221890926361,
				0.2516815662384033
			]
		},
		{
			"mesh":21,
			"name":"COL5",
			"scale":[
				0.533487856388092,
				0.12212824821472168,
				5.176986217498779
			],
			"translation":[
				-4,
				0.2668221890926361,
				0.2516815662384033
			]
		},
		{
			"mesh":22,
			"name":"top.001",
			"rotation":[
				-0.7046353220939636,
				0,
				0,
				0.7095696926116943
			],
			"translation":[
				2,
				0.7719793319702148,
				-5.0084638595581055
			]
		},
		{
			"mesh":23,
			"name":"top.002",
			"rotation":[
				-0.7046353220939636,
				0,
				0,
				0.7095696926116943
			],
			"translation":[
				4,
				0.7719793319702148,
				-5.0084638595581055
			]
		},
		{
			"mesh":24,
			"name":"top.003",
			"rotation":[
				-0.7046353220939636,
				0,
				0,
				0.7095696926116943
			],
			"translation":[
				-2,
				0.7719793319702148,
				-5.0084638595581055
			]
		},
		{
			"mesh":25,
			"name":"top.004",
			"rotation":[
				-0.7046353220939636,
				0,
				0,
				0.7095696926116943
			],
			"translation":[
				-4,
				0.7719793319702148,
				-5.0084638595581055
			]
		},
		{
			"mesh":26,
			"name":"structure-tall",
			"rotation":[
				0,
				0.7164050936698914,
				0,
				0.6976845264434814
			],
			"translation":[
				0,
				-1.9850795269012451,
				5.340944290161133
			]
		},
		{
			"mesh":27,
			"name":"structure-tall.001",
			"rotation":[
				0,
				0.7164050936698914,
				0,
				0.6976845264434814
			],
			"translation":[
				2,
				-1.9850795269012451,
				5.340944290161133
			]
		},
		{
			"mesh":28,
			"name":"structure-tall.002",
			"rotation":[
				0,
				0.7164050936698914,
				0,
				0.6976845264434814
			],
			"translation":[
				4,
				-1.9850795269012451,
				5.340944290161133
			]
		},
		{
			"mesh":29,
			"name":"structure-tall.003",
			"rotation":[
				0,
				0.7164050936698914,
				0,
				0.6976845264434814
			],
			"translation":[
				-2,
				-1.9850795269012451,
				5.340944290161133
			]
		},
		{
			"mesh":30,
			"name":"structure-tall.004",
			"rotation":[
				0,
				0.7164050936698914,
				0,
				0.6976845264434814
			],
			"translation":[
				-4,
				-1.9850795269012451,
				5.340944290161133
			]
		},
		{
			"mesh":31,
			"name":"structure-tall.005",
			"rotation":[
				0,
				0.7164050936698914,
				0,
				0.6976845264434814
			],
			"translation":[
				0,
				-1.9850795269012451,
				-4.82113790512085
			]
		},
		{
			"mesh":32,
			"name":"structure-tall.006",
			"rotation":[
				0,
				0.7164050936698914,
				0,
				0.6976845264434814
			],
			"translation":[
				2,
				-1.9850795269012451,
				-4.82113790512085
			]
		},
		{
			"mesh":33,
			"name":"structure-tall.007",
			"rotation":[
				0,
				0.7164050936698914,
				0,
				0.6976845264434814
			],
			"translation":[
				4,
				-1.9850795269012451,
				-4.82113790512085
			]
		},
		{
			"mesh":34,
			"name":"structure-tall.008",
			"rotation":[
				0,
				0.7164050936698914,
				0,
				0.6976845264434814
			],
			"translation":[
				-2,
				-1.9850795269012451,
				-4.82113790512085
			]
		},
		{
			"mesh":35,
			"name":"structure-tall.009",
			"rotation":[
				0,
				0.7164050936698914,
				0,
				0.6976845264434814
			],
			"translation":[
				-4,
				-1.9850795269012451,
				-4.82113790512085
			]
		},
		{
			"mesh":36,
			"name":"pipe-large-side",
			"rotation":[
				-0.9999943971633911,
				0,
				0,
				0.0033503277227282524
			],
			"translation":[
				0,
				3.492011547088623,
				-4.387137413024902
			]
		},
		{
			"mesh":37,
			"name":"pipe-large-side.001",
			"rotation":[
				-0.9999943971633911,
				0,
				0,
				0.0033503277227282524
			],
			"translation":[
				1.998999834060669,
				3.492011547088623,
				-4.387137413024902
			]
		},
		{
			"mesh":38,
			"name":"pipe-large-side.002",
			"rotation":[
				-0.9999943971633911,
				0,
				0,
				0.0033503277227282524
			],
			"translation":[
				-1.9841140508651733,
				3.492011547088623,
				-4.387137413024902
			]
		},
		{
			"mesh":39,
			"name":"pipe-large-side.003",
			"rotation":[
				-0.9999943971633911,
				0,
				0,
				0.0033503277227282524
			],
			"translation":[
				-3.9873948097229004,
				3.492011547088623,
				-4.387137413024902
			]
		},
		{
			"mesh":40,
			"name":"pipe-large-side.004",
			"rotation":[
				-0.9999943971633911,
				0,
				0,
				0.0033503277227282524
			],
			"translation":[
				3.9913477897644043,
				3.492011547088623,
				-4.387137413024902
			]
		},
		{
			"mesh":41,
			"name":"pipe-large-bend",
			"rotation":[
				0.004466471262276173,
				0.7070927619934082,
				-0.7070926427841187,
				0.00446647172793746
			],
			"translation":[
				5.9922308921813965,
				2.476094961166382,
				-4.372320652008057
			]
		},
		{
			"mesh":42,
			"name":"pipe-large-bend.001",
			"rotation":[
				0.4930414855480194,
				-0.5068631172180176,
				0.506862998008728,
				0.4930415153503418
			],
			"translation":[
				-6.386242866516113,
				2.476094961166382,
				-4.027010917663574
			]
		},
		{
			"mesh":43,
			"name":"conveyor-stripe-part-end.005",
			"rotation":[
				0.49973005056381226,
				0.5002698302268982,
				-0.5002697706222534,
				0.49973005056381226
			],
			"translation":[
				-6.402239799499512,
				2.274953603744507,
				-0.7915092706680298
			]
		},
		{
			"mesh":44,
			"name":"conveyor-stripe-part-middle.006",
			"rotation":[
				0.49984174966812134,
				-0.5001582503318787,
				0.5001581311225891,
				0.49984174966812134
			],
			"scale":[
				1.3092056512832642,
				1,
				1
			],
			"translation":[
				-6.4086222648620605,
				2.275916576385498,
				5.9961700439453125
			]
		},
		{
			"mesh":45,
			"name":"structure-tall.012",
			"rotation":[
				0,
				0.7164050936698914,
				0,
				0.6976845860481262
			],
			"scale":[
				0.9999533891677856,
				1.0724905729293823,
				0.9311635494232178
			],
			"translation":[
				-6.405311107635498,
				-1.854317307472229,
				-0.8807862997055054
			]
		},
		{
			"mesh":46,
			"name":"structure-tall.013",
			"rotation":[
				0,
				0.7164050936698914,
				0,
				0.6976845264434814
			],
			"scale":[
				0.9999533891677856,
				1,
				0.9311636090278625
			],
			"translation":[
				-6.405311107635498,
				0.29319536685943604,
				-0.8807862997055054
			]
		},
		{
			"mesh":47,
			"name":"structure-tall.014",
			"rotation":[
				0,
				0.7164050936698914,
				0,
				0.6976845264434814
			],
			"scale":[
				0.9999533891677856,
				1,
				0.9311636090278625
			],
			"translation":[
				-6.405311107635498,
				0.29319536685943604,
				7.384093284606934
			]
		},
		{
			"mesh":48,
			"name":"structure-tall.015",
			"rotation":[
				0,
				0.7164050936698914,
				0,
				0.6976845860481262
			],
			"scale":[
				0.9999533891677856,
				1.0724905729293823,
				0.9311635494232178
			],
			"translation":[
				-6.405311107635498,
				-1.854317307472229,
				7.384093284606934
			]
		},
		{
			"mesh":49,
			"name":"pipe-large-long",
			"rotation":[
				0.4956536889076233,
				-0.5043088793754578,
				0.5043087601661682,
				0.4956537187099457
			],
			"translation":[
				-6.431230545043945,
				2.4738306999206543,
				-2.027738332748413
			]
		},
		{
			"mesh":50,
			"name":"structure-tall.010",
			"rotation":[
				0,
				0.7164050936698914,
				0,
				0.6976845860481262
			],
			"scale":[
				0.9999533891677856,
				1.0724905729293823,
				0.9311635494232178
			],
			"translation":[
				6.388765811920166,
				-1.854317307472229,
				7.384093284606934
			]
		},
		{
			"mesh":51,
			"name":"structure-tall.011",
			"rotation":[
				0,
				0.7164050936698914,
				0,
				0.6976845264434814
			],
			"scale":[
				0.9999533891677856,
				1,
				0.9311636090278625
			],
			"translation":[
				6.388765811920166,
				0.29319536685943604,
				7.384093284606934
			]
		},
		{
			"mesh":52,
			"name":"structure-tall.016",
			"rotation":[
				0,
				0.7164050936698914,
				0,
				0.6976845264434814
			],
			"scale":[
				0.9999533891677856,
				1,
				0.9311636090278625
			],
			"translation":[
				6.388765811920166,
				0.29319536685943604,
				-0.8807862997055054
			]
		},
		{
			"mesh":53,
			"name":"structure-tall.017",
			"rotation":[
				0,
				0.7164050936698914,
				0,
				0.6976845860481262
			],
			"scale":[
				0.9999533891677856,
				1.0724905729293823,
				0.9311635494232178
			],
			"translation":[
				6.388765811920166,
				-1.854317307472229,
				-0.8807862997055054
			]
		},
		{
			"mesh":54,
			"name":"pipe-large-long.001",
			"rotation":[
				0.4956536889076233,
				-0.5043088793754578,
				0.5043087601661682,
				0.4956537187099457
			],
			"translation":[
				6.362846374511719,
				2.4738306999206543,
				-2.027738332748413
			]
		},
		{
			"mesh":55,
			"name":"conveyor-stripe-part-middle.007",
			"rotation":[
				0.49984174966812134,
				-0.5001582503318787,
				0.5001581311225891,
				0.49984174966812134
			],
			"scale":[
				1.3092056512832642,
				1,
				1
			],
			"translation":[
				6.3854546546936035,
				2.275916576385498,
				5.9961700439453125
			]
		},
		{
			"mesh":56,
			"name":"conveyor-stripe-part-end.006",
			"rotation":[
				0.49973005056381226,
				0.5002698302268982,
				-0.5002697706222534,
				0.49973005056381226
			],
			"translation":[
				6.391837120056152,
				2.274953603744507,
				-0.7915092706680298
			]
		}
	],
	"materials":[
		{
			"doubleSided":true,
			"extensions":{
				"KHR_materials_specular":{
					"specularFactor":0
				}
			},
			"name":"colormap.003",
			"pbrMetallicRoughness":{
				"baseColorTexture":{
					"index":0
				},
				"metallicFactor":0
			}
		},
		{
			"doubleSided":true,
			"extensions":{
				"KHR_materials_specular":{
					"specularFactor":0
				}
			},
			"name":"colormap.005",
			"pbrMetallicRoughness":{
				"baseColorTexture":{
					"index":1
				},
				"metallicFactor":0
			}
		},
		{
			"doubleSided":true,
			"extensions":{
				"KHR_materials_specular":{
					"specularFactor":0
				}
			},
			"name":"colormap.004",
			"pbrMetallicRoughness":{
				"baseColorTexture":{
					"index":2
				},
				"metallicFactor":0
			}
		},
		{
			"doubleSided":true,
			"extensions":{
				"KHR_materials_specular":{
					"specularFactor":0
				}
			},
			"name":"colormap.006",
			"pbrMetallicRoughness":{
				"baseColorTexture":{
					"index":3
				},
				"metallicFactor":0
			}
		},
		{
			"doubleSided":true,
			"extensions":{
				"KHR_materials_specular":{
					"specularFactor":0
				}
			},
			"name":"colormap.009",
			"pbrMetallicRoughness":{
				"baseColorTexture":{
					"index":4
				},
				"metallicFactor":0
			}
		},
		{
			"doubleSided":true,
			"extensions":{
				"KHR_materials_specular":{
					"specularFactor":0
				}
			},
			"name":"colormap.010",
			"pbrMetallicRoughness":{
				"baseColorTexture":{
					"index":5
				},
				"metallicFactor":0
			}
		},
		{
			"doubleSided":true,
			"extensions":{
				"KHR_materials_specular":{
					"specularFactor":0
				}
			},
			"name":"colormap.013",
			"pbrMetallicRoughness":{
				"baseColorTexture":{
					"index":6
				},
				"metallicFactor":0
			}
		},
		{
			"doubleSided":true,
			"extensions":{
				"KHR_materials_specular":{
					"specularFactor":0
				}
			},
			"name":"colormap.014",
			"pbrMetallicRoughness":{
				"baseColorTexture":{
					"index":7
				},
				"metallicFactor":0
			}
		},
		{
			"doubleSided":true,
			"extensions":{
				"KHR_materials_specular":{
					"specularFactor":0
				}
			},
			"name":"colormap.017",
			"pbrMetallicRoughness":{
				"baseColorTexture":{
					"index":8
				},
				"metallicFactor":0
			}
		},
		{
			"doubleSided":true,
			"extensions":{
				"KHR_materials_specular":{
					"specularFactor":0
				}
			},
			"name":"colormap.018",
			"pbrMetallicRoughness":{
				"baseColorTexture":{
					"index":9
				},
				"metallicFactor":0
			}
		},
		{
			"doubleSided":true,
			"name":"colormap.021",
			"pbrMetallicRoughness":{
				"baseColorTexture":{
					"index":10
				},
				"metallicFactor":0
			}
		},
		{
			"doubleSided":true,
			"name":"colormap.022",
			"pbrMetallicRoughness":{
				"baseColorTexture":{
					"index":11
				},
				"metallicFactor":0
			}
		},
		{
			"doubleSided":true,
			"name":"colormap.023",
			"pbrMetallicRoughness":{
				"baseColorTexture":{
					"index":12
				},
				"metallicFactor":0
			}
		},
		{
			"doubleSided":true,
			"name":"colormap.024",
			"pbrMetallicRoughness":{
				"baseColorTexture":{
					"index":13
				},
				"metallicFactor":0
			}
		},
		{
			"doubleSided":true,
			"name":"colormap.025",
			"pbrMetallicRoughness":{
				"baseColorTexture":{
					"index":14
				},
				"metallicFactor":0
			}
		},
		{
			"doubleSided":true,
			"name":"colormap.026",
			"pbrMetallicRoughness":{
				"baseColorTexture":{
					"index":15
				},
				"metallicFactor":0
			}
		},
		{
			"doubleSided":true,
			"name":"colormap.027",
			"pbrMetallicRoughness":{
				"baseColorTexture":{
					"index":16
				},
				"metallicFactor":0
			}
		},
		{
			"doubleSided":true,
			"name":"colormap.033",
			"pbrMetallicRoughness":{
				"baseColorTexture":{
					"index":17
				},
				"metallicFactor":0
			}
		},
		{
			"doubleSided":true,
			"name":"colormap.034",
			"pbrMetallicRoughness":{
				"baseColorTexture":{
					"index":18
				},
				"metallicFactor":0
			}
		},
		{
			"doubleSided":true,
			"name":"colormap.035",
			"pbrMetallicRoughness":{
				"baseColorTexture":{
					"index":19
				},
				"metallicFactor":0
			}
		},
		{
			"doubleSided":true,
			"name":"colormap.036",
			"pbrMetallicRoughness":{
				"baseColorTexture":{
					"index":20
				},
				"metallicFactor":0
			}
		},
		{
			"doubleSided":true,
			"name":"colormap",
			"pbrMetallicRoughness":{
				"baseColorTexture":{
					"index":21
				},
				"metallicFactor":0
			}
		},
		{
			"doubleSided":true,
			"name":"colormap.007",
			"pbrMetallicRoughness":{
				"baseColorTexture":{
					"index":22
				},
				"metallicFactor":0
			}
		},
		{
			"doubleSided":true,
			"name":"colormap.011",
			"pbrMetallicRoughness":{
				"baseColorTexture":{
					"index":23
				},
				"metallicFactor":0
			}
		},
		{
			"doubleSided":true,
			"name":"colormap.015",
			"pbrMetallicRoughness":{
				"baseColorTexture":{
					"index":24
				},
				"metallicFactor":0
			}
		},
		{
			"doubleSided":true,
			"name":"colormap.019",
			"pbrMetallicRoughness":{
				"baseColorTexture":{
					"index":25
				},
				"metallicFactor":0
			}
		},
		{
			"doubleSided":true,
			"name":"colormap.020",
			"pbrMetallicRoughness":{
				"baseColorTexture":{
					"index":26
				},
				"metallicFactor":0
			}
		},
		{
			"doubleSided":true,
			"name":"colormap.037",
			"pbrMetallicRoughness":{
				"baseColorTexture":{
					"index":27
				},
				"metallicFactor":0
			}
		},
		{
			"doubleSided":true,
			"name":"colormap.038",
			"pbrMetallicRoughness":{
				"baseColorTexture":{
					"index":28
				},
				"metallicFactor":0
			}
		},
		{
			"doubleSided":true,
			"name":"colormap.039",
			"pbrMetallicRoughness":{
				"baseColorTexture":{
					"index":29
				},
				"metallicFactor":0
			}
		},
		{
			"doubleSided":true,
			"name":"colormap.040",
			"pbrMetallicRoughness":{
				"baseColorTexture":{
					"index":30
				},
				"metallicFactor":0
			}
		},
		{
			"doubleSided":true,
			"name":"colormap.002",
			"pbrMetallicRoughness":{
				"baseColorTexture":{
					"index":31
				},
				"metallicFactor":0
			}
		},
		{
			"doubleSided":true,
			"name":"colormap.008",
			"pbrMetallicRoughness":{
				"baseColorTexture":{
					"index":32
				},
				"metallicFactor":0
			}
		},
		{
			"doubleSided":true,
			"name":"colormap.012",
			"pbrMetallicRoughness":{
				"baseColorTexture":{
					"index":33
				},
				"metallicFactor":0
			}
		},
		{
			"doubleSided":true,
			"name":"colormap.016",
			"pbrMetallicRoughness":{
				"baseColorTexture":{
					"index":34
				},
				"metallicFactor":0
			}
		},
		{
			"doubleSided":true,
			"name":"colormap.029",
			"pbrMetallicRoughness":{
				"baseColorTexture":{
					"index":35
				},
				"metallicFactor":0
			}
		},
		{
			"doubleSided":true,
			"extensions":{
				"KHR_materials_specular":{
					"specularFactor":0
				}
			},
			"name":"colormap.044",
			"pbrMetallicRoughness":{
				"baseColorTexture":{
					"index":36
				},
				"metallicFactor":0
			}
		},
		{
			"doubleSided":true,
			"extensions":{
				"KHR_materials_specular":{
					"specularFactor":0
				}
			},
			"name":"colormap.045",
			"pbrMetallicRoughness":{
				"baseColorTexture":{
					"index":37
				},
				"metallicFactor":0
			}
		},
		{
			"doubleSided":true,
			"extensions":{
				"KHR_materials_specular":{
					"specularFactor":0
				}
			},
			"name":"colormap.049",
			"pbrMetallicRoughness":{
				"baseColorTexture":{
					"index":38
				},
				"metallicFactor":0
			}
		},
		{
			"doubleSided":true,
			"extensions":{
				"KHR_materials_specular":{
					"specularFactor":0
				}
			},
			"name":"colormap.052",
			"pbrMetallicRoughness":{
				"baseColorTexture":{
					"index":39
				},
				"metallicFactor":0
			}
		},
		{
			"doubleSided":true,
			"name":"colormap.056",
			"pbrMetallicRoughness":{
				"baseColorTexture":{
					"index":40
				},
				"metallicFactor":0
			}
		},
		{
			"doubleSided":true,
			"name":"colormap.057",
			"pbrMetallicRoughness":{
				"baseColorTexture":{
					"index":41
				},
				"metallicFactor":0
			}
		},
		{
			"doubleSided":true,
			"name":"colormap.058",
			"pbrMetallicRoughness":{
				"baseColorTexture":{
					"index":42
				},
				"metallicFactor":0
			}
		},
		{
			"doubleSided":true,
			"name":"colormap.059",
			"pbrMetallicRoughness":{
				"baseColorTexture":{
					"index":43
				},
				"metallicFactor":0
			}
		},
		{
			"doubleSided":true,
			"extensions":{
				"KHR_materials_specular":{
					"specularFactor":0
				}
			},
			"name":"colormap.062",
			"pbrMetallicRoughness":{
				"baseColorTexture":{
					"index":44
				},
				"metallicFactor":0
			}
		},
		{
			"doubleSided":true,
			"name":"colormap.063",
			"pbrMetallicRoughness":{
				"baseColorTexture":{
					"index":45
				},
				"metallicFactor":0
			}
		},
		{
			"doubleSided":true,
			"name":"colormap.064",
			"pbrMetallicRoughness":{
				"baseColorTexture":{
					"index":46
				},
				"metallicFactor":0
			}
		},
		{
			"doubleSided":true,
			"name":"colormap.065",
			"pbrMetallicRoughness":{
				"baseColorTexture":{
					"index":47
				},
				"metallicFactor":0
			}
		},
		{
			"doubleSided":true,
			"name":"colormap.066",
			"pbrMetallicRoughness":{
				"baseColorTexture":{
					"index":48
				},
				"metallicFactor":0
			}
		},
		{
			"doubleSided":true,
			"extensions":{
				"KHR_materials_specular":{
					"specularFactor":0
				}
			},
			"name":"colormap.067",
			"pbrMetallicRoughness":{
				"baseColorTexture":{
					"index":49
				},
				"metallicFactor":0
			}
		},
		{
			"doubleSided":true,
			"extensions":{
				"KHR_materials_specular":{
					"specularFactor":0
				}
			},
			"name":"colormap.068",
			"pbrMetallicRoughness":{
				"baseColorTexture":{
					"index":50
				},
				"metallicFactor":0
			}
		},
		{
			"doubleSided":true,
			"extensions":{
				"KHR_materials_specular":{
					"specularFactor":0
				}
			},
			"name":"colormap.069",
			"pbrMetallicRoughness":{
				"baseColorTexture":{
					"index":51
				},
				"metallicFactor":0
			}
		}
	],
	"meshes":[
		{
			"name":"conveyor-stripe-part-end.002",
			"primitives":[
				{
					"attributes":{
						"POSITION":0,
						"NORMAL":1,
						"TEXCOORD_0":2,
						"COLOR_0":3,
						"COLOR_1":4
					},
					"indices":5,
					"material":0
				}
			]
		},
		{
			"name":"conveyor-stripe-part-middle.001",
			"primitives":[
				{
					"attributes":{
						"POSITION":6,
						"NORMAL":7,
						"TEXCOORD_0":8,
						"COLOR_0":9,
						"COLOR_1":10
					},
					"indices":11,
					"material":1
				}
			]
		},
		{
			"name":"conveyor-stripe-part-middle.002",
			"primitives":[
				{
					"attributes":{
						"POSITION":12,
						"NORMAL":13,
						"TEXCOORD_0":14,
						"COLOR_0":15,
						"COLOR_1":16
					},
					"indices":11,
					"material":2
				}
			]
		},
		{
			"name":"conveyor-stripe-part-end.001",
			"primitives":[
				{
					"attributes":{
						"POSITION":17,
						"NORMAL":18,
						"TEXCOORD_0":19,
						"COLOR_0":20,
						"COLOR_1":21
					},
					"indices":5,
					"material":3
				}
			]
		},
		{
			"name":"conveyor-stripe-part-middle.003",
			"primitives":[
				{
					"attributes":{
						"POSITION":22,
						"NORMAL":23,
						"TEXCOORD_0":24,
						"COLOR_0":25,
						"COLOR_1":26
					},
					"indices":11,
					"material":4
				}
			]
		},
		{
			"name":"conveyor-stripe-part-end.003",
			"primitives":[
				{
					"attributes":{
						"POSITION":27,
						"NORMAL":28,
						"TEXCOORD_0":29,
						"COLOR_0":30,
						"COLOR_1":31
					},
					"indices":5,
					"material":5
				}
			]
		},
		{
			"name":"conveyor-stripe-part-middle.004",
			"primitives":[
				{
					"attributes":{
						"POSITION":32,
						"NORMAL":33,
						"TEXCOORD_0":34,
						"COLOR_0":35,
						"COLOR_1":36
					},
					"indices":11,
					"material":6
				}
			]
		},
		{
			"name":"conveyor-stripe-part-end.004",
			"primitives":[
				{
					"attributes":{
						"POSITION":37,
						"NORMAL":38,
						"TEXCOORD_0":39,
						"COLOR_0":40,
						"COLOR_1":41
					},
					"indices":5,
					"material":7
				}
			]
		},
		{
			"name":"conveyor-stripe-part-middle.005",
			"primitives":[
				{
					"attributes":{
						"POSITION":42,
						"NORMAL":43,
						"TEXCOORD_0":44,
						"COLOR_0":45,
						"COLOR_1":46
					},
					"indices":11,
					"material":8
				}
			]
		},
		{
			"name":"conveyor-stripe-part-end.005",
			"primitives":[
				{
					"attributes":{
						"POSITION":47,
						"NORMAL":48,
						"TEXCOORD_0":49,
						"COLOR_0":50,
						"COLOR_1":51
					},
					"indices":5,
					"material":9
				}
			]
		},
		{
			"name":"machine-connection-pipe",
			"primitives":[
				{
					"attributes":{
						"POSITION":52,
						"NORMAL":53,
						"TEXCOORD_0":54
					},
					"indices":55,
					"material":10
				}
			]
		},
		{
			"name":"machine-connection-pipe.001",
			"primitives":[
				{
					"attributes":{
						"POSITION":56,
						"NORMAL":57,
						"TEXCOORD_0":58
					},
					"indices":55,
					"material":11
				}
			]
		},
		{
			"name":"machine-connection-pipe.002",
			"primitives":[
				{
					"attributes":{
						"POSITION":59,
						"NORMAL":60,
						"TEXCOORD_0":61
					},
					"indices":55,
					"material":12
				}
			]
		},
		{
			"name":"machine-connection-pipe.003",
			"primitives":[
				{
					"attributes":{
						"POSITION":62,
						"NORMAL":63,
						"TEXCOORD_0":64
					},
					"indices":55,
					"material":13
				}
			]
		},
		{
			"name":"machine-connection-pipe.004",
			"primitives":[
				{
					"attributes":{
						"POSITION":65,
						"NORMAL":66,
						"TEXCOORD_0":67
					},
					"indices":55,
					"material":14
				}
			]
		},
		{
			"name":"machine-connection-pipe.005",
			"primitives":[
				{
					"attributes":{
						"POSITION":68,
						"NORMAL":69,
						"TEXCOORD_0":70
					},
					"indices":55,
					"material":15
				}
			]
		},
		{
			"name":"top",
			"primitives":[
				{
					"attributes":{
						"POSITION":71,
						"NORMAL":72,
						"TEXCOORD_0":73
					},
					"indices":74,
					"material":16
				}
			]
		},
		{
			"name":"\u7acb\u65b9\u4f53",
			"primitives":[
				{
					"attributes":{
						"POSITION":75,
						"NORMAL":76,
						"TEXCOORD_0":77
					},
					"indices":78
				}
			]
		},
		{
			"name":"\u7acb\u65b9\u4f53.001",
			"primitives":[
				{
					"attributes":{
						"POSITION":79,
						"NORMAL":80,
						"TEXCOORD_0":81
					},
					"indices":78
				}
			]
		},
		{
			"name":"\u7acb\u65b9\u4f53.002",
			"primitives":[
				{
					"attributes":{
						"POSITION":82,
						"NORMAL":83,
						"TEXCOORD_0":84
					},
					"indices":78
				}
			]
		},
		{
			"name":"\u7acb\u65b9\u4f53.003",
			"primitives":[
				{
					"attributes":{
						"POSITION":85,
						"NORMAL":86,
						"TEXCOORD_0":87
					},
					"indices":78
				}
			]
		},
		{
			"name":"\u7acb\u65b9\u4f53.004",
			"primitives":[
				{
					"attributes":{
						"POSITION":88,
						"NORMAL":89,
						"TEXCOORD_0":90
					},
					"indices":78
				}
			]
		},
		{
			"name":"top.006",
			"primitives":[
				{
					"attributes":{
						"POSITION":91,
						"NORMAL":92,
						"TEXCOORD_0":93
					},
					"indices":74,
					"material":17
				}
			]
		},
		{
			"name":"top.007",
			"primitives":[
				{
					"attributes":{
						"POSITION":94,
						"NORMAL":95,
						"TEXCOORD_0":96
					},
					"indices":74,
					"material":18
				}
			]
		},
		{
			"name":"top.008",
			"primitives":[
				{
					"attributes":{
						"POSITION":97,
						"NORMAL":98,
						"TEXCOORD_0":99
					},
					"indices":74,
					"material":19
				}
			]
		},
		{
			"name":"top.009",
			"primitives":[
				{
					"attributes":{
						"POSITION":100,
						"NORMAL":101,
						"TEXCOORD_0":102
					},
					"indices":74,
					"material":20
				}
			]
		},
		{
			"name":"structure-tall",
			"primitives":[
				{
					"attributes":{
						"POSITION":103,
						"NORMAL":104,
						"TEXCOORD_0":105
					},
					"indices":106,
					"material":21
				}
			]
		},
		{
			"name":"structure-tall.001",
			"primitives":[
				{
					"attributes":{
						"POSITION":107,
						"NORMAL":108,
						"TEXCOORD_0":109
					},
					"indices":106,
					"material":22
				}
			]
		},
		{
			"name":"structure-tall.002",
			"primitives":[
				{
					"attributes":{
						"POSITION":110,
						"NORMAL":111,
						"TEXCOORD_0":112
					},
					"indices":106,
					"material":23
				}
			]
		},
		{
			"name":"structure-tall.003",
			"primitives":[
				{
					"attributes":{
						"POSITION":113,
						"NORMAL":114,
						"TEXCOORD_0":115
					},
					"indices":106,
					"material":24
				}
			]
		},
		{
			"name":"structure-tall.004",
			"primitives":[
				{
					"attributes":{
						"POSITION":116,
						"NORMAL":117,
						"TEXCOORD_0":118
					},
					"indices":106,
					"material":25
				}
			]
		},
		{
			"name":"structure-tall.005",
			"primitives":[
				{
					"attributes":{
						"POSITION":119,
						"NORMAL":120,
						"TEXCOORD_0":121
					},
					"indices":106,
					"material":26
				}
			]
		},
		{
			"name":"structure-tall.006",
			"primitives":[
				{
					"attributes":{
						"POSITION":122,
						"NORMAL":123,
						"TEXCOORD_0":124
					},
					"indices":106,
					"material":27
				}
			]
		},
		{
			"name":"structure-tall.007",
			"primitives":[
				{
					"attributes":{
						"POSITION":125,
						"NORMAL":126,
						"TEXCOORD_0":127
					},
					"indices":106,
					"material":28
				}
			]
		},
		{
			"name":"structure-tall.008",
			"primitives":[
				{
					"attributes":{
						"POSITION":128,
						"NORMAL":129,
						"TEXCOORD_0":130
					},
					"indices":106,
					"material":29
				}
			]
		},
		{
			"name":"structure-tall.009",
			"primitives":[
				{
					"attributes":{
						"POSITION":131,
						"NORMAL":132,
						"TEXCOORD_0":133
					},
					"indices":106,
					"material":30
				}
			]
		},
		{
			"name":"pipe-large-side",
			"primitives":[
				{
					"attributes":{
						"POSITION":134,
						"NORMAL":135,
						"TEXCOORD_0":136
					},
					"indices":137,
					"material":31
				}
			]
		},
		{
			"name":"pipe-large-side.001",
			"primitives":[
				{
					"attributes":{
						"POSITION":138,
						"NORMAL":139,
						"TEXCOORD_0":140
					},
					"indices":137,
					"material":32
				}
			]
		},
		{
			"name":"pipe-large-side.002",
			"primitives":[
				{
					"attributes":{
						"POSITION":141,
						"NORMAL":142,
						"TEXCOORD_0":143
					},
					"indices":137,
					"material":33
				}
			]
		},
		{
			"name":"pipe-large-side.003",
			"primitives":[
				{
					"attributes":{
						"POSITION":144,
						"NORMAL":145,
						"TEXCOORD_0":146
					},
					"indices":137,
					"material":34
				}
			]
		},
		{
			"name":"pipe-large-side.004",
			"primitives":[
				{
					"attributes":{
						"POSITION":147,
						"NORMAL":148,
						"TEXCOORD_0":149
					},
					"indices":137,
					"material":35
				}
			]
		},
		{
			"name":"pipe-large-bend",
			"primitives":[
				{
					"attributes":{
						"POSITION":150,
						"NORMAL":151,
						"TEXCOORD_0":152,
						"COLOR_0":153,
						"COLOR_1":154
					},
					"indices":155,
					"material":36
				}
			]
		},
		{
			"name":"pipe-large-bend.001",
			"primitives":[
				{
					"attributes":{
						"POSITION":156,
						"NORMAL":157,
						"TEXCOORD_0":158,
						"COLOR_0":159,
						"COLOR_1":160
					},
					"indices":155,
					"material":37
				}
			]
		},
		{
			"name":"conveyor-stripe-part-end.006",
			"primitives":[
				{
					"attributes":{
						"POSITION":161,
						"NORMAL":162,
						"TEXCOORD_0":163,
						"COLOR_0":164,
						"COLOR_1":165
					},
					"indices":5,
					"material":38
				}
			]
		},
		{
			"name":"conveyor-stripe-part-middle.008",
			"primitives":[
				{
					"attributes":{
						"POSITION":166,
						"NORMAL":167,
						"TEXCOORD_0":168,
						"COLOR_0":169,
						"COLOR_1":170
					},
					"indices":11,
					"material":39
				}
			]
		},
		{
			"name":"structure-tall.013",
			"primitives":[
				{
					"attributes":{
						"POSITION":171,
						"NORMAL":172,
						"TEXCOORD_0":173
					},
					"indices":106,
					"material":40
				}
			]
		},
		{
			"name":"structure-tall.014",
			"primitives":[
				{
					"attributes":{
						"POSITION":174,
						"NORMAL":175,
						"TEXCOORD_0":176
					},
					"indices":106,
					"material":41
				}
			]
		},
		{
			"name":"structure-tall.015",
			"primitives":[
				{
					"attributes":{
						"POSITION":177,
						"NORMAL":178,
						"TEXCOORD_0":179
					},
					"indices":106,
					"material":42
				}
			]
		},
		{
			"name":"structure-tall.016",
			"primitives":[
				{
					"attributes":{
						"POSITION":180,
						"NORMAL":181,
						"TEXCOORD_0":182
					},
					"indices":106,
					"material":43
				}
			]
		},
		{
			"name":"pipe-large-long",
			"primitives":[
				{
					"attributes":{
						"POSITION":183,
						"NORMAL":184,
						"TEXCOORD_0":185,
						"COLOR_0":186,
						"COLOR_1":187
					},
					"indices":188,
					"material":44
				}
			]
		},
		{
			"name":"structure-tall.019",
			"primitives":[
				{
					"attributes":{
						"POSITION":189,
						"NORMAL":190,
						"TEXCOORD_0":191
					},
					"indices":106,
					"material":45
				}
			]
		},
		{
			"name":"structure-tall.020",
			"primitives":[
				{
					"attributes":{
						"POSITION":192,
						"NORMAL":193,
						"TEXCOORD_0":194
					},
					"indices":106,
					"material":46
				}
			]
		},
		{
			"name":"structure-tall.021",
			"primitives":[
				{
					"attributes":{
						"POSITION":195,
						"NORMAL":196,
						"TEXCOORD_0":197
					},
					"indices":106,
					"material":47
				}
			]
		},
		{
			"name":"structure-tall.022",
			"primitives":[
				{
					"attributes":{
						"POSITION":198,
						"NORMAL":199,
						"TEXCOORD_0":200
					},
					"indices":106,
					"material":48
				}
			]
		},
		{
			"name":"pipe-large-long.001",
			"primitives":[
				{
					"attributes":{
						"POSITION":201,
						"NORMAL":202,
						"TEXCOORD_0":203,
						"COLOR_0":204,
						"COLOR_1":205
					},
					"indices":188,
					"material":49
				}
			]
		},
		{
			"name":"conveyor-stripe-part-middle.009",
			"primitives":[
				{
					"attributes":{
						"POSITION":206,
						"NORMAL":207,
						"TEXCOORD_0":208,
						"COLOR_0":209,
						"COLOR_1":210
					},
					"indices":11,
					"material":50
				}
			]
		},
		{
			"name":"conveyor-stripe-part-end.008",
			"primitives":[
				{
					"attributes":{
						"POSITION":211,
						"NORMAL":212,
						"TEXCOORD_0":213,
						"COLOR_0":214,
						"COLOR_1":215
					},
					"indices":5,
					"material":51
				}
			]
		}
	],
	"textures":[
		{
			"sampler":0,
			"source":0
		},
		{
			"sampler":0,
			"source":0
		},
		{
			"sampler":0,
			"source":0
		},
		{
			"sampler":0,
			"source":0
		},
		{
			"sampler":0,
			"source":0
		},
		{
			"sampler":0,
			"source":0
		},
		{
			"sampler":0,
			"source":0
		},
		{
			"sampler":0,
			"source":0
		},
		{
			"sampler":0,
			"source":0
		},
		{
			"sampler":0,
			"source":0
		},
		{
			"sampler":0,
			"source":0
		},
		{
			"sampler":0,
			"source":0
		},
		{
			"sampler":0,
			"source":0
		},
		{
			"sampler":0,
			"source":0
		},
		{
			"sampler":0,
			"source":0
		},
		{
			"sampler":0,
			"source":0
		},
		{
			"sampler":0,
			"source":0
		},
		{
			"sampler":0,
			"source":0
		},
		{
			"sampler":0,
			"source":0
		},
		{
			"sampler":0,
			"source":0
		},
		{
			"sampler":0,
			"source":0
		},
		{
			"sampler":0,
			"source":0
		},
		{
			"sampler":0,
			"source":0
		},
		{
			"sampler":0,
			"source":0
		},
		{
			"sampler":0,
			"source":0
		},
		{
			"sampler":0,
			"source":0
		},
		{
			"sampler":0,
			"source":0
		},
		{
			"sampler":0,
			"source":0
		},
		{
			"sampler":0,
			"source":0
		},
		{
			"sampler":0,
			"source":0
		},
		{
			"sampler":0,
			"source":0
		},
		{
			"sampler":0,
			"source":0
		},
		{
			"sampler":0,
			"source":0
		},
		{
			"sampler":0,
			"source":0
		},
		{
			"sampler":0,
			"source":0
		},
		{
			"sampler":0,
			"source":0
		},
		{
			"sampler":0,
			"source":0
		},
		{
			"sampler":0,
			"source":0
		},
		{
			"sampler":0,
			"source":0
		},
		{
			"sampler":0,
			"source":0
		},
		{
			"sampler":0,
			"source":0
		},
		{
			"sampler":0,
			"source":0
		},
		{
			"sampler":0,
			"source":0
		},
		{
			"sampler":0,
			"source":0
		},
		{
			"sampler":0,
			"source":0
		},
		{
			"sampler":0,
			"source":0
		},
		{
			"sampler":0,
			"source":0
		},
		{
			"sampler":0,
			"source":0
		},
		{
			"sampler":0,
			"source":0
		},
		{
			"sampler":0,
			"source":0
		},
		{
			"sampler":0,
			"source":0
		},
		{
			"sampler":0,
			"source":0
		}
	],
	"images":[
		{
			"mimeType":"image/png",
			"name":"colormap",
			"uri":"colormap.png"
		}
	],
	"accessors":[
		{
			"bufferView":0,
			"componentType":5126,
			"count":151,
			"max":[
				0.25,
				0.5,
				0
			],
			"min":[
				-0.25,
				-0.5,
				-0.4000000059604645
			],
			"type":"VEC3"
		},
		{
			"bufferView":1,
			"componentType":5126,
			"count":151,
			"type":"VEC3"
		},
		{
			"bufferView":2,
			"componentType":5126,
			"count":151,
			"type":"VEC2"
		},
		{
			"bufferView":3,
			"componentType":5126,
			"count":151,
			"type":"VEC3"
		},
		{
			"bufferView":4,
			"componentType":5123,
			"count":151,
			"normalized":true,
			"type":"VEC4"
		},
		{
			"bufferView":5,
			"componentType":5123,
			"count":552,
			"type":"SCALAR"
		},
		{
			"bufferView":6,
			"componentType":5126,
			"count":56,
			"max":[
				5,
				0.5,
				0
			],
			"min":[
				-5,
				-0.5,
				-0.4000000059604645
			],
			"type":"VEC3"
		},
		{
			"bufferView":7,
			"componentType":5126,
			"count":56,
			"type":"VEC3"
		},
		{
			"bufferView":8,
			"componentType":5126,
			"count":56,
			"type":"VEC2"
		},
		{
			"bufferView":9,
			"componentType":5126,
			"count":56,
			"type":"VEC3"
		},
		{
			"bufferView":10,
			"componentType":5123,
			"count":56,
			"normalized":true,
			"type":"VEC4"
		},
		{
			"bufferView":11,
			"componentType":5123,
			"count":180,
			"type":"SCALAR"
		},
		{
			"bufferView":12,
			"componentType":5126,
			"count":56,
			"max":[
				5,
				0.5,
				0
			],
			"min":[
				-5,
				-0.5,
				-0.4000000059604645
			],
			"type":"VEC3"
		},
		{
			"bufferView":13,
			"componentType":5126,
			"count":56,
			"type":"VEC3"
		},
		{
			"bufferView":14,
			"componentType":5126,
			"count":56,
			"type":"VEC2"
		},
		{
			"bufferView":15,
			"componentType":5126,
			"count":56,
			"type":"VEC3"
		},
		{
			"bufferView":16,
			"componentType":5123,
			"count":56,
			"normalized":true,
			"type":"VEC4"
		},
		{
			"bufferView":17,
			"componentType":5126,
			"count":151,
			"max":[
				0.25,
				0.5,
				0
			],
			"min":[
				-0.25,
				-0.5,
				-0.4000000059604645
			],
			"type":"VEC3"
		},
		{
			"bufferView":18,
			"componentType":5126,
			"count":151,
			"type":"VEC3"
		},
		{
			"bufferView":19,
			"componentType":5126,
			"count":151,
			"type":"VEC2"
		},
		{
			"bufferView":20,
			"componentType":5126,
			"count":151,
			"type":"VEC3"
		},
		{
			"bufferView":21,
			"componentType":5123,
			"count":151,
			"normalized":true,
			"type":"VEC4"
		},
		{
			"bufferView":22,
			"componentType":5126,
			"count":56,
			"max":[
				5,
				0.5,
				0
			],
			"min":[
				-5,
				-0.5,
				-0.4000000059604645
			],
			"type":"VEC3"
		},
		{
			"bufferView":23,
			"componentType":5126,
			"count":56,
			"type":"VEC3"
		},
		{
			"bufferView":24,
			"componentType":5126,
			"count":56,
			"type":"VEC2"
		},
		{
			"bufferView":25,
			"componentType":5126,
			"count":56,
			"type":"VEC3"
		},
		{
			"bufferView":26,
			"componentType":5123,
			"count":56,
			"normalized":true,
			"type":"VEC4"
		},
		{
			"bufferView":27,
			"componentType":5126,
			"count":151,
			"max":[
				0.25,
				0.5,
				0
			],
			"min":[
				-0.25,
				-0.5,
				-0.4000000059604645
			],
			"type":"VEC3"
		},
		{
			"bufferView":28,
			"componentType":5126,
			"count":151,
			"type":"VEC3"
		},
		{
			"bufferView":29,
			"componentType":5126,
			"count":151,
			"type":"VEC2"
		},
		{
			"bufferView":30,
			"componentType":5126,
			"count":151,
			"type":"VEC3"
		},
		{
			"bufferView":31,
			"componentType":5123,
			"count":151,
			"normalized":true,
			"type":"VEC4"
		},
		{
			"bufferView":32,
			"componentType":5126,
			"count":56,
			"max":[
				5,
				0.5,
				0
			],
			"min":[
				-5,
				-0.5,
				-0.4000000059604645
			],
			"type":"VEC3"
		},
		{
			"bufferView":33,
			"componentType":5126,
			"count":56,
			"type":"VEC3"
		},
		{
			"bufferView":34,
			"componentType":5126,
			"count":56,
			"type":"VEC2"
		},
		{
			"bufferView":35,
			"componentType":5126,
			"count":56,
			"type":"VEC3"
		},
		{
			"bufferView":36,
			"componentType":5123,
			"count":56,
			"normalized":true,
			"type":"VEC4"
		},
		{
			"bufferView":37,
			"componentType":5126,
			"count":151,
			"max":[
				0.25,
				0.5,
				0
			],
			"min":[
				-0.25,
				-0.5,
				-0.4000000059604645
			],
			"type":"VEC3"
		},
		{
			"bufferView":38,
			"componentType":5126,
			"count":151,
			"type":"VEC3"
		},
		{
			"bufferView":39,
			"componentType":5126,
			"count":151,
			"type":"VEC2"
		},
		{
			"bufferView":40,
			"componentType":5126,
			"count":151,
			"type":"VEC3"
		},
		{
			"bufferView":41,
			"componentType":5123,
			"count":151,
			"normalized":true,
			"type":"VEC4"
		},
		{
			"bufferView":42,
			"componentType":5126,
			"count":56,
			"max":[
				5,
				0.5,
				0
			],
			"min":[
				-5,
				-0.5,
				-0.4000000059604645
			],
			"type":"VEC3"
		},
		{
			"bufferView":43,
			"componentType":5126,
			"count":56,
			"type":"VEC3"
		},
		{
			"bufferView":44,
			"componentType":5126,
			"count":56,
			"type":"VEC2"
		},
		{
			"bufferView":45,
			"componentType":5126,
			"count":56,
			"type":"VEC3"
		},
		{
			"bufferView":46,
			"componentType":5123,
			"count":56,
			"normalized":true,
			"type":"VEC4"
		},
		{
			"bufferView":47,
			"componentType":5126,
			"count":151,
			"max":[
				0.25,
				0.5,
				0
			],
			"min":[
				-0.25,
				-0.5,
				-0.4000000059604645
			],
			"type":"VEC3"
		},
		{
			"bufferView":48,
			"componentType":5126,
			"count":151,
			"type":"VEC3"
		},
		{
			"bufferView":49,
			"componentType":5126,
			"count":151,
			"type":"VEC2"
		},
		{
			"bufferView":50,
			"componentType":5126,
			"count":151,
			"type":"VEC3"
		},
		{
			"bufferView":51,
			"componentType":5123,
			"count":151,
			"normalized":true,
			"type":"VEC4"
		},
		{
			"bufferView":52,
			"componentType":5126,
			"count":588,
			"max":[
				0.6000000238418579,
				1.7500001192092896,
				0.75
			],
			"min":[
				-0.6000000238418579,
				-4.106748552334949e-10,
				-0.75
			],
			"type":"VEC3"
		},
		{
			"bufferView":53,
			"componentType":5126,
			"count":588,
			"type":"VEC3"
		},
		{
			"bufferView":54,
			"componentType":5126,
			"count":588,
			"type":"VEC2"
		},
		{
			"bufferView":55,
			"componentType":5123,
			"count":1026,
			"type":"SCALAR"
		},
		{
			"bufferView":56,
			"componentType":5126,
			"count":588,
			"max":[
				0.6000000238418579,
				1.7500001192092896,
				0.75
			],
			"min":[
				-0.6000000238418579,
				-4.106748552334949e-10,
				-0.75
			],
			"type":"VEC3"
		},
		{
			"bufferView":57,
			"componentType":5126,
			"count":588,
			"type":"VEC3"
		},
		{
			"bufferView":58,
			"componentType":5126,
			"count":588,
			"type":"VEC2"
		},
		{
			"bufferView":59,
			"componentType":5126,
			"count":588,
			"max":[
				0.6000000238418579,
				1.7500001192092896,
				0.75
			],
			"min":[
				-0.6000000238418579,
				-4.106748552334949e-10,
				-0.75
			],
			"type":"VEC3"
		},
		{
			"bufferView":60,
			"componentType":5126,
			"count":588,
			"type":"VEC3"
		},
		{
			"bufferView":61,
			"componentType":5126,
			"count":588,
			"type":"VEC2"
		},
		{
			"bufferView":62,
			"componentType":5126,
			"count":588,
			"max":[
				0.6000000238418579,
				1.7500001192092896,
				0.75
			],
			"min":[
				-0.6000000238418579,
				-4.106748552334949e-10,
				-0.75
			],
			"type":"VEC3"
		},
		{
			"bufferView":63,
			"componentType":5126,
			"count":588,
			"type":"VEC3"
		},
		{
			"bufferView":64,
			"componentType":5126,
			"count":588,
			"type":"VEC2"
		},
		{
			"bufferView":65,
			"componentType":5126,
			"count":588,
			"max":[
				0.6000000238418579,
				1.7500001192092896,
				0.75
			],
			"min":[
				-0.6000000238418579,
				-4.106748552334949e-10,
				-0.75
			],
			"type":"VEC3"
		},
		{
			"bufferView":66,
			"componentType":5126,
			"count":588,
			"type":"VEC3"
		},
		{
			"bufferView":67,
			"componentType":5126,
			"count":588,
			"type":"VEC2"
		},
		{
			"bufferView":68,
			"componentType":5126,
			"count":588,
			"max":[
				0.6000000238418579,
				1.7500001192092896,
				0.75
			],
			"min":[
				-0.6000000238418579,
				-4.106748552334949e-10,
				-0.75
			],
			"type":"VEC3"
		},
		{
			"bufferView":69,
			"componentType":5126,
			"count":588,
			"type":"VEC3"
		},
		{
			"bufferView":70,
			"componentType":5126,
			"count":588,
			"type":"VEC2"
		},
		{
			"bufferView":71,
			"componentType":5126,
			"count":24,
			"max":[
				0.5,
				0.15046624839305878,
				0.5
			],
			"min":[
				-0.5,
				0,
				-0.5
			],
			"type":"VEC3"
		},
		{
			"bufferView":72,
			"componentType":5126,
			"count":24,
			"type":"VEC3"
		},
		{
			"bufferView":73,
			"componentType":5126,
			"count":24,
			"type":"VEC2"
		},
		{
			"bufferView":74,
			"componentType":5123,
			"count":36,
			"type":"SCALAR"
		},
		{
			"bufferView":75,
			"componentType":5126,
			"count":24,
			"max":[
				1,
				1,
				1
			],
			"min":[
				-1,
				-1,
				-1
			],
			"type":"VEC3"
		},
		{
			"bufferView":76,
			"componentType":5126,
			"count":24,
			"type":"VEC3"
		},
		{
			"bufferView":77,
			"componentType":5126,
			"count":24,
			"type":"VEC2"
		},
		{
			"bufferView":78,
			"componentType":5123,
			"count":36,
			"type":"SCALAR"
		},
		{
			"bufferView":79,
			"componentType":5126,
			"count":24,
			"max":[
				1,
				1,
				1
			],
			"min":[
				-1,
				-1,
				-1
			],
			"type":"VEC3"
		},
		{
			"bufferView":80,
			"componentType":5126,
			"count":24,
			"type":"VEC3"
		},
		{
			"bufferView":81,
			"componentType":5126,
			"count":24,
			"type":"VEC2"
		},
		{
			"bufferView":82,
			"componentType":5126,
			"count":24,
			"max":[
				1,
				1,
				1
			],
			"min":[
				-1,
				-1,
				-1
			],
			"type":"VEC3"
		},
		{
			"bufferView":83,
			"componentType":5126,
			"count":24,
			"type":"VEC3"
		},
		{
			"bufferView":84,
			"componentType":5126,
			"count":24,
			"type":"VEC2"
		},
		{
			"bufferView":85,
			"componentType":5126,
			"count":24,
			"max":[
				1,
				1,
				1
			],
			"min":[
				-1,
				-1,
				-1
			],
			"type":"VEC3"
		},
		{
			"bufferView":86,
			"componentType":5126,
			"count":24,
			"type":"VEC3"
		},
		{
			"bufferView":87,
			"componentType":5126,
			"count":24,
			"type":"VEC2"
		},
		{
			"bufferView":88,
			"componentType":5126,
			"count":24,
			"max":[
				1,
				1,
				1
			],
			"min":[
				-1,
				-1,
				-1
			],
			"type":"VEC3"
		},
		{
			"bufferView":89,
			"componentType":5126,
			"count":24,
			"type":"VEC3"
		},
		{
			"bufferView":90,
			"componentType":5126,
			"count":24,
			"type":"VEC2"
		},
		{
			"bufferView":91,
			"componentType":5126,
			"count":24,
			"max":[
				0.5,
				0.15046624839305878,
				0.5
			],
			"min":[
				-0.5,
				0,
				-0.5
			],
			"type":"VEC3"
		},
		{
			"bufferView":92,
			"componentType":5126,
			"count":24,
			"type":"VEC3"
		},
		{
			"bufferView":93,
			"componentType":5126,
			"count":24,
			"type":"VEC2"
		},
		{
			"bufferView":94,
			"componentType":5126,
			"count":24,
			"max":[
				0.5,
				0.15046624839305878,
				0.5
			],
			"min":[
				-0.5,
				0,
				-0.5
			],
			"type":"VEC3"
		},
		{
			"bufferView":95,
			"componentType":5126,
			"count":24,
			"type":"VEC3"
		},
		{
			"bufferView":96,
			"componentType":5126,
			"count":24,
			"type":"VEC2"
		},
		{
			"bufferView":97,
			"componentType":5126,
			"count":24,
			"max":[
				0.5,
				0.15046624839305878,
				0.5
			],
			"min":[
				-0.5,
				0,
				-0.5
			],
			"type":"VEC3"
		},
		{
			"bufferView":98,
			"componentType":5126,
			"count":24,
			"type":"VEC3"
		},
		{
			"bufferView":99,
			"componentType":5126,
			"count":24,
			"type":"VEC2"
		},
		{
			"bufferView":100,
			"componentType":5126,
			"count":24,
			"max":[
				0.5,
				0.15046624839305878,
				0.5
			],
			"min":[
				-0.5,
				0,
				-0.5
			],
			"type":"VEC3"
		},
		{
			"bufferView":101,
			"componentType":5126,
			"count":24,
			"type":"VEC3"
		},
		{
			"bufferView":102,
			"componentType":5126,
			"count":24,
			"type":"VEC2"
		},
		{
			"bufferView":103,
			"componentType":5126,
			"count":468,
			"max":[
				0.15000000596046448,
				2,
				0.550000011920929
			],
			"min":[
				-0.15000000596046448,
				0,
				-0.550000011920929
			],
			"type":"VEC3"
		},
		{
			"bufferView":104,
			"componentType":5126,
			"count":468,
			"type":"VEC3"
		},
		{
			"bufferView":105,
			"componentType":5126,
			"count":468,
			"type":"VEC2"
		},
		{
			"bufferView":106,
			"componentType":5123,
			"count":804,
			"type":"SCALAR"
		},
		{
			"bufferView":107,
			"componentType":5126,
			"count":468,
			"max":[
				0.15000000596046448,
				2,
				0.550000011920929
			],
			"min":[
				-0.15000000596046448,
				0,
				-0.550000011920929
			],
			"type":"VEC3"
		},
		{
			"bufferView":108,
			"componentType":5126,
			"count":468,
			"type":"VEC3"
		},
		{
			"bufferView":109,
			"componentType":5126,
			"count":468,
			"type":"VEC2"
		},
		{
			"bufferView":110,
			"componentType":5126,
			"count":468,
			"max":[
				0.15000000596046448,
				2,
				0.550000011920929
			],
			"min":[
				-0.15000000596046448,
				0,
				-0.550000011920929
			],
			"type":"VEC3"
		},
		{
			"bufferView":111,
			"componentType":5126,
			"count":468,
			"type":"VEC3"
		},
		{
			"bufferView":112,
			"componentType":5126,
			"count":468,
			"type":"VEC2"
		},
		{
			"bufferView":113,
			"componentType":5126,
			"count":468,
			"max":[
				0.15000000596046448,
				2,
				0.550000011920929
			],
			"min":[
				-0.15000000596046448,
				0,
				-0.550000011920929
			],
			"type":"VEC3"
		},
		{
			"bufferView":114,
			"componentType":5126,
			"count":468,
			"type":"VEC3"
		},
		{
			"bufferView":115,
			"componentType":5126,
			"count":468,
			"type":"VEC2"
		},
		{
			"bufferView":116,
			"componentType":5126,
			"count":468,
			"max":[
				0.15000000596046448,
				2,
				0.550000011920929
			],
			"min":[
				-0.15000000596046448,
				0,
				-0.550000011920929
			],
			"type":"VEC3"
		},
		{
			"bufferView":117,
			"componentType":5126,
			"count":468,
			"type":"VEC3"
		},
		{
			"bufferView":118,
			"componentType":5126,
			"count":468,
			"type":"VEC2"
		},
		{
			"bufferView":119,
			"componentType":5126,
			"count":468,
			"max":[
				0.15000000596046448,
				2,
				0.550000011920929
			],
			"min":[
				-0.15000000596046448,
				0,
				-0.550000011920929
			],
			"type":"VEC3"
		},
		{
			"bufferView":120,
			"componentType":5126,
			"count":468,
			"type":"VEC3"
		},
		{
			"bufferView":121,
			"componentType":5126,
			"count":468,
			"type":"VEC2"
		},
		{
			"bufferView":122,
			"componentType":5126,
			"count":468,
			"max":[
				0.15000000596046448,
				2,
				0.550000011920929
			],
			"min":[
				-0.15000000596046448,
				0,
				-0.550000011920929
			],
			"type":"VEC3"
		},
		{
			"bufferView":123,
			"componentType":5126,
			"count":468,
			"type":"VEC3"
		},
		{
			"bufferView":124,
			"componentType":5126,
			"count":468,
			"type":"VEC2"
		},
		{
			"bufferView":125,
			"componentType":5126,
			"count":468,
			"max":[
				0.15000000596046448,
				2,
				0.550000011920929
			],
			"min":[
				-0.15000000596046448,
				0,
				-0.550000011920929
			],
			"type":"VEC3"
		},
		{
			"bufferView":126,
			"componentType":5126,
			"count":468,
			"type":"VEC3"
		},
		{
			"bufferView":127,
			"componentType":5126,
			"count":468,
			"type":"VEC2"
		},
		{
			"bufferView":128,
			"componentType":5126,
			"count":468,
			"max":[
				0.15000000596046448,
				2,
				0.550000011920929
			],
			"min":[
				-0.15000000596046448,
				0,
				-0.550000011920929
			],
			"type":"VEC3"
		},
		{
			"bufferView":129,
			"componentType":5126,
			"count":468,
			"type":"VEC3"
		},
		{
			"bufferView":130,
			"componentType":5126,
			"count":468,
			"type":"VEC2"
		},
		{
			"bufferView":131,
			"componentType":5126,
			"count":468,
			"max":[
				0.15000000596046448,
				2,
				0.550000011920929
			],
			"min":[
				-0.15000000596046448,
				0,
				-0.550000011920929
			],
			"type":"VEC3"
		},
		{
			"bufferView":132,
			"componentType":5126,
			"count":468,
			"type":"VEC3"
		},
		{
			"bufferView":133,
			"componentType":5126,
			"count":468,
			"type":"VEC2"
		},
		{
			"bufferView":134,
			"componentType":5126,
			"count":604,
			"max":[
				0.9999999403953552,
				1.4999998807907104,
				0.5
			],
			"min":[
				-0.9999999403953552,
				0,
				-0.5000000596046448
			],
			"type":"VEC3"
		},
		{
			"bufferView":135,
			"componentType":5126,
			"count":604,
			"type":"VEC3"
		},
		{
			"bufferView":136,
			"componentType":5126,
			"count":604,
			"type":"VEC2"
		},
		{
			"bufferView":137,
			"componentType":5123,
			"count":1092,
			"type":"SCALAR"
		},
		{
			"bufferView":138,
			"componentType":5126,
			"count":604,
			"max":[
				0.9999999403953552,
				1.4999998807907104,
				0.5
			],
			"min":[
				-0.9999999403953552,
				0,
				-0.5000000596046448
			],
			"type":"VEC3"
		},
		{
			"bufferView":139,
			"componentType":5126,
			"count":604,
			"type":"VEC3"
		},
		{
			"bufferView":140,
			"componentType":5126,
			"count":604,
			"type":"VEC2"
		},
		{
			"bufferView":141,
			"componentType":5126,
			"count":604,
			"max":[
				0.9999999403953552,
				1.4999998807907104,
				0.5
			],
			"min":[
				-0.9999999403953552,
				0,
				-0.5000000596046448
			],
			"type":"VEC3"
		},
		{
			"bufferView":142,
			"componentType":5126,
			"count":604,
			"type":"VEC3"
		},
		{
			"bufferView":143,
			"componentType":5126,
			"count":604,
			"type":"VEC2"
		},
		{
			"bufferView":144,
			"componentType":5126,
			"count":604,
			"max":[
				0.9999999403953552,
				1.4999998807907104,
				0.5
			],
			"min":[
				-0.9999999403953552,
				0,
				-0.5000000596046448
			],
			"type":"VEC3"
		},
		{
			"bufferView":145,
			"componentType":5126,
			"count":604,
			"type":"VEC3"
		},
		{
			"bufferView":146,
			"componentType":5126,
			"count":604,
			"type":"VEC2"
		},
		{
			"bufferView":147,
			"componentType":5126,
			"count":604,
			"max":[
				0.9999999403953552,
				1.4999998807907104,
				0.5
			],
			"min":[
				-0.9999999403953552,
				0,
				-0.5000000596046448
			],
			"type":"VEC3"
		},
		{
			"bufferView":148,
			"componentType":5126,
			"count":604,
			"type":"VEC3"
		},
		{
			"bufferView":149,
			"componentType":5126,
			"count":604,
			"type":"VEC2"
		},
		{
			"bufferView":150,
			"componentType":5126,
			"count":240,
			"max":[
				0.9999998807907104,
				0.5,
				0.00023920070088934153
			],
			"min":[
				-0.8999999761581421,
				-1.399999976158142,
				-1
			],
			"type":"VEC3"
		},
		{
			"bufferView":151,
			"componentType":5126,
			"count":240,
			"type":"VEC3"
		},
		{
			"bufferView":152,
			"componentType":5126,
			"count":240,
			"type":"VEC2"
		},
		{
			"bufferView":153,
			"componentType":5121,
			"count":240,
			"normalized":true,
			"type":"VEC4"
		},
		{
			"bufferView":154,
			"componentType":5123,
			"count":240,
			"normalized":true,
			"type":"VEC4"
		},
		{
			"bufferView":155,
			"componentType":5123,
			"count":1344,
			"type":"SCALAR"
		},
		{
			"bufferView":156,
			"componentType":5126,
			"count":240,
			"max":[
				0.9999998807907104,
				0.5,
				0.00023920070088934153
			],
			"min":[
				-0.8999999761581421,
				-1.399999976158142,
				-1
			],
			"type":"VEC3"
		},
		{
			"bufferView":157,
			"componentType":5126,
			"count":240,
			"type":"VEC3"
		},
		{
			"bufferView":158,
			"componentType":5126,
			"count":240,
			"type":"VEC2"
		},
		{
			"bufferView":159,
			"componentType":5121,
			"count":240,
			"normalized":true,
			"type":"VEC4"
		},
		{
			"bufferView":160,
			"componentType":5123,
			"count":240,
			"normalized":true,
			"type":"VEC4"
		},
		{
			"bufferView":161,
			"componentType":5126,
			"count":151,
			"max":[
				0.25,
				0.5,
				0
			],
			"min":[
				-0.25,
				-0.5,
				-0.4000000059604645
			],
			"type":"VEC3"
		},
		{
			"bufferView":162,
			"componentType":5126,
			"count":151,
			"type":"VEC3"
		},
		{
			"bufferView":163,
			"componentType":5126,
			"count":151,
			"type":"VEC2"
		},
		{
			"bufferView":164,
			"componentType":5126,
			"count":151,
			"type":"VEC3"
		},
		{
			"bufferView":165,
			"componentType":5123,
			"count":151,
			"normalized":true,
			"type":"VEC4"
		},
		{
			"bufferView":166,
			"componentType":5126,
			"count":56,
			"max":[
				5,
				0.5,
				0
			],
			"min":[
				-5,
				-0.5,
				-0.4000000059604645
			],
			"type":"VEC3"
		},
		{
			"bufferView":167,
			"componentType":5126,
			"count":56,
			"type":"VEC3"
		},
		{
			"bufferView":168,
			"componentType":5126,
			"count":56,
			"type":"VEC2"
		},
		{
			"bufferView":169,
			"componentType":5126,
			"count":56,
			"type":"VEC3"
		},
		{
			"bufferView":170,
			"componentType":5123,
			"count":56,
			"normalized":true,
			"type":"VEC4"
		},
		{
			"bufferView":171,
			"componentType":5126,
			"count":468,
			"max":[
				0.15000000596046448,
				2,
				0.550000011920929
			],
			"min":[
				-0.15000000596046448,
				0,
				-0.550000011920929
			],
			"type":"VEC3"
		},
		{
			"bufferView":172,
			"componentType":5126,
			"count":468,
			"type":"VEC3"
		},
		{
			"bufferView":173,
			"componentType":5126,
			"count":468,
			"type":"VEC2"
		},
		{
			"bufferView":174,
			"componentType":5126,
			"count":468,
			"max":[
				0.15000000596046448,
				2,
				0.550000011920929
			],
			"min":[
				-0.15000000596046448,
				0,
				-0.550000011920929
			],
			"type":"VEC3"
		},
		{
			"bufferView":175,
			"componentType":5126,
			"count":468,
			"type":"VEC3"
		},
		{
			"bufferView":176,
			"componentType":5126,
			"count":468,
			"type":"VEC2"
		},
		{
			"bufferView":177,
			"componentType":5126,
			"count":468,
			"max":[
				0.15000000596046448,
				2,
				0.550000011920929
			],
			"min":[
				-0.15000000596046448,
				0,
				-0.550000011920929
			],
			"type":"VEC3"
		},
		{
			"bufferView":178,
			"componentType":5126,
			"count":468,
			"type":"VEC3"
		},
		{
			"bufferView":179,
			"componentType":5126,
			"count":468,
			"type":"VEC2"
		},
		{
			"bufferView":180,
			"componentType":5126,
			"count":468,
			"max":[
				0.15000000596046448,
				2,
				0.550000011920929
			],
			"min":[
				-0.15000000596046448,
				0,
				-0.550000011920929
			],
			"type":"VEC3"
		},
		{
			"bufferView":181,
			"componentType":5126,
			"count":468,
			"type":"VEC3"
		},
		{
			"bufferView":182,
			"componentType":5126,
			"count":468,
			"type":"VEC2"
		},
		{
			"bufferView":183,
			"componentType":5126,
			"count":192,
			"max":[
				0.9999998807907104,
				0.5,
				0
			],
			"min":[
				-0.9999998807907104,
				-0.5,
				-1
			],
			"type":"VEC3"
		},
		{
			"bufferView":184,
			"componentType":5126,
			"count":192,
			"type":"VEC3"
		},
		{
			"bufferView":185,
			"componentType":5126,
			"count":192,
			"type":"VEC2"
		},
		{
			"bufferView":186,
			"componentType":5121,
			"count":192,
			"normalized":true,
			"type":"VEC4"
		},
		{
			"bufferView":187,
			"componentType":5123,
			"count":192,
			"normalized":true,
			"type":"VEC4"
		},
		{
			"bufferView":188,
			"componentType":5123,
			"count":876,
			"type":"SCALAR"
		},
		{
			"bufferView":189,
			"componentType":5126,
			"count":468,
			"max":[
				0.15000000596046448,
				2,
				0.550000011920929
			],
			"min":[
				-0.15000000596046448,
				0,
				-0.550000011920929
			],
			"type":"VEC3"
		},
		{
			"bufferView":190,
			"componentType":5126,
			"count":468,
			"type":"VEC3"
		},
		{
			"bufferView":191,
			"componentType":5126,
			"count":468,
			"type":"VEC2"
		},
		{
			"bufferView":192,
			"componentType":5126,
			"count":468,
			"max":[
				0.15000000596046448,
				2,
				0.550000011920929
			],
			"min":[
				-0.15000000596046448,
				0,
				-0.550000011920929
			],
			"type":"VEC3"
		},
		{
			"bufferView":193,
			"componentType":5126,
			"count":468,
			"type":"VEC3"
		},
		{
			"bufferView":194,
			"componentType":5126,
			"count":468,
			"type":"VEC2"
		},
		{
			"bufferView":195,
			"componentType":5126,
			"count":468,
			"max":[
				0.15000000596046448,
				2,
				0.550000011920929
			],
			"min":[
				-0.15000000596046448,
				0,
				-0.550000011920929
			],
			"type":"VEC3"
		},
		{
			"bufferView":196,
			"componentType":5126,
			"count":468,
			"type":"VEC3"
		},
		{
			"bufferView":197,
			"componentType":5126,
			"count":468,
			"type":"VEC2"
		},
		{
			"bufferView":198,
			"componentType":5126,
			"count":468,
			"max":[
				0.15000000596046448,
				2,
				0.550000011920929
			],
			"min":[
				-0.15000000596046448,
				0,
				-0.550000011920929
			],
			"type":"VEC3"
		},
		{
			"bufferView":199,
			"componentType":5126,
			"count":468,
			"type":"VEC3"
		},
		{
			"bufferView":200,
			"componentType":5126,
			"count":468,
			"type":"VEC2"
		},
		{
			"bufferView":201,
			"componentType":5126,
			"count":192,
			"max":[
				0.9999998807907104,
				0.5,
				0
			],
			"min":[
				-0.9999998807907104,
				-0.5,
				-1
			],
			"type":"VEC3"
		},
		{
			"bufferView":202,
			"componentType":5126,
			"count":192,
			"type":"VEC3"
		},
		{
			"bufferView":203,
			"componentType":5126,
			"count":192,
			"type":"VEC2"
		},
		{
			"bufferView":204,
			"componentType":5121,
			"count":192,
			"normalized":true,
			"type":"VEC4"
		},
		{
			"bufferView":205,
			"componentType":5123,
			"count":192,
			"normalized":true,
			"type":"VEC4"
		},
		{
			"bufferView":206,
			"componentType":5126,
			"count":56,
			"max":[
				5,
				0.5,
				0
			],
			"min":[
				-5,
				-0.5,
				-0.4000000059604645
			],
			"type":"VEC3"
		},
		{
			"bufferView":207,
			"componentType":5126,
			"count":56,
			"type":"VEC3"
		},
		{
			"bufferView":208,
			"componentType":5126,
			"count":56,
			"type":"VEC2"
		},
		{
			"bufferView":209,
			"componentType":5126,
			"count":56,
			"type":"VEC3"
		},
		{
			"bufferView":210,
			"componentType":5123,
			"count":56,
			"normalized":true,
			"type":"VEC4"
		},
		{
			"bufferView":211,
			"componentType":5126,
			"count":151,
			"max":[
				0.25,
				0.5,
				0
			],
			"min":[
				-0.25,
				-0.5,
				-0.4000000059604645
			],
			"type":"VEC3"
		},
		{
			"bufferView":212,
			"componentType":5126,
			"count":151,
			"type":"VEC3"
		},
		{
			"bufferView":213,
			"componentType":5126,
			"count":151,
			"type":"VEC2"
		},
		{
			"bufferView":214,
			"componentType":5126,
			"count":151,
			"type":"VEC3"
		},
		{
			"bufferView":215,
			"componentType":5123,
			"count":151,
			"normalized":true,
			"type":"VEC4"
		}
	],
	"bufferViews":[
		{
			"buffer":0,
			"byteLength":1812,
			"byteOffset":0,
			"target":34962
		},
		{
			"buffer":0,
			"byteLength":1812,
			"byteOffset":1812,
			"target":34962
		},
		{
			"buffer":0,
			"byteLength":1208,
			"byteOffset":3624,
			"target":34962
		},
		{
			"buffer":0,
			"byteLength":1812,
			"byteOffset":4832,
			"target":34962
		},
		{
			"buffer":0,
			"byteLength":1208,
			"byteOffset":6644,
			"target":34962
		},
		{
			"buffer":0,
			"byteLength":1104,
			"byteOffset":7852,
			"target":34963
		},
		{
			"buffer":0,
			"byteLength":672,
			"byteOffset":8956,
			"target":34962
		},
		{
			"buffer":0,
			"byteLength":672,
			"byteOffset":9628,
			"target":34962
		},
		{
			"buffer":0,
			"byteLength":448,
			"byteOffset":10300,
			"target":34962
		},
		{
			"buffer":0,
			"byteLength":672,
			"byteOffset":10748,
			"target":34962
		},
		{
			"buffer":0,
			"byteLength":448,
			"byteOffset":11420,
			"target":34962
		},
		{
			"buffer":0,
			"byteLength":360,
			"byteOffset":11868,
			"target":34963
		},
		{
			"buffer":0,
			"byteLength":672,
			"byteOffset":12228,
			"target":34962
		},
		{
			"buffer":0,
			"byteLength":672,
			"byteOffset":12900,
			"target":34962
		},
		{
			"buffer":0,
			"byteLength":448,
			"byteOffset":13572,
			"target":34962
		},
		{
			"buffer":0,
			"byteLength":672,
			"byteOffset":14020,
			"target":34962
		},
		{
			"buffer":0,
			"byteLength":448,
			"byteOffset":14692,
			"target":34962
		},
		{
			"buffer":0,
			"byteLength":1812,
			"byteOffset":15140,
			"target":34962
		},
		{
			"buffer":0,
			"byteLength":1812,
			"byteOffset":16952,
			"target":34962
		},
		{
			"buffer":0,
			"byteLength":1208,
			"byteOffset":18764,
			"target":34962
		},
		{
			"buffer":0,
			"byteLength":1812,
			"byteOffset":19972,
			"target":34962
		},
		{
			"buffer":0,
			"byteLength":1208,
			"byteOffset":21784,
			"target":34962
		},
		{
			"buffer":0,
			"byteLength":672,
			"byteOffset":22992,
			"target":34962
		},
		{
			"buffer":0,
			"byteLength":672,
			"byteOffset":23664,
			"target":34962
		},
		{
			"buffer":0,
			"byteLength":448,
			"byteOffset":24336,
			"target":34962
		},
		{
			"buffer":0,
			"byteLength":672,
			"byteOffset":24784,
			"target":34962
		},
		{
			"buffer":0,
			"byteLength":448,
			"byteOffset":25456,
			"target":34962
		},
		{
			"buffer":0,
			"byteLength":1812,
			"byteOffset":25904,
			"target":34962
		},
		{
			"buffer":0,
			"byteLength":1812,
			"byteOffset":27716,
			"target":34962
		},
		{
			"buffer":0,
			"byteLength":1208,
			"byteOffset":29528,
			"target":34962
		},
		{
			"buffer":0,
			"byteLength":1812,
			"byteOffset":30736,
			"target":34962
		},
		{
			"buffer":0,
			"byteLength":1208,
			"byteOffset":32548,
			"target":34962
		},
		{
			"buffer":0,
			"byteLength":672,
			"byteOffset":33756,
			"target":34962
		},
		{
			"buffer":0,
			"byteLength":672,
			"byteOffset":34428,
			"target":34962
		},
		{
			"buffer":0,
			"byteLength":448,
			"byteOffset":35100,
			"target":34962
		},
		{
			"buffer":0,
			"byteLength":672,
			"byteOffset":35548,
			"target":34962
		},
		{
			"buffer":0,
			"byteLength":448,
			"byteOffset":36220,
			"target":34962
		},
		{
			"buffer":0,
			"byteLength":1812,
			"byteOffset":36668,
			"target":34962
		},
		{
			"buffer":0,
			"byteLength":1812,
			"byteOffset":38480,
			"target":34962
		},
		{
			"buffer":0,
			"byteLength":1208,
			"byteOffset":40292,
			"target":34962
		},
		{
			"buffer":0,
			"byteLength":1812,
			"byteOffset":41500,
			"target":34962
		},
		{
			"buffer":0,
			"byteLength":1208,
			"byteOffset":43312,
			"target":34962
		},
		{
			"buffer":0,
			"byteLength":672,
			"byteOffset":44520,
			"target":34962
		},
		{
			"buffer":0,
			"byteLength":672,
			"byteOffset":45192,
			"target":34962
		},
		{
			"buffer":0,
			"byteLength":448,
			"byteOffset":45864,
			"target":34962
		},
		{
			"buffer":0,
			"byteLength":672,
			"byteOffset":46312,
			"target":34962
		},
		{
			"buffer":0,
			"byteLength":448,
			"byteOffset":46984,
			"target":34962
		},
		{
			"buffer":0,
			"byteLength":1812,
			"byteOffset":47432,
			"target":34962
		},
		{
			"buffer":0,
			"byteLength":1812,
			"byteOffset":49244,
			"target":34962
		},
		{
			"buffer":0,
			"byteLength":1208,
			"byteOffset":51056,
			"target":34962
		},
		{
			"buffer":0,
			"byteLength":1812,
			"byteOffset":52264,
			"target":34962
		},
		{
			"buffer":0,
			"byteLength":1208,
			"byteOffset":54076,
			"target":34962
		},
		{
			"buffer":0,
			"byteLength":7056,
			"byteOffset":55284,
			"target":34962
		},
		{
			"buffer":0,
			"byteLength":7056,
			"byteOffset":62340,
			"target":34962
		},
		{
			"buffer":0,
			"byteLength":4704,
			"byteOffset":69396,
			"target":34962
		},
		{
			"buffer":0,
			"byteLength":2052,
			"byteOffset":74100,
			"target":34963
		},
		{
			"buffer":0,
			"byteLength":7056,
			"byteOffset":76152,
			"target":34962
		},
		{
			"buffer":0,
			"byteLength":7056,
			"byteOffset":83208,
			"target":34962
		},
		{
			"buffer":0,
			"byteLength":4704,
			"byteOffset":90264,
			"target":34962
		},
		{
			"buffer":0,
			"byteLength":7056,
			"byteOffset":94968,
			"target":34962
		},
		{
			"buffer":0,
			"byteLength":7056,
			"byteOffset":102024,
			"target":34962
		},
		{
			"buffer":0,
			"byteLength":4704,
			"byteOffset":109080,
			"target":34962
		},
		{
			"buffer":0,
			"byteLength":7056,
			"byteOffset":113784,
			"target":34962
		},
		{
			"buffer":0,
			"byteLength":7056,
			"byteOffset":120840,
			"target":34962
		},
		{
			"buffer":0,
			"byteLength":4704,
			"byteOffset":127896,
			"target":34962
		},
		{
			"buffer":0,
			"byteLength":7056,
			"byteOffset":132600,
			"target":34962
		},
		{
			"buffer":0,
			"byteLength":7056,
			"byteOffset":139656,
			"target":34962
		},
		{
			"buffer":0,
			"byteLength":4704,
			"byteOffset":146712,
			"target":34962
		},
		{
			"buffer":0,
			"byteLength":7056,
			"byteOffset":151416,
			"target":34962
		},
		{
			"buffer":0,
			"byteLength":7056,
			"byteOffset":158472,
			"target":34962
		},
		{
			"buffer":0,
			"byteLength":4704,
			"byteOffset":165528,
			"target":34962
		},
		{
			"buffer":0,
			"byteLength":288,
			"byteOffset":170232,
			"target":34962
		},
		{
			"buffer":0,
			"byteLength":288,
			"byteOffset":170520,
			"target":34962
		},
		{
			"buffer":0,
			"byteLength":192,
			"byteOffset":170808,
			"target":34962
		},
		{
			"buffer":0,
			"byteLength":72,
			"byteOffset":171000,
			"target":34963
		},
		{
			"buffer":0,
			"byteLength":288,
			"byteOffset":171072,
			"target":34962
		},
		{
			"buffer":0,
			"byteLength":288,
			"byteOffset":171360,
			"target":34962
		},
		{
			"buffer":0,
			"byteLength":192,
			"byteOffset":171648,
			"target":34962
		},
		{
			"buffer":0,
			"byteLength":72,
			"byteOffset":171840,
			"target":34963
		},
		{
			"buffer":0,
			"byteLength":288,
			"byteOffset":171912,
			"target":34962
		},
		{
			"buffer":0,
			"byteLength":288,
			"byteOffset":172200,
			"target":34962
		},
		{
			"buffer":0,
			"byteLength":192,
			"byteOffset":172488,
			"target":34962
		},
		{
			"buffer":0,
			"byteLength":288,
			"byteOffset":172680,
			"target":34962
		},
		{
			"buffer":0,
			"byteLength":288,
			"byteOffset":172968,
			"target":34962
		},
		{
			"buffer":0,
			"byteLength":192,
			"byteOffset":173256,
			"target":34962
		},
		{
			"buffer":0,
			"byteLength":288,
			"byteOffset":173448,
			"target":34962
		},
		{
			"buffer":0,
			"byteLength":288,
			"byteOffset":173736,
			"target":34962
		},
		{
			"buffer":0,
			"byteLength":192,
			"byteOffset":174024,
			"target":34962
		},
		{
			"buffer":0,
			"byteLength":288,
			"byteOffset":174216,
			"target":34962
		},
		{
			"buffer":0,
			"byteLength":288,
			"byteOffset":174504,
			"target":34962
		},
		{
			"buffer":0,
			"byteLength":192,
			"byteOffset":174792,
			"target":34962
		},
		{
			"buffer":0,
			"byteLength":288,
			"byteOffset":174984,
			"target":34962
		},
		{
			"buffer":0,
			"byteLength":288,
			"byteOffset":175272,
			"target":34962
		},
		{
			"buffer":0,
			"byteLength":192,
			"byteOffset":175560,
			"target":34962
		},
		{
			"buffer":0,
			"byteLength":288,
			"byteOffset":175752,
			"target":34962
		},
		{
			"buffer":0,
			"byteLength":288,
			"byteOffset":176040,
			"target":34962
		},
		{
			"buffer":0,
			"byteLength":192,
			"byteOffset":176328,
			"target":34962
		},
		{
			"buffer":0,
			"byteLength":288,
			"byteOffset":176520,
			"target":34962
		},
		{
			"buffer":0,
			"byteLength":288,
			"byteOffset":176808,
			"target":34962
		},
		{
			"buffer":0,
			"byteLength":192,
			"byteOffset":177096,
			"target":34962
		},
		{
			"buffer":0,
			"byteLength":288,
			"byteOffset":177288,
			"target":34962
		},
		{
			"buffer":0,
			"byteLength":288,
			"byteOffset":177576,
			"target":34962
		},
		{
			"buffer":0,
			"byteLength":192,
			"byteOffset":177864,
			"target":34962
		},
		{
			"buffer":0,
			"byteLength":5616,
			"byteOffset":178056,
			"target":34962
		},
		{
			"buffer":0,
			"byteLength":5616,
			"byteOffset":183672,
			"target":34962
		},
		{
			"buffer":0,
			"byteLength":3744,
			"byteOffset":189288,
			"target":34962
		},
		{
			"buffer":0,
			"byteLength":1608,
			"byteOffset":193032,
			"target":34963
		},
		{
			"buffer":0,
			"byteLength":5616,
			"byteOffset":194640,
			"target":34962
		},
		{
			"buffer":0,
			"byteLength":5616,
			"byteOffset":200256,
			"target":34962
		},
		{
			"buffer":0,
			"byteLength":3744,
			"byteOffset":205872,
			"target":34962
		},
		{
			"buffer":0,
			"byteLength":5616,
			"byteOffset":209616,
			"target":34962
		},
		{
			"buffer":0,
			"byteLength":5616,
			"byteOffset":215232,
			"target":34962
		},
		{
			"buffer":0,
			"byteLength":3744,
			"byteOffset":220848,
			"target":34962
		},
		{
			"buffer":0,
			"byteLength":5616,
			"byteOffset":224592,
			"target":34962
		},
		{
			"buffer":0,
			"byteLength":5616,
			"byteOffset":230208,
			"target":34962
		},
		{
			"buffer":0,
			"byteLength":3744,
			"byteOffset":235824,
			"target":34962
		},
		{
			"buffer":0,
			"byteLength":5616,
			"byteOffset":239568,
			"target":34962
		},
		{
			"buffer":0,
			"byteLength":5616,
			"byteOffset":245184,
			"target":34962
		},
		{
			"buffer":0,
			"byteLength":3744,
			"byteOffset":250800,
			"target":34962
		},
		{
			"buffer":0,
			"byteLength":5616,
			"byteOffset":254544,
			"target":34962
		},
		{
			"buffer":0,
			"byteLength":5616,
			"byteOffset":260160,
			"target":34962
		},
		{
			"buffer":0,
			"byteLength":3744,
			"byteOffset":265776,
			"target":34962
		},
		{
			"buffer":0,
			"byteLength":5616,
			"byteOffset":269520,
			"target":34962
		},
		{
			"buffer":0,
			"byteLength":5616,
			"byteOffset":275136,
			"target":34962
		},
		{
			"buffer":0,
			"byteLength":3744,
			"byteOffset":280752,
			"target":34962
		},
		{
			"buffer":0,
			"byteLength":5616,
			"byteOffset":284496,
			"target":34962
		},
		{
			"buffer":0,
			"byteLength":5616,
			"byteOffset":290112,
			"target":34962
		},
		{
			"buffer":0,
			"byteLength":3744,
			"byteOffset":295728,
			"target":34962
		},
		{
			"buffer":0,
			"byteLength":5616,
			"byteOffset":299472,
			"target":34962
		},
		{
			"buffer":0,
			"byteLength":5616,
			"byteOffset":305088,
			"target":34962
		},
		{
			"buffer":0,
			"byteLength":3744,
			"byteOffset":310704,
			"target":34962
		},
		{
			"buffer":0,
			"byteLength":5616,
			"byteOffset":314448,
			"target":34962
		},
		{
			"buffer":0,
			"byteLength":5616,
			"byteOffset":320064,
			"target":34962
		},
		{
			"buffer":0,
			"byteLength":3744,
			"byteOffset":325680,
			"target":34962
		},
		{
			"buffer":0,
			"byteLength":7248,
			"byteOffset":329424,
			"target":34962
		},
		{
			"buffer":0,
			"byteLength":7248,
			"byteOffset":336672,
			"target":34962
		},
		{
			"buffer":0,
			"byteLength":4832,
			"byteOffset":343920,
			"target":34962
		},
		{
			"buffer":0,
			"byteLength":2184,
			"byteOffset":348752,
			"target":34963
		},
		{
			"buffer":0,
			"byteLength":7248,
			"byteOffset":350936,
			"target":34962
		},
		{
			"buffer":0,
			"byteLength":7248,
			"byteOffset":358184,
			"target":34962
		},
		{
			"buffer":0,
			"byteLength":4832,
			"byteOffset":365432,
			"target":34962
		},
		{
			"buffer":0,
			"byteLength":7248,
			"byteOffset":370264,
			"target":34962
		},
		{
			"buffer":0,
			"byteLength":7248,
			"byteOffset":377512,
			"target":34962
		},
		{
			"buffer":0,
			"byteLength":4832,
			"byteOffset":384760,
			"target":34962
		},
		{
			"buffer":0,
			"byteLength":7248,
			"byteOffset":389592,
			"target":34962
		},
		{
			"buffer":0,
			"byteLength":7248,
			"byteOffset":396840,
			"target":34962
		},
		{
			"buffer":0,
			"byteLength":4832,
			"byteOffset":404088,
			"target":34962
		},
		{
			"buffer":0,
			"byteLength":7248,
			"byteOffset":408920,
			"target":34962
		},
		{
			"buffer":0,
			"byteLength":7248,
			"byteOffset":416168,
			"target":34962
		},
		{
			"buffer":0,
			"byteLength":4832,
			"byteOffset":423416,
			"target":34962
		},
		{
			"buffer":0,
			"byteLength":2880,
			"byteOffset":428248,
			"target":34962
		},
		{
			"buffer":0,
			"byteLength":2880,
			"byteOffset":431128,
			"target":34962
		},
		{
			"buffer":0,
			"byteLength":1920,
			"byteOffset":434008,
			"target":34962
		},
		{
			"buffer":0,
			"byteLength":960,
			"byteOffset":435928,
			"target":34962
		},
		{
			"buffer":0,
			"byteLength":1920,
			"byteOffset":436888,
			"target":34962
		},
		{
			"buffer":0,
			"byteLength":2688,
			"byteOffset":438808,
			"target":34963
		},
		{
			"buffer":0,
			"byteLength":2880,
			"byteOffset":441496,
			"target":34962
		},
		{
			"buffer":0,
			"byteLength":2880,
			"byteOffset":444376,
			"target":34962
		},
		{
			"buffer":0,
			"byteLength":1920,
			"byteOffset":447256,
			"target":34962
		},
		{
			"buffer":0,
			"byteLength":960,
			"byteOffset":449176,
			"target":34962
		},
		{
			"buffer":0,
			"byteLength":1920,
			"byteOffset":450136,
			"target":34962
		},
		{
			"buffer":0,
			"byteLength":1812,
			"byteOffset":452056,
			"target":34962
		},
		{
			"buffer":0,
			"byteLength":1812,
			"byteOffset":453868,
			"target":34962
		},
		{
			"buffer":0,
			"byteLength":1208,
			"byteOffset":455680,
			"target":34962
		},
		{
			"buffer":0,
			"byteLength":1812,
			"byteOffset":456888,
			"target":34962
		},
		{
			"buffer":0,
			"byteLength":1208,
			"byteOffset":458700,
			"target":34962
		},
		{
			"buffer":0,
			"byteLength":672,
			"byteOffset":459908,
			"target":34962
		},
		{
			"buffer":0,
			"byteLength":672,
			"byteOffset":460580,
			"target":34962
		},
		{
			"buffer":0,
			"byteLength":448,
			"byteOffset":461252,
			"target":34962
		},
		{
			"buffer":0,
			"byteLength":672,
			"byteOffset":461700,
			"target":34962
		},
		{
			"buffer":0,
			"byteLength":448,
			"byteOffset":462372,
			"target":34962
		},
		{
			"buffer":0,
			"byteLength":5616,
			"byteOffset":462820,
			"target":34962
		},
		{
			"buffer":0,
			"byteLength":5616,
			"byteOffset":468436,
			"target":34962
		},
		{
			"buffer":0,
			"byteLength":3744,
			"byteOffset":474052,
			"target":34962
		},
		{
			"buffer":0,
			"byteLength":5616,
			"byteOffset":477796,
			"target":34962
		},
		{
			"buffer":0,
			"byteLength":5616,
			"byteOffset":483412,
			"target":34962
		},
		{
			"buffer":0,
			"byteLength":3744,
			"byteOffset":489028,
			"target":34962
		},
		{
			"buffer":0,
			"byteLength":5616,
			"byteOffset":492772,
			"target":34962
		},
		{
			"buffer":0,
			"byteLength":5616,
			"byteOffset":498388,
			"target":34962
		},
		{
			"buffer":0,
			"byteLength":3744,
			"byteOffset":504004,
			"target":34962
		},
		{
			"buffer":0,
			"byteLength":5616,
			"byteOffset":507748,
			"target":34962
		},
		{
			"buffer":0,
			"byteLength":5616,
			"byteOffset":513364,
			"target":34962
		},
		{
			"buffer":0,
			"byteLength":3744,
			"byteOffset":518980,
			"target":34962
		},
		{
			"buffer":0,
			"byteLength":2304,
			"byteOffset":522724,
			"target":34962
		},
		{
			"buffer":0,
			"byteLength":2304,
			"byteOffset":525028,
			"target":34962
		},
		{
			"buffer":0,
			"byteLength":1536,
			"byteOffset":527332,
			"target":34962
		},
		{
			"buffer":0,
			"byteLength":768,
			"byteOffset":528868,
			"target":34962
		},
		{
			"buffer":0,
			"byteLength":1536,
			"byteOffset":529636,
			"target":34962
		},
		{
			"buffer":0,
			"byteLength":1752,
			"byteOffset":531172,
			"target":34963
		},
		{
			"buffer":0,
			"byteLength":5616,
			"byteOffset":532924,
			"target":34962
		},
		{
			"buffer":0,
			"byteLength":5616,
			"byteOffset":538540,
			"target":34962
		},
		{
			"buffer":0,
			"byteLength":3744,
			"byteOffset":544156,
			"target":34962
		},
		{
			"buffer":0,
			"byteLength":5616,
			"byteOffset":547900,
			"target":34962
		},
		{
			"buffer":0,
			"byteLength":5616,
			"byteOffset":553516,
			"target":34962
		},
		{
			"buffer":0,
			"byteLength":3744,
			"byteOffset":559132,
			"target":34962
		},
		{
			"buffer":0,
			"byteLength":5616,
			"byteOffset":562876,
			"target":34962
		},
		{
			"buffer":0,
			"byteLength":5616,
			"byteOffset":568492,
			"target":34962
		},
		{
			"buffer":0,
			"byteLength":3744,
			"byteOffset":574108,
			"target":34962
		},
		{
			"buffer":0,
			"byteLength":5616,
			"byteOffset":577852,
			"target":34962
		},
		{
			"buffer":0,
			"byteLength":5616,
			"byteOffset":583468,
			"target":34962
		},
		{
			"buffer":0,
			"byteLength":3744,
			"byteOffset":589084,
			"target":34962
		},
		{
			"buffer":0,
			"byteLength":2304,
			"byteOffset":592828,
			"target":34962
		},
		{
			"buffer":0,
			"byteLength":2304,
			"byteOffset":595132,
			"target":34962
		},
		{
			"buffer":0,
			"byteLength":1536,
			"byteOffset":597436,
			"target":34962
		},
		{
			"buffer":0,
			"byteLength":768,
			"byteOffset":598972,
			"target":34962
		},
		{
			"buffer":0,
			"byteLength":1536,
			"byteOffset":599740,
			"target":34962
		},
		{
			"buffer":0,
			"byteLength":672,
			"byteOffset":601276,
			"target":34962
		},
		{
			"buffer":0,
			"byteLength":672,
			"byteOffset":601948,
			"target":34962
		},
		{
			"buffer":0,
			"byteLength":448,
			"byteOffset":602620,
			"target":34962
		},
		{
			"buffer":0,
			"byteLength":672,
			"byteOffset":603068,
			"target":34962
		},
		{
			"buffer":0,
			"byteLength":448,
			"byteOffset":603740,
			"target":34962
		},
		{
			"buffer":0,
			"byteLength":1812,
			"byteOffset":604188,
			"target":34962
		},
		{
			"buffer":0,
			"byteLength":1812,
			"byteOffset":606000,
			"target":34962
		},
		{
			"buffer":0,
			"byteLength":1208,
			"byteOffset":607812,
			"target":34962
		},
		{
			"buffer":0,
			"byteLength":1812,
			"byteOffset":609020,
			"target":34962
		},
		{
			"buffer":0,
			"byteLength":1208,
			"byteOffset":610832,
			"target":34962
		}
	],
	"samplers":[
		{
			"magFilter":9729,
			"minFilter":9987
		}
	],
	"buffers":[
		{
			"byteLength":612040,
			"uri":"BeltConveyor.bin"
		}
	]
}
