{
	"asset":{
		"generator":"Khronos glTF Blender I/O v5.1.19",
		"version":"2.0"
	},
	"extensionsUsed":[
		"KHR_materials_specular"
	],
	"scene":0,
	"scenes":[
		{
			"name":"Scene",
			"nodes":[
				0
			]
		}
	],
	"nodes":[
		{
			"mesh":0,
			"name":"Cylinder",
			"rotation":[
				0.01537055429071188,
				-0.00027620905893854797,
				-0.999874472618103,
				0.0038367202505469322
			],
			"scale":[
				0.9474539160728455,
				1.6634902954101562,
				0.9474539160728455
			],
			"translation":[
				0,
				4.650968074798584,
				0
			]
		}
	],
	"materials":[
		{
			"doubleSided":true,
			"extensions":{
				"KHR_materials_specular":{
					"specularFactor":0.6000000238418579
				}
			},
			"name":"Red",
			"pbrMetallicRoughness":{
				"baseColorFactor":[
					0.9113287925720215,
					0.9722474217414856,
					1,
					1
				],
				"metallicFactor":0,
				"roughnessFactor":0.5
			}
		}
	],
	"meshes":[
		{
			"name":"Cylinder.001",
			"primitives":[
				{
					"attributes":{
						"POSITION":0,
						"NORMAL":1
					},
					"indices":2,
					"material":0
				}
			]
		}
	],
	"accessors":[
		{
			"bufferView":0,
			"componentType":5126,
			"count":384,
			"max":[
				1.255350947380066,
				1.47446608543396,
				1.2553510665893555
			],
			"min":[
				-1.255350947380066,
				-0.42593473196029663,
				-1.2553508281707764
			],
			"type":"VEC3"
		},
		{
			"bufferView":1,
			"componentType":5126,
			"count":384,
			"type":"VEC3"
		},
		{
			"bufferView":2,
			"componentType":5123,
			"count":1152,
			"type":"SCALAR"
		}
	],
	"bufferViews":[
		{
			"buffer":0,
			"byteLength":4608,
			"byteOffset":0,
			"target":34962
		},
		{
			"buffer":0,
			"byteLength":4608,
			"byteOffset":4608,
			"target":34962
		},
		{
			"buffer":0,
			"byteLength":2304,
			"byteOffset":9216,
			"target":34963
		}
	],
	"buffers":[
		{
			"byteLength":11520,
			"uri":"Pipe.bin"
		}
	]
}
