{
	"asset":{
		"generator":"Khronos glTF Blender I/O v5.1.19",
		"version":"2.0"
	},
	"extensionsUsed":[
		"KHR_materials_specular"
	],
	"scene":0,
	"scenes":[
		{
			"name":"Scene",
			"nodes":[
				0,
				1,
				2,
				3,
				4
			]
		}
	],
	"nodes":[
		{
			"mesh":0,
			"name":"conveyor-stripe-part-end",
			"rotation":[
				0.5006205439567566,
				-0.49937865138053894,
				0.49937862157821655,
				0.5006207227706909
			],
			"translation":[
				0,
				0,
				5.239590167999268
			]
		},
		{
			"mesh":1,
			"name":"conveyor-stripe-part-middle.001",
			"rotation":[
				0.499736487865448,
				-0.5002633929252625,
				0.5002633333206177,
				0.4997365176677704
			]
		},
		{
			"mesh":2,
			"name":"conveyor-stripe-junction-t",
			"rotation":[
				0.7071068286895752,
				0,
				0,
				0.7071068286895752
			],
			"translation":[
				0,
				0,
				-5.484636306762695
			]
		},
		{
			"mesh":3,
			"name":"structure-short",
			"rotation":[
				0,
				-0.7105136513710022,
				0,
				0.7036834359169006
			],
			"translation":[
				0.005067999940365553,
				-0.49412599205970764,
				-4.894060134887695
			]
		},
		{
			"mesh":4,
			"name":"structure-short.001",
			"rotation":[
				0,
				-0.7105136513710022,
				0,
				0.7036834359169006
			],
			"translation":[
				0.002443948294967413,
				-0.49412599205970764,
				5.248465538024902
			]
		}
	],
	"materials":[
		{
			"doubleSided":true,
			"extensions":{
				"KHR_materials_specular":{
					"specularFactor":0
				}
			},
			"name":"colormap.003",
			"pbrMetallicRoughness":{
				"baseColorTexture":{
					"index":0
				},
				"metallicFactor":0
			}
		},
		{
			"doubleSided":true,
			"extensions":{
				"KHR_materials_specular":{
					"specularFactor":0
				}
			},
			"name":"colormap.005",
			"pbrMetallicRoughness":{
				"baseColorTexture":{
					"index":1
				},
				"metallicFactor":0
			}
		},
		{
			"doubleSided":true,
			"extensions":{
				"KHR_materials_specular":{
					"specularFactor":0
				}
			},
			"name":"colormap",
			"pbrMetallicRoughness":{
				"baseColorTexture":{
					"index":2
				},
				"metallicFactor":0
			}
		},
		{
			"doubleSided":true,
			"name":"colormap.001",
			"pbrMetallicRoughness":{
				"baseColorTexture":{
					"index":3
				},
				"metallicFactor":0
			}
		}
	],
	"meshes":[
		{
			"name":"conveyor-stripe-part-end.002",
			"primitives":[
				{
					"attributes":{
						"POSITION":0,
						"NORMAL":1,
						"TEXCOORD_0":2,
						"COLOR_0":3,
						"COLOR_1":4
					},
					"indices":5,
					"material":0
				}
			]
		},
		{
			"name":"conveyor-stripe-part-middle.001",
			"primitives":[
				{
					"attributes":{
						"POSITION":6,
						"NORMAL":7,
						"TEXCOORD_0":8,
						"COLOR_0":9,
						"COLOR_1":10
					},
					"indices":11,
					"material":1
				}
			]
		},
		{
			"name":"conveyor-stripe-junction-t",
			"primitives":[
				{
					"attributes":{
						"POSITION":12,
						"NORMAL":13,
						"TEXCOORD_0":14,
						"COLOR_0":15,
						"COLOR_1":16
					},
					"indices":17,
					"material":2
				}
			]
		},
		{
			"name":"structure-short",
			"primitives":[
				{
					"attributes":{
						"POSITION":18,
						"NORMAL":19,
						"TEXCOORD_0":20
					},
					"indices":21,
					"material":3
				}
			]
		},
		{
			"name":"structure-short.001",
			"primitives":[
				{
					"attributes":{
						"POSITION":22,
						"NORMAL":23,
						"TEXCOORD_0":24
					},
					"indices":21,
					"material":3
				}
			]
		}
	],
	"textures":[
		{
			"sampler":0,
			"source":0
		},
		{
			"sampler":0,
			"source":0
		},
		{
			"sampler":0,
			"source":0
		},
		{
			"sampler":0,
			"source":0
		}
	],
	"images":[
		{
			"mimeType":"image/png",
			"name":"colormap",
			"uri":"colormap.png"
		}
	],
	"accessors":[
		{
			"bufferView":0,
			"componentType":5126,
			"count":151,
			"max":[
				0.25,
				0.5,
				0
			],
			"min":[
				-0.25,
				-0.5,
				-0.4000000059604645
			],
			"type":"VEC3"
		},
		{
			"bufferView":1,
			"componentType":5126,
			"count":151,
			"type":"VEC3"
		},
		{
			"bufferView":2,
			"componentType":5126,
			"count":151,
			"type":"VEC2"
		},
		{
			"bufferView":3,
			"componentType":5126,
			"count":151,
			"type":"VEC3"
		},
		{
			"bufferView":4,
			"componentType":5123,
			"count":151,
			"normalized":true,
			"type":"VEC4"
		},
		{
			"bufferView":5,
			"componentType":5123,
			"count":552,
			"type":"SCALAR"
		},
		{
			"bufferView":6,
			"componentType":5126,
			"count":56,
			"max":[
				5,
				0.5,
				0
			],
			"min":[
				-5,
				-0.5,
				-0.4000000059604645
			],
			"type":"VEC3"
		},
		{
			"bufferView":7,
			"componentType":5126,
			"count":56,
			"type":"VEC3"
		},
		{
			"bufferView":8,
			"componentType":5126,
			"count":56,
			"type":"VEC2"
		},
		{
			"bufferView":9,
			"componentType":5126,
			"count":56,
			"type":"VEC3"
		},
		{
			"bufferView":10,
			"componentType":5123,
			"count":56,
			"normalized":true,
			"type":"VEC4"
		},
		{
			"bufferView":11,
			"componentType":5123,
			"count":180,
			"type":"SCALAR"
		},
		{
			"bufferView":12,
			"componentType":5126,
			"count":166,
			"max":[
				0.5000001788139343,
				0.5000001788139343,
				9.02389329684227e-17
			],
			"min":[
				-0.5000001788139343,
				-0.5000001788139343,
				-0.4000000059604645
			],
			"type":"VEC3"
		},
		{
			"bufferView":13,
			"componentType":5126,
			"count":166,
			"type":"VEC3"
		},
		{
			"bufferView":14,
			"componentType":5126,
			"count":166,
			"type":"VEC2"
		},
		{
			"bufferView":15,
			"componentType":5121,
			"count":166,
			"normalized":true,
			"type":"VEC4"
		},
		{
			"bufferView":16,
			"componentType":5123,
			"count":166,
			"normalized":true,
			"type":"VEC4"
		},
		{
			"bufferView":17,
			"componentType":5123,
			"count":621,
			"type":"SCALAR"
		},
		{
			"bufferView":18,
			"componentType":5126,
			"count":468,
			"max":[
				0.15000000596046448,
				0.5,
				0.550000011920929
			],
			"min":[
				-0.15000000596046448,
				0,
				-0.550000011920929
			],
			"type":"VEC3"
		},
		{
			"bufferView":19,
			"componentType":5126,
			"count":468,
			"type":"VEC3"
		},
		{
			"bufferView":20,
			"componentType":5126,
			"count":468,
			"type":"VEC2"
		},
		{
			"bufferView":21,
			"componentType":5123,
			"count":804,
			"type":"SCALAR"
		},
		{
			"bufferView":22,
			"componentType":5126,
			"count":468,
			"max":[
				0.15000000596046448,
				0.5,
				0.550000011920929
			],
			"min":[
				-0.15000000596046448,
				0,
				-0.550000011920929
			],
			"type":"VEC3"
		},
		{
			"bufferView":23,
			"componentType":5126,
			"count":468,
			"type":"VEC3"
		},
		{
			"bufferView":24,
			"componentType":5126,
			"count":468,
			"type":"VEC2"
		}
	],
	"bufferViews":[
		{
			"buffer":0,
			"byteLength":1812,
			"byteOffset":0,
			"target":34962
		},
		{
			"buffer":0,
			"byteLength":1812,
			"byteOffset":1812,
			"target":34962
		},
		{
			"buffer":0,
			"byteLength":1208,
			"byteOffset":3624,
			"target":34962
		},
		{
			"buffer":0,
			"byteLength":1812,
			"byteOffset":4832,
			"target":34962
		},
		{
			"buffer":0,
			"byteLength":1208,
			"byteOffset":6644,
			"target":34962
		},
		{
			"buffer":0,
			"byteLength":1104,
			"byteOffset":7852,
			"target":34963
		},
		{
			"buffer":0,
			"byteLength":672,
			"byteOffset":8956,
			"target":34962
		},
		{
			"buffer":0,
			"byteLength":672,
			"byteOffset":9628,
			"target":34962
		},
		{
			"buffer":0,
			"byteLength":448,
			"byteOffset":10300,
			"target":34962
		},
		{
			"buffer":0,
			"byteLength":672,
			"byteOffset":10748,
			"target":34962
		},
		{
			"buffer":0,
			"byteLength":448,
			"byteOffset":11420,
			"target":34962
		},
		{
			"buffer":0,
			"byteLength":360,
			"byteOffset":11868,
			"target":34963
		},
		{
			"buffer":0,
			"byteLength":1992,
			"byteOffset":12228,
			"target":34962
		},
		{
			"buffer":0,
			"byteLength":1992,
			"byteOffset":14220,
			"target":34962
		},
		{
			"buffer":0,
			"byteLength":1328,
			"byteOffset":16212,
			"target":34962
		},
		{
			"buffer":0,
			"byteLength":664,
			"byteOffset":17540,
			"target":34962
		},
		{
			"buffer":0,
			"byteLength":1328,
			"byteOffset":18204,
			"target":34962
		},
		{
			"buffer":0,
			"byteLength":1242,
			"byteOffset":19532,
			"target":34963
		},
		{
			"buffer":0,
			"byteLength":5616,
			"byteOffset":20776,
			"target":34962
		},
		{
			"buffer":0,
			"byteLength":5616,
			"byteOffset":26392,
			"target":34962
		},
		{
			"buffer":0,
			"byteLength":3744,
			"byteOffset":32008,
			"target":34962
		},
		{
			"buffer":0,
			"byteLength":1608,
			"byteOffset":35752,
			"target":34963
		},
		{
			"buffer":0,
			"byteLength":5616,
			"byteOffset":37360,
			"target":34962
		},
		{
			"buffer":0,
			"byteLength":5616,
			"byteOffset":42976,
			"target":34962
		},
		{
			"buffer":0,
			"byteLength":3744,
			"byteOffset":48592,
			"target":34962
		}
	],
	"samplers":[
		{
			"magFilter":9729,
			"minFilter":9987
		}
	],
	"buffers":[
		{
			"byteLength":52336,
			"uri":"BeltConveyor.bin"
		}
	]
}
