{
	"asset":{
		"generator":"Khronos glTF Blender I/O v5.1.19",
		"version":"2.0"
	},
	"scene":0,
	"scenes":[
		{
			"name":"Scene",
			"nodes":[
				0,
				1
			]
		}
	],
	"nodes":[
		{
			"mesh":0,
			"name":"Cube.003",
			"rotation":[
				0.7071068286895752,
				0,
				0,
				0.7071068286895752
			]
		},
		{
			"mesh":1,
			"name":"Solid.001",
			"scale":[
				0.8290600180625916,
				0.8182796239852905,
				0.12131652981042862
			],
			"translation":[
				0.010791731998324394,
				0.04851705953478813,
				1.0318623781204224
			]
		}
	],
	"materials":[
		{
			"doubleSided":true,
			"name":"Strip1.003",
			"pbrMetallicRoughness":{
				"baseColorFactor":[
					0.2476309984922409,
					0.15034599602222443,
					0.07047700136899948,
					1
				],
				"metallicFactor":0,
				"roughnessFactor":0.4307900071144104
			}
		},
		{
			"doubleSided":true,
			"name":"Strip2.003",
			"pbrMetallicRoughness":{
				"metallicFactor":0,
				"roughnessFactor":0.525658369064331
			}
		},
		{
			"doubleSided":true,
			"name":"Base.003",
			"pbrMetallicRoughness":{
				"baseColorFactor":[
					0.4262140095233917,
					0.2644740045070648,
					0.1735980063676834,
					1
				],
				"metallicFactor":0,
				"roughnessFactor":0.525658369064331
			}
		},
		{
			"doubleSided":true,
			"name":"Bianco"
		},
		{
			"doubleSided":true,
			"name":"Nero.001",
			"pbrMetallicRoughness":{
				"baseColorFactor":[
					0,
					0,
					0,
					1
				],
				"metallicFactor":0,
				"roughnessFactor":0.5
			}
		}
	],
	"meshes":[
		{
			"name":"Cube.003",
			"primitives":[
				{
					"attributes":{
						"POSITION":0,
						"NORMAL":1,
						"TEXCOORD_0":2
					},
					"indices":3,
					"material":0
				},
				{
					"attributes":{
						"POSITION":4,
						"NORMAL":5,
						"TEXCOORD_0":6
					},
					"indices":7,
					"material":1
				},
				{
					"attributes":{
						"POSITION":8,
						"NORMAL":9,
						"TEXCOORD_0":10
					},
					"indices":11,
					"material":2
				}
			]
		},
		{
			"name":"Solid.001",
			"primitives":[
				{
					"attributes":{
						"POSITION":12,
						"NORMAL":13
					},
					"indices":14,
					"material":3
				},
				{
					"attributes":{
						"POSITION":15,
						"NORMAL":16
					},
					"indices":17,
					"material":4
				}
			]
		}
	],
	"accessors":[
		{
			"bufferView":0,
			"componentType":5126,
			"count":24,
			"max":[
				1,
				0.9952836036682129,
				0.19779831171035767
			],
			"min":[
				-1,
				-1.004716396331787,
				0.0816643238067627
			],
			"type":"VEC3"
		},
		{
			"bufferView":1,
			"componentType":5126,
			"count":24,
			"type":"VEC3"
		},
		{
			"bufferView":2,
			"componentType":5126,
			"count":24,
			"type":"VEC2"
		},
		{
			"bufferView":3,
			"componentType":5123,
			"count":36,
			"type":"SCALAR"
		},
		{
			"bufferView":4,
			"componentType":5126,
			"count":28,
			"max":[
				1,
				0.2452988624572754,
				0.42411431670188904
			],
			"min":[
				-1,
				-0.23548507690429688,
				-0.5338456630706787
			],
			"type":"VEC3"
		},
		{
			"bufferView":5,
			"componentType":5126,
			"count":28,
			"type":"VEC3"
		},
		{
			"bufferView":6,
			"componentType":5126,
			"count":28,
			"type":"VEC2"
		},
		{
			"bufferView":7,
			"componentType":5123,
			"count":54,
			"type":"SCALAR"
		},
		{
			"bufferView":8,
			"componentType":5126,
			"count":106,
			"max":[
				1,
				0.9952836036682129,
				0.42411431670188904
			],
			"min":[
				-1,
				-1.004716396331787,
				-0.5338456630706787
			],
			"type":"VEC3"
		},
		{
			"bufferView":9,
			"componentType":5126,
			"count":106,
			"type":"VEC3"
		},
		{
			"bufferView":10,
			"componentType":5126,
			"count":106,
			"type":"VEC2"
		},
		{
			"bufferView":11,
			"componentType":5123,
			"count":186,
			"type":"SCALAR"
		},
		{
			"bufferView":12,
			"componentType":5126,
			"count":17255,
			"max":[
				0.5284324288368225,
				0.5284324884414673,
				0.5284324288368225
			],
			"min":[
				-0.5284324884414673,
				-0.5284324288368225,
				-0.5284324288368225
			],
			"type":"VEC3"
		},
		{
			"bufferView":13,
			"componentType":5126,
			"count":17255,
			"type":"VEC3"
		},
		{
			"bufferView":14,
			"componentType":5123,
			"count":65160,
			"type":"SCALAR"
		},
		{
			"bufferView":15,
			"componentType":5126,
			"count":8466,
			"max":[
				0.5250412821769714,
				0.5250412821769714,
				0.5250412821769714
			],
			"min":[
				-0.5250412821769714,
				-0.5250412821769714,
				-0.5250412821769714
			],
			"type":"VEC3"
		},
		{
			"bufferView":16,
			"componentType":5126,
			"count":8466,
			"type":"VEC3"
		},
		{
			"bufferView":17,
			"componentType":5123,
			"count":32580,
			"type":"SCALAR"
		}
	],
	"bufferViews":[
		{
			"buffer":0,
			"byteLength":288,
			"byteOffset":0,
			"target":34962
		},
		{
			"buffer":0,
			"byteLength":288,
			"byteOffset":288,
			"target":34962
		},
		{
			"buffer":0,
			"byteLength":192,
			"byteOffset":576,
			"target":34962
		},
		{
			"buffer":0,
			"byteLength":72,
			"byteOffset":768,
			"target":34963
		},
		{
			"buffer":0,
			"byteLength":336,
			"byteOffset":840,
			"target":34962
		},
		{
			"buffer":0,
			"byteLength":336,
			"byteOffset":1176,
			"target":34962
		},
		{
			"buffer":0,
			"byteLength":224,
			"byteOffset":1512,
			"target":34962
		},
		{
			"buffer":0,
			"byteLength":108,
			"byteOffset":1736,
			"target":34963
		},
		{
			"buffer":0,
			"byteLength":1272,
			"byteOffset":1844,
			"target":34962
		},
		{
			"buffer":0,
			"byteLength":1272,
			"byteOffset":3116,
			"target":34962
		},
		{
			"buffer":0,
			"byteLength":848,
			"byteOffset":4388,
			"target":34962
		},
		{
			"buffer":0,
			"byteLength":372,
			"byteOffset":5236,
			"target":34963
		},
		{
			"buffer":0,
			"byteLength":207060,
			"byteOffset":5608,
			"target":34962
		},
		{
			"buffer":0,
			"byteLength":207060,
			"byteOffset":212668,
			"target":34962
		},
		{
			"buffer":0,
			"byteLength":130320,
			"byteOffset":419728,
			"target":34963
		},
		{
			"buffer":0,
			"byteLength":101592,
			"byteOffset":550048,
			"target":34962
		},
		{
			"buffer":0,
			"byteLength":101592,
			"byteOffset":651640,
			"target":34962
		},
		{
			"buffer":0,
			"byteLength":65160,
			"byteOffset":753232,
			"target":34963
		}
	],
	"buffers":[
		{
			"byteLength":818392,
			"uri":"SoccerBallBox.bin"
		}
	]
}
